<svg preserveAspectRatio="none" width="100%" height="100%" overflow="visible" style="display: block;" viewBox="0 0 81.2292 61.9296" fill="none" xmlns="http://www.w3.org/2000/svg">
<g id="Group">
<path id="Vector" d="M9.00377 18.842C8.54976 18.5177 8.15858 18.238 7.74713 17.9442C7.4056 18.5512 7.98731 18.6586 8.10284 19.0559C7.90522 19.293 7.63565 19.5464 7.45526 19.8514C7.21812 20.2507 6.94247 20.6743 6.87356 21.1182C6.69317 22.2674 7.96197 23.1704 9.03823 22.6596C9.44765 22.465 9.77904 22.0941 10.1246 21.78C10.3952 21.5357 10.6323 21.255 10.907 20.9682C11.4431 21.2621 11.9397 21.5347 12.5406 21.8641C12.5041 22.5643 12.496 23.297 12.4241 24.0247C12.2163 26.1397 11.9751 28.2517 11.7664 30.3667C11.7258 30.7761 11.7745 31.1936 11.7836 31.7054C12.422 31.4754 12.4403 31.0619 12.4808 30.6778C12.5497 30.0069 12.645 29.334 12.644 28.6631C12.643 27.7895 13.0027 27.1187 13.5875 26.5086C16.0612 23.9264 18.4762 21.2854 21.0047 18.7579C22.7285 17.0351 24.6682 15.5575 27.0407 14.7944C28.5517 14.308 30.0971 13.9837 31.6923 13.9249C32.3956 13.8996 33.0969 13.8398 33.8985 13.7891C33.8508 12.7828 33.8073 11.8606 33.7637 10.9343C32.9185 10.534 31.9699 10.987 31.1126 10.4458C31.2149 10.1925 31.2818 9.94218 31.4085 9.72733C31.974 8.76864 32.577 7.83223 33.1242 6.8634C33.4708 6.25028 33.7809 5.61081 34.0404 4.95715C34.7822 3.08941 36.0692 1.80338 37.9765 1.15682C39.5888 0.610583 41.2265 0.588288 42.8571 1.03014C43.8939 1.31086 44.7147 1.95438 45.3998 2.78134C46.9625 4.66731 47.3881 6.86442 47.1895 9.2338C47.0679 10.6769 46.9311 12.119 46.7922 13.6574C47.677 13.7243 48.5059 13.7922 49.3349 13.8479C52.0965 14.0323 54.78 14.5776 57.0815 16.1768C58.6229 17.2479 60.0823 18.4803 61.4119 19.8078C63.4863 21.8803 65.3997 24.1139 67.4225 26.24C68.1846 27.0406 68.6376 27.896 68.6001 29.0259C68.5798 29.6269 68.7034 30.2349 68.7825 30.8359C68.825 31.1571 68.8575 31.5129 69.4118 31.601C69.4949 29.9421 69.2061 28.3581 69.0581 26.767C68.9081 25.1577 68.7734 23.5463 68.6264 21.8712C69.1686 21.5692 69.6905 21.2783 70.3563 20.9074C70.7759 21.3736 71.1579 21.8945 71.6343 22.3059C72.6598 23.1906 74.0178 22.7762 74.3573 21.5215C74.5144 20.9398 74.2996 20.4534 73.9661 20.0136C73.7057 19.67 73.3925 19.365 73.1078 19.0478C73.3186 18.7407 73.5111 18.46 73.8232 18.005C72.9841 18.0425 72.7014 18.5492 72.2008 18.8593C72.4288 19.1481 72.6294 19.4035 72.8311 19.6579C73.0611 19.9487 73.3236 20.2193 73.5141 20.5335C73.7898 20.9885 73.7047 21.5256 73.3652 21.8316C73.0186 22.1438 72.4815 22.1934 72.071 21.8316C71.4934 21.3229 70.9826 20.7382 70.4131 20.1544C70.1151 20.3166 69.8577 20.4625 69.5952 20.5993C69.2669 20.7696 68.9446 20.9621 68.6001 21.0929C68.0082 21.3168 67.46 21.1841 67.2279 20.805C66.9786 20.3987 67.1387 19.7936 67.6616 19.3964C68.4937 18.764 69.3561 18.1712 70.1972 17.5489C70.4455 17.3645 70.6634 17.1385 70.8945 16.9307C70.8407 16.8486 70.786 16.7676 70.7323 16.6855C70.4921 16.8071 70.2286 16.8973 70.0148 17.0544C69.2547 17.6148 68.5281 18.2208 67.7579 18.765C67.2928 19.0934 66.786 19.3741 66.2692 19.6153C65.7179 19.8727 65.272 19.7714 64.9781 19.4146C64.671 19.0417 64.6984 18.5005 65.0987 18.0262C65.3135 17.7719 65.5811 17.556 65.8466 17.3493C66.8296 16.5801 67.8248 15.8261 68.8078 15.0569C69.0227 14.8887 69.2081 14.683 69.4078 14.4934L69.2385 14.2604C68.9396 14.4286 68.6193 14.5684 68.3437 14.7691C67.1995 15.6042 66.0827 16.4777 64.9224 17.2895C64.5849 17.5256 64.14 17.7202 63.7387 17.7293C62.9431 17.7475 62.4962 16.9003 62.9107 16.2142C63.0962 15.9062 63.3809 15.6396 63.6677 15.4126C64.7521 14.5553 65.8578 13.7253 66.9502 12.8781C67.1499 12.723 67.3242 12.5365 67.5106 12.3643C67.4742 12.3035 67.4387 12.2416 67.4022 12.1808C67.1853 12.273 66.9401 12.3278 66.7567 12.4646C65.8344 13.1466 64.9284 13.8499 64.0164 14.5441C63.7752 14.7275 63.5401 14.9211 63.2877 15.0893C62.9229 15.3326 62.5428 15.4086 62.1669 15.1056C61.7899 14.8015 61.5902 14.3952 61.7808 13.9452C61.9601 13.5216 62.1861 13.0625 62.5226 12.7686C63.6657 11.7734 64.8271 10.7884 66.0554 9.90265C68.1167 8.41698 70.253 8.73316 72.3386 9.87732C73.7939 10.6749 74.9076 11.8616 75.692 13.3088C76.3963 14.61 76.9922 15.9599 77.351 17.4202C78.2103 20.9226 79.162 24.4027 80.0426 27.9C80.754 30.7214 81.1837 33.5924 81.2273 36.5019C81.2516 38.1204 81.0459 39.7226 80.5088 41.2812C79.7153 43.5868 77.9651 45.1484 75.1113 45.2711C72.9061 45.3653 70.8347 44.8343 68.9355 43.677C66.9695 42.4791 65.1413 41.0988 63.4722 39.5138C61.0268 37.19 58.5794 34.8683 56.1664 32.5111C55.3516 31.7155 54.6392 30.8146 53.7159 29.7789C53.5254 30.9261 53.6409 31.8828 53.5761 32.8232C53.5112 33.7657 53.4403 34.7092 53.4139 35.6527C53.3866 36.6246 53.4079 37.5985 53.4079 38.6848C44.889 38.9646 36.5091 39.073 27.9923 38.9858C27.8605 35.9912 27.7308 33.0421 27.595 29.9461C27.3356 30.1366 27.141 30.2349 27.0062 30.3859C23.5687 34.2501 19.8079 37.7819 15.8616 41.114C14.682 42.1102 13.3949 43.0071 12.0633 43.7895C9.94321 45.036 7.6164 45.5548 5.15986 45.1525C3.13707 44.8211 1.7426 43.6243 0.946053 41.7545C0.0957924 39.757 -0.0693954 37.643 0.022826 35.5027C0.127208 33.0685 0.533591 30.6687 1.09807 28.3094C2.02433 24.4422 3.02255 20.5922 4.0603 16.7534C4.64808 14.5786 5.66758 12.6196 7.3296 11.0265C8.7119 9.70199 10.3547 9.03009 12.2315 8.89835C13.2115 8.82944 14.1205 9.17501 14.8887 9.73036C16.197 10.6789 17.4577 11.6984 18.6911 12.7433C19.0306 13.0311 19.2525 13.4922 19.443 13.9128C19.6488 14.3658 19.4451 14.7691 19.0782 15.0782C18.7103 15.3893 18.3212 15.3326 17.9594 15.0812C17.4891 14.7549 17.0351 14.4033 16.5791 14.0567C15.9346 13.5662 15.3032 13.0595 14.6506 12.5811C14.4013 12.3987 14.1084 12.2761 13.8348 12.1261C13.781 12.2051 13.7283 12.2832 13.6746 12.3622C13.9108 12.5629 14.1388 12.7737 14.385 12.9612C15.4309 13.7597 16.4859 14.5441 17.5266 15.3488C17.7912 15.5525 18.0415 15.7886 18.2482 16.0501C18.5532 16.4352 18.5532 16.8649 18.2654 17.2682C17.9807 17.6675 17.5641 17.8134 17.1071 17.6888C16.8243 17.6117 16.5568 17.4374 16.3146 17.2621C15.1917 16.4544 14.0841 15.6275 12.9632 14.8188C12.6784 14.613 12.3653 14.4458 12.0653 14.2614C12.0055 14.3262 11.9447 14.3911 11.8849 14.456C12.041 14.6252 12.1758 14.8208 12.3552 14.9596C13.3949 15.7663 14.4499 16.5517 15.4876 17.3604C15.7775 17.5864 16.0552 17.8418 16.2872 18.1266C16.5963 18.5056 16.6156 18.9322 16.3034 19.3356C16.0025 19.7257 15.5849 19.892 15.139 19.6953C14.5867 19.4521 14.0496 19.1552 13.553 18.8127C12.8041 18.2958 12.0998 17.7151 11.3701 17.1709C11.1178 16.9824 10.8431 16.8233 10.529 16.6176C10.3405 17.0827 10.5624 17.2358 10.7813 17.3878C11.6397 17.9847 12.5011 18.5775 13.3554 19.1795C14.078 19.6883 14.3283 20.276 14.0466 20.7716C13.7729 21.255 13.1456 21.33 12.3166 20.9418C11.8312 20.7148 11.3691 20.4402 10.7205 20.0926C10.5665 20.3074 10.4134 20.5669 10.2158 20.7878C9.90267 21.1395 9.58142 21.4901 9.2247 21.7962C8.70076 22.2461 8.27613 22.2674 7.8657 21.9289C7.50897 21.635 7.40256 21.0513 7.72078 20.5446C8.07649 19.9791 8.52341 19.4704 9.00478 18.839L9.00377 18.842Z" fill="var(--fill-0, #2B1A12)"/>
<path id="Vector_2" d="M48.3368 58.832C48.3368 59.5029 48.35 60.0765 48.3338 60.648C48.3095 61.4882 48.2426 61.5814 47.4116 61.6483C45.934 61.7679 44.4534 61.9402 42.9758 61.929C40.1443 61.9077 37.3128 61.7841 34.4823 61.6787C33.4091 61.6382 33.2703 61.548 33.3149 60.495C33.3635 59.3519 32.9501 58.7773 31.9123 58.1844C28.4697 56.2153 26.1966 53.3058 25.6372 49.2592C25.5085 48.3269 25.471 47.3813 25.3646 46.4449C25.2582 45.5096 25.7031 44.8812 26.4692 44.4657C27.3854 43.9691 28.3116 43.4817 29.2683 43.0703C31.6438 42.0477 34.1743 41.6302 36.7169 41.313C41.254 40.7455 45.7425 41.1245 50.1498 42.2707C51.5362 42.6314 52.8942 43.2182 54.164 43.8911C56.3469 45.0484 56.1827 45.2461 55.9081 47.5435C55.6933 49.3393 55.1795 51.1188 54.3637 52.7586C53.184 55.131 51.5463 57.1112 49.1709 58.3942C48.9064 58.5371 48.6388 58.6729 48.3358 58.831L48.3368 58.832ZM54.5846 45.9433C54.2866 45.7214 54.0292 45.5126 53.7556 45.3281C51.9943 44.1384 50.0151 43.4746 47.9609 43.0652C43.8646 42.2494 39.7319 42.146 35.5931 42.6841C32.9024 43.0338 30.3344 43.8212 27.9448 45.1285C27.4928 45.3758 27.0834 45.7021 26.6172 46.0163C27.8556 47.3134 29.2987 47.9995 30.8462 48.5184C33.7162 49.4811 36.6845 49.8521 39.6893 49.9159C41.2003 49.9483 42.7164 49.8217 44.2294 49.7406C46.5654 49.6149 48.8344 49.1396 51.0153 48.2954C52.3419 47.7816 53.5286 47.0256 54.5856 45.9433H54.5846Z" fill="var(--fill-0, #2B1A12)"/>
<path id="Vector_3" d="M64.243 10.4084C63.8275 10.7783 63.4292 11.133 62.955 11.5546C62.507 11.0773 62.0946 10.6385 61.6831 10.1997C61.2281 9.71423 60.7731 9.40413 60.0079 9.5977C59.0543 9.83889 58.1392 9.48216 57.3193 8.98356C55.8884 8.11404 54.8628 6.89185 54.3611 5.28254C54.0186 4.18399 53.9244 3.05099 54.7848 2.14195C55.6198 1.26027 56.7508 1.27345 57.8088 1.56937C59.3674 2.00514 60.693 2.85439 61.5797 4.26507C62.1716 5.20654 62.4695 6.23212 62.276 7.34486C62.1584 8.01676 62.3682 8.50826 62.8556 8.95822C63.3228 9.38893 63.7383 9.87639 64.242 10.4094L64.243 10.4084Z" fill="var(--fill-0, #2B1A12)"/>
<path id="Vector_4" d="M17.9056 11.328C17.4415 10.9206 17.0452 10.574 16.6236 10.2052C17.2408 9.4978 17.785 8.85832 18.3475 8.23507C18.691 7.85402 18.8278 7.43852 18.689 6.93485C18.4073 5.91535 18.6099 4.95665 19.2687 4.17125C20.3723 2.85583 21.5468 1.6002 22.7123 0.338492C22.8927 0.142901 23.1825 0.0476308 23.5119 0C22.9606 1.74106 21.3482 2.74942 20.581 4.35164C21.0107 4.54318 21.1972 4.2503 21.3867 4.04863C22.1478 3.23688 22.8825 2.40081 23.6487 1.59311C23.9071 1.3205 24.2283 1.10869 24.5486 0.847231C24.8921 1.40056 24.5729 1.67114 24.355 1.94375C23.6598 2.81326 22.9443 3.66556 22.2481 4.53406C22.0535 4.77728 21.8995 5.05192 21.6654 5.4056C22.2603 5.52417 22.4224 5.19481 22.6261 4.95868C23.3315 4.14186 24.0196 3.30984 24.7351 2.50214C24.9864 2.21839 25.2296 1.86267 25.7424 1.90321C25.8873 2.36229 25.6167 2.64605 25.4039 2.91967C24.7827 3.71724 24.13 4.49149 23.5037 5.28601C23.2605 5.59409 23.0518 5.93055 22.8227 6.26092C23.2767 6.55684 23.4632 6.22951 23.6497 6.02886C24.43 5.18873 25.1799 4.32023 25.9603 3.48111C26.2136 3.20952 26.4305 2.80921 27.0791 2.96527C26.9565 3.27234 26.9088 3.57029 26.7447 3.77702C25.6167 5.20291 24.4928 6.63386 23.3071 8.01212C22.7569 8.65159 21.9654 8.93028 21.1131 8.84009C20.3176 8.75496 19.7602 9.05595 19.295 9.67616C18.8755 10.2356 18.3961 10.7494 17.9046 11.327L17.9056 11.328Z" fill="var(--fill-0, #2B1A12)"/>
<path id="Vector_5" d="M54.5845 45.9427C53.5275 47.026 52.3418 47.781 51.0142 48.2948C48.8334 49.139 46.5653 49.6153 44.2284 49.74C42.7163 49.821 41.2003 49.9477 39.6882 49.9153C36.6834 49.8504 33.7151 49.4805 30.8451 48.5178C29.2986 47.9989 27.8545 47.3128 26.6161 46.0156C27.0823 45.7005 27.4917 45.3751 27.9437 45.1279C30.3333 43.8195 32.9014 43.0331 35.592 42.6835C39.7308 42.1464 43.8635 42.2487 47.9598 43.0645C50.014 43.474 51.9932 44.1378 53.7545 45.3275C54.0282 45.512 54.2856 45.7207 54.5835 45.9427H54.5845ZM36.3754 46.8679C36.5598 45.7065 36.0369 44.9303 35.1795 44.3567C34.2867 43.7587 33.33 43.7638 32.418 44.3222C31.4978 44.8857 30.9566 45.6792 31.0782 46.8679H36.3754ZM44.7229 47.5358C45.7515 48.8836 47.9213 48.7275 48.9225 47.7678C49.9025 46.8294 49.9562 45.289 48.9732 44.228C47.5129 45.2708 46.0191 46.2781 44.7229 47.5358ZM41.5509 48.689C41.5185 47.255 40.3885 46.2153 39.0741 46.3369C37.7627 46.4585 36.8871 47.4679 37.0767 48.689H41.5509ZM44.9145 45.1005C44.2608 44.3678 43.67 43.705 43.0244 42.9804C42.2127 43.6655 41.5094 44.2604 40.806 44.8543C41.5205 45.5707 42.1316 46.1828 42.7873 46.8395C43.442 46.3045 44.1108 45.7572 44.9145 45.1005Z" fill="var(--fill-0, #BE3FFF)"/>
<path id="Vector_6" d="M36.3745 46.8664H31.0773C30.9557 45.6776 31.4969 44.8841 32.4171 44.3207C33.3292 43.7623 34.2858 43.7572 35.1787 44.3551C36.036 44.9287 36.5589 45.705 36.3745 46.8664Z" fill="var(--fill-0, #2B1A12)"/>
<path id="Vector_7" d="M44.721 47.5342C46.0172 46.2766 47.512 45.2692 48.9713 44.2264C49.9543 45.2875 49.9006 46.8279 48.9207 47.7663C47.9194 48.725 45.7497 48.8821 44.721 47.5342Z" fill="var(--fill-0, #2B1A12)"/>
<path id="Vector_8" d="M41.5505 48.688H37.0763C36.8868 47.4678 37.7624 46.4574 39.0737 46.3358C40.3881 46.2142 41.5181 47.254 41.5505 48.688Z" fill="var(--fill-0, #2B1A12)"/>
<path id="Vector_9" d="M44.9167 45.1005C44.1131 45.7572 43.4442 46.3045 42.7895 46.8396C42.1338 46.1829 41.5227 45.5698 40.8083 44.8543C41.5116 44.2604 42.2149 43.6666 43.0267 42.9805C43.6722 43.7051 44.263 44.3668 44.9167 45.1005Z" fill="var(--fill-0, #2B1A12)"/>
</g>
</svg>
