<svg preserveAspectRatio="none" width="100%" height="100%" overflow="visible" style="display: block;" viewBox="0 0 143.172 42.3345" fill="none" xmlns="http://www.w3.org/2000/svg">
<g id="Group">
<path id="Vector" d="M0.0001056 1.37248H16.0956C16.8056 7.36293 19.5466 18.8384 23.5092 29.0922C27.5214 18.8353 30.2097 7.36293 30.9228 1.37248H47.0183C42.0417 11.0682 36.0513 29.8054 33.4126 41.2778H13.6119C10.964 29.8023 4.97354 11.0682 0.0001056 1.37248Z" fill="var(--fill-0, #FFFE7C)"/>
<path id="Vector_2" d="M56.506 0C60.6701 0 64.1707 1.82628 64.2235 6.04315C64.1738 10.2569 60.6701 12.0863 56.506 12.0863C52.3418 12.0863 48.7388 10.2569 48.7884 6.04315C48.7388 1.82938 52.3418 0 56.506 0ZM49.2442 14.0645H63.5599C62.546 21.072 62.546 34.2218 63.5599 41.2789H49.2442C50.1589 34.2218 50.1589 21.072 49.2442 14.0645Z" fill="var(--fill-0, #FFFE7C)"/>
<path id="Vector_3" d="M81.3309 36.9617C81.4828 38.5368 81.6874 40.0592 82.0936 41.2778H67.778C68.7919 31.6813 68.7919 10.9163 67.778 1.37248H82.0936C81.2316 9.08998 80.9774 13.2542 80.8751 17.8741C82.7541 14.7766 87.0175 12.7984 91.4359 12.7984C100.015 12.7984 104.13 19.7035 104.13 27.6225C104.13 37.7771 97.7333 42.2948 91.5909 42.2948C86.9709 42.2948 83.061 40.3135 81.334 36.9648L81.3309 36.9617ZM85.7493 34.5742C88.4406 34.5742 91.2839 32.8471 91.2839 27.6194C91.2839 22.3917 88.4406 20.5624 85.7493 20.5624C83.0579 20.5624 80.2146 22.3917 80.2146 27.6194C80.2146 32.8471 83.0579 34.5742 85.7493 34.5742Z" fill="var(--fill-0, #FFFE7C)"/>
<path id="Vector_4" d="M106.82 29.0388C105.905 17.4641 114.234 12.7914 124.947 12.7914C132.258 12.7914 141.194 15.9913 141.194 22.3352C141.194 28.6791 134.239 31.2185 127.994 31.2185C125.253 31.2185 120.888 30.6604 119.009 28.6791L119.058 29.5411C119.21 33.5006 123.477 34.5176 126.723 34.5176C130.58 34.5176 133.424 32.9952 135.303 30.862C136.825 32.4371 140.685 35.1781 143.172 36.0401C138.503 41.4724 132.205 42.3344 127.077 42.3344C117.837 42.3344 108.24 39.7453 106.82 29.0326V29.0388ZM123.471 27.7706C126.162 27.7706 128.345 26.3505 128.345 23.6592C128.345 20.9678 126.162 19.495 123.471 19.495C120.779 19.495 118.596 20.9678 118.596 23.6592C118.596 26.3505 120.779 27.7706 123.471 27.7706Z" fill="var(--fill-0, #FFFE7C)"/>
</g>
</svg>
