<svg preserveAspectRatio="none" width="100%" height="100%" overflow="visible" style="display: block;" viewBox="0 0 143.02 25.6047" fill="none" xmlns="http://www.w3.org/2000/svg">
<g id="Group">
<path id="Vector" d="M6.68303e-05 19.423C2.7701 19.6268 6.35724 19.7732 10.1204 19.8029C10.1204 19.0728 10.063 18.3446 9.94623 17.7314H17.5003C17.3836 18.3446 17.3262 19.0728 17.3262 19.8029C21.1468 19.7732 24.7339 19.6287 27.5336 19.423V25.0224H6.68303e-05V19.423ZM1.63244 7.34979H19.2476V5.97866H1.8659C2.09936 4.81136 2.09936 1.83751 1.8659 0.670212H25.6048C25.2842 3.00296 25.2842 7.64067 25.6048 9.97342H7.99146V11.4613C10.0611 11.5484 12.2493 11.6077 14.4654 11.6077C18.4601 11.6077 22.5142 11.4613 25.8975 11.1704C25.6066 12.5989 25.6066 15.3115 25.8975 16.7697H1.63244C1.95298 14.437 1.95298 9.68254 1.63244 7.34979Z" fill="var(--fill-0, #FFFE7C)"/>
<path id="Vector_2" d="M29.6343 8.37124C31.2389 8.48797 32.8138 8.57505 34.2127 8.57505C36.7493 8.57505 38.8504 8.28414 39.9584 7.37994H30.3643V5.63085H40.8626L40.9497 4.58027H30.0716C30.305 3.5019 30.305 1.5768 30.0716 0.496577H45.732V5.57154C45.732 11.8991 41.0665 13.8835 32.7842 13.8835C31.7929 13.8835 30.7423 13.8538 29.6343 13.7964C30.0141 12.3086 30.0141 9.68492 29.6343 8.37124ZM31.5576 18.6064H48.0629V17.5559H31.6447C31.791 16.5646 31.791 15.3398 31.6447 14.406H55.7041C55.441 16.4182 55.441 18.4601 55.7041 20.4723H39.1988V21.5228C44.711 21.6396 50.4549 21.5803 55.7634 21.2894C55.5299 22.805 55.5299 24.089 55.7634 25.6047H31.5576C31.9374 23.3016 31.9948 21.2004 31.5576 18.6064ZM46.3434 4.46168H48.5891C48.5316 2.77002 48.3853 1.1951 48.1814 0H55.7059C55.1223 3.38333 55.1223 9.62375 55.7059 13.6778H48.1814C48.3556 12.366 48.502 10.8485 48.5613 9.24578H46.3453C46.5194 7.9636 46.5194 5.74572 46.3453 4.46354L46.3434 4.46168Z" fill="var(--fill-0, #FFFE7C)"/>
<path id="Vector_3" d="M58.4167 0.846748H64.3662V8.66213H68.8575V0.846748H74.8071C74.2827 5.27879 74.2827 19.0437 74.8071 23.4776H58.4167C58.941 19.0456 58.941 5.28064 58.4167 0.846748ZM68.8575 17.0315V11.2858H64.3662V17.0315H68.8575ZM76.4098 0H84.051C83.8768 2.74038 83.7601 5.71608 83.7008 8.77886H86.1207C85.9465 10.4705 85.9465 12.2196 86.1207 13.9113H83.6712C83.7008 17.8782 83.8175 21.7859 84.051 25.3138H76.4098C76.9064 17.5281 76.9064 7.78757 76.4098 0Z" fill="var(--fill-0, #FFFE7C)"/>
<path id="Vector_4" d="M87.0257 12.2789C87.0257 4.66736 89.7661 0.235317 95.862 0.235317C101.958 0.235317 104.698 4.66736 104.698 12.2789C104.698 19.8905 101.958 24.3225 95.862 24.3225C89.7661 24.3225 87.0257 19.8905 87.0257 12.2789ZM95.8638 17.5855C98.0502 17.5855 98.9841 15.8938 98.9841 12.2771C98.9841 8.66027 98.0502 6.96861 95.8638 6.96861C93.6775 6.96861 92.7436 8.66027 92.7436 12.2771C92.7436 15.8938 93.6775 17.5855 95.8638 17.5855ZM105.808 0H113.449C112.953 7.78572 112.953 17.5262 113.449 25.3138H105.808C106.305 17.5281 106.305 7.78757 105.808 0Z" fill="var(--fill-0, #FFFE7C)"/>
<path id="Vector_5" d="M115.49 19.0732C119.135 19.3363 124.21 19.4809 129.255 19.4809C134.3 19.4809 139.375 19.3345 143.02 19.0732V25.0228H115.49V19.0732ZM117.413 0.700256H123.771V5.65852H134.736V0.700256H141.093C140.569 5.27868 140.569 12.6568 141.093 17.0907H117.413C117.938 12.6586 117.938 5.27868 117.413 0.700256ZM134.738 11.1986V8.28215H123.772V11.1986H134.738Z" fill="var(--fill-0, #FFFE7C)"/>
</g>
</svg>
