<svg preserveAspectRatio="none" width="100%" height="100%" overflow="visible" style="display: block;" viewBox="0 0 226.437 40.9215" fill="none" xmlns="http://www.w3.org/2000/svg">
<g id="Group">
<path id="Vector" d="M0 0.000221634H14.3157C13.5529 6.54878 13.3018 18.4304 13.6056 28.3308C15.8412 28.4827 18.2256 28.5354 20.6627 28.5354C26.1446 28.5354 31.6297 28.1789 34.8792 27.5215C34.2683 31.5338 34.2683 35.8995 34.8792 39.9086H0C1.01391 30.309 1.01391 9.544 0 0.000221634Z" fill="var(--fill-0, #FFFE7C)"/>
<g id="Group_2">
<path id="Vector_2" d="M136.528 26.1468C136.528 17.9208 142.773 11.3723 154.704 11.3723C161.61 11.3723 166.586 13.5551 169.581 17.0092C166.788 18.4293 163.386 20.6649 161.306 22.4912C160.292 20.5626 157.396 19.3936 154.704 19.3936C150.643 19.3936 148.357 22.085 148.357 26.1468C148.357 30.2087 150.643 32.9 154.704 32.9C158.766 32.9 161.051 31.4272 162.574 29.2444C164.096 30.8195 168.108 33.6101 170.595 34.5744C167.702 38.4843 162.775 40.9214 154.704 40.9214C142.773 40.9214 136.528 34.3728 136.528 26.1468Z" fill="var(--fill-0, #FFFE7C)"/>
<path id="Vector_3" d="M172.215 31.6286C172.215 24.7234 179.831 22.9964 185.365 22.9964C189.936 22.9964 194.249 24.1126 195.774 25.5358C195.725 24.6738 195.622 23.8087 195.47 22.9468C195.014 20.8662 189.328 20.3081 187.347 20.3081C184.351 20.3081 180.745 20.8662 176.938 22.2367C176.888 20.0539 175.719 15.282 174.653 13.2511C178.612 12.0325 183.334 11.4248 188.004 11.4248H188.562C198.717 11.5767 208.465 14.8758 208.108 21.9329C207.805 28.1279 207.6 33.8145 208.564 39.9042H194.245C194.602 39.2438 194.906 38.4314 195.16 37.7213C193.384 39.7523 189.322 40.9212 185.058 40.9212C178.814 40.9212 172.212 38.2298 172.212 31.6317L172.215 31.6286ZM190.593 35.6904C193.284 35.6904 196.128 34.5215 196.128 31.5263C196.128 28.531 193.284 27.4148 190.593 27.4148C187.902 27.4148 185.058 28.531 185.058 31.5263C185.058 34.5215 187.902 35.6904 190.593 35.6904Z" fill="var(--fill-0, #FFFE7C)"/>
<path id="Vector_4" d="M212.121 0.0502314H226.437C225.32 9.59401 225.32 30.3094 226.437 39.9059H212.121C213.135 30.3094 213.135 9.59711 212.121 0.0502314Z" fill="var(--fill-0, #FFFE7C)"/>
</g>
<path id="Vector_5" d="M112.942 11.7824C117.432 11.7824 121.087 15.435 121.087 19.9247C121.087 24.4145 117.435 28.067 112.942 28.067H57.4312C52.9414 28.067 49.2889 24.4145 49.2889 19.9247C49.2889 15.435 52.9414 11.7824 57.4312 11.7824H112.942ZM112.942 0H57.4312C46.427 0 37.5033 8.92365 37.5033 19.9278C37.5033 30.932 46.4239 39.8526 57.4281 39.8526H112.939C123.943 39.8526 132.867 30.932 132.867 19.9278C132.867 8.92365 123.946 0 112.942 0Z" fill="var(--fill-0, #BE3FFF)"/>
</g>
</svg>
