<svg preserveAspectRatio="none" width="100%" height="100%" overflow="visible" style="display: block;" viewBox="0 0 62.6469 62.6469" fill="none" xmlns="http://www.w3.org/2000/svg">
<g id="Group 1430103231">
<path id="Vector 64" d="M18.7426 47.7105C25.5064 50.7805 30.2278 45.7705 37.6552 45.6894C41.2514 45.6501 43.4521 47.1672 46.8588 46.0142C52.9641 43.9479 55.0844 38.4356 55.5932 32.0102C56.4711 20.9259 45.3866 14.7438 34.4068 12.9894C24.0193 11.3296 13.5418 13.3198 9.39462 22.9871C5.32513 32.4732 9.34328 43.4443 18.7426 47.7105Z" fill="var(--fill-0, #EA3E4A)"/>
<g id="Group">
<path id="Vector" d="M42.6383 39.2352L42.4191 42.1716C38.9682 41.9687 35.5898 41.7693 32.0973 41.5634C32.3246 34.5287 33.239 27.6869 33.3854 20.6811L43.919 21.4676L43.7606 23.5904C43.2445 23.6555 42.7303 23.7347 42.2126 23.7817C40.0243 23.9801 38.197 24.9887 36.7832 26.5733C35.228 28.3167 34.7805 30.4797 35.1966 32.7809C35.3589 33.677 35.851 34.4273 36.4844 35.0865C38.1026 36.7709 39.8421 38.273 42.1354 38.9764C42.2903 39.0238 42.4282 39.1258 42.6373 39.2351L42.6383 39.2352Z" fill="var(--fill-0, #2B1A12)"/>
<path id="Vector_2" d="M24.6411 39.3197C25.3049 33.3261 25.9685 27.3336 26.6336 21.3222C27.1171 21.1461 27.4242 21.4241 27.7174 21.6622C31.0548 24.3729 32.6439 27.7682 31.8583 32.1233C31.1681 35.9493 28.8498 38.2357 25.2048 39.3119C25.0794 39.3494 24.9488 39.3765 24.8184 39.3877C24.7623 39.3925 24.7001 39.344 24.6402 39.3186L24.6411 39.3197Z" fill="var(--fill-0, #2B1A12)"/>
<path id="Vector_3" d="M19.8325 37.2289C20.0603 32.8033 20.2858 28.4343 20.5101 24.0682C20.5907 24.0573 20.6682 24.0202 20.7163 24.0437C23.4982 25.3715 25.0376 28.4313 24.573 31.4769C24.1471 34.2724 22.3621 35.9429 20.0656 37.2433C20.0198 37.2698 19.9404 37.2379 19.8314 37.2298L19.8325 37.2289Z" fill="var(--fill-0, #2B1A12)"/>
</g>
</g>
</svg>
