<svg preserveAspectRatio="none" width="100%" height="100%" overflow="visible" style="display: block;" viewBox="0 0 57.237 57.237" fill="none" xmlns="http://www.w3.org/2000/svg">
<g id="Group 1430103223">
<path id="Vector 65" d="M17.1241 43.5903C23.3038 46.3952 27.6174 41.8178 34.4035 41.7437C37.6892 41.7078 39.6998 43.0939 42.8123 42.0405C48.3903 40.1526 50.3275 35.1163 50.7925 29.2458C51.5945 19.1187 41.4672 13.4705 31.4356 11.8675C21.9451 10.3511 12.3724 12.1694 8.58335 21.0019C4.86529 29.6689 8.53644 39.6925 17.1241 43.5903Z" fill="var(--fill-0, #FCB01C)"/>
<path id="Vector" d="M38.5347 26.2504C38.7189 25.6443 38.8818 25.0337 39.0885 24.4382C39.837 22.2802 41.4362 22.8083 42.3329 23.9865C42.5907 24.3264 42.8078 24.7339 42.9168 25.143C43.2929 26.557 43.0751 27.9411 42.5205 29.2688C42.2504 29.9173 41.7656 30.3783 41.0255 30.4811C40.1042 30.6086 39.285 30.1623 38.9297 29.2677C38.7219 28.7439 38.6232 28.177 38.472 27.6155C37.5097 27.4301 33.421 27.7278 30.7513 28.1715C29.9283 29.4301 29.162 30.6085 28.3884 31.7811C27.6567 32.89 26.6697 33.4733 25.2923 33.5443C22.9855 33.6643 20.73 33.4408 18.4932 32.907C17.4332 32.6544 16.8116 32.0256 16.6052 30.9385C16.2944 29.2999 16.3414 27.6667 16.5782 26.0299C16.7166 25.0767 17.1986 24.418 18.1939 24.217C20.1676 23.8196 22.1364 23.3899 24.1169 23.0286C25.5493 22.7675 26.7721 23.2746 27.7809 24.2855C28.3733 24.8797 28.9511 25.4944 29.4743 26.1488C29.8766 26.6507 30.3499 26.8369 30.965 26.7856C31.8029 26.7146 32.641 26.6548 33.4792 26.5959C35.1515 26.4784 36.8249 26.3658 38.5346 26.2483L38.5347 26.2504ZM17.8065 31.8065C18.8352 31.3998 19.1288 30.5549 19.2218 29.6463C19.3557 28.347 18.9463 27.1378 18.3888 25.9876C18.2653 25.7323 17.9661 25.5619 17.7219 25.3267C16.893 26.7963 16.9543 30.5061 17.8065 31.8065Z" fill="var(--fill-0, #2B1A12)"/>
</g>
</svg>
