<svg preserveAspectRatio="none" width="100%" height="100%" overflow="visible" style="display: block;" viewBox="0 0 117.211 117.211" fill="none" xmlns="http://www.w3.org/2000/svg">
<g id="Group 1430103220">
<path id="Vector 64" d="M35.0668 89.265C47.7216 95.0089 56.5551 85.6353 70.4516 85.4834C77.1801 85.4099 81.2976 88.2484 87.6713 86.0912C99.0941 82.2252 103.061 71.9118 104.013 59.8902C105.656 39.1518 84.9168 27.5853 64.3741 24.3028C44.9394 21.1974 25.3362 24.921 17.577 43.0082C9.96307 60.7565 17.4809 81.2831 35.0668 89.265Z" fill="var(--fill-0, #00F600)"/>
<g id="Group">
<path id="Vector" d="M74.6561 41.0502C76.5775 48.9787 78.4749 56.8033 80.4235 64.8437C75.6583 65.0036 71.0227 64.9956 66.1937 64.9189C64.146 56.8849 62.5331 48.7933 60.6181 40.5275C65.3545 40.7033 69.8974 40.8728 74.6561 41.0502ZM67.968 45.6299C67.5028 44.7571 66.8411 44.1561 65.8052 44.5109C65.1722 44.7283 64.9756 45.3006 64.9437 45.916C64.9149 46.4387 65.0444 46.8623 65.7269 46.792C65.8548 46.2884 65.9779 45.8057 66.1042 45.3134C66.8906 45.3326 67.0121 45.9432 67.3302 46.3236C67.7378 46.8127 68.1918 47.1085 68.8216 46.7536C69.0166 46.2773 69.202 45.8233 69.3939 45.3533C70.2842 45.689 70.1851 47.1229 71.3664 46.8064C71.6317 46.3124 71.8843 45.8441 72.1864 45.2814C72.5956 45.876 72.8722 46.2757 73.2174 46.776C73.4988 45.6475 73.299 44.9697 72.6804 44.6212C71.7436 44.0937 71.3904 44.9809 70.8613 45.4061C69.5649 44.2024 69.2756 44.2168 67.968 45.6299ZM69.1365 51.6322L68.9958 51.9167C69.4898 52.3275 69.9821 52.7384 70.46 53.1364C69.8382 54.3448 68.6378 55.077 68.3692 56.4341C69.7743 55.9146 70.3434 54.4839 71.4591 53.6175C72.0074 53.8301 72.5365 54.0347 73.0384 54.2282C73.616 53.6026 73.948 52.9861 74.0343 52.3787C73.4237 52.5945 72.9633 53.9101 72.1369 52.6281C72.7219 51.677 73.3102 50.7195 73.9 49.762C73.7849 49.6788 73.6714 49.5941 73.5563 49.511C72.7459 50.4253 71.9355 51.3397 71.125 52.254C70.4505 52.043 69.7919 51.8384 69.1349 51.6338L69.1365 51.6322ZM76.1395 59.1052C73.6714 59.0061 71.2018 59.0029 68.7353 59.1563C69.6912 59.7829 74.8719 59.7494 76.1395 59.1052ZM75.5481 60.7228C74.5602 59.9364 70.9796 59.9636 69.8143 60.7228H75.5481ZM74.9918 61.7155C73.3517 61.1976 71.5886 61.2631 70.5064 61.8018C72.1305 62.1487 73.5627 62.0448 74.9918 61.7155Z" fill="var(--fill-0, #2B1A12)"/>
<path id="Vector_2" d="M80.2622 72.6013C80.5994 72.7292 80.9287 72.7532 81.0582 72.9258C81.3156 73.2695 81.6161 73.7027 81.6001 74.0863C81.5905 74.3069 81.0071 74.5227 80.6618 74.7002C80.5339 74.7657 80.3485 74.7145 80.1886 74.7209C68.0625 75.2037 55.9363 75.0422 43.8086 74.705C42.4946 74.6682 41.7353 74.1199 41.1886 73.0297C40.538 71.7301 40.4133 70.3634 40.7634 68.9903C41.1838 67.3439 41.8728 66.3193 43.9652 66.3304C47.6881 66.3512 51.411 66.1898 55.1339 66.169C62.7938 66.1258 70.4554 66.1242 78.1154 66.1115C78.9658 66.1115 79.8242 66.0971 80.6618 66.2074C80.9511 66.2457 81.2948 66.599 81.4195 66.8899C81.4914 67.0594 81.2356 67.5341 81.0214 67.6268C80.406 67.8922 80.3053 68.4325 80.2813 68.9344C80.2206 70.1428 80.2622 71.3577 80.2622 72.5997V72.6013ZM42.9757 68.9136H63.852C63.9847 67.9289 63.3245 68.0856 62.8434 68.0824C60.5591 68.0648 58.2749 68.0584 55.9907 68.0664C52.2726 68.0792 48.5529 68.0968 44.8348 68.1367C44.2417 68.1431 43.5528 67.9849 42.9757 68.9136ZM43.4121 72.4143C44.7037 73.0521 46.0656 72.8491 47.3956 72.9162C48.7751 72.985 50.1546 73.0121 51.5357 73.0521C52.9152 73.0921 54.2963 73.1224 55.6774 73.164C57.0569 73.2056 58.4363 73.2807 59.8174 73.2951C61.1522 73.3111 62.5045 73.6691 63.8808 73.2263C63.8121 72.969 63.7801 72.702 63.7354 72.7004C56.9673 72.328 50.1929 72.2481 43.4137 72.4159L43.4121 72.4143ZM42.9294 70.9901C42.9294 71.1579 42.931 71.3273 42.9326 71.4952C49.5807 71.6087 56.2288 71.7254 62.877 71.8229C63.1407 71.8261 63.4061 71.647 63.8329 71.4952C63.5435 71.2394 63.4029 71.0044 63.2606 71.0044C56.483 70.9869 49.7054 70.9885 42.9294 70.9885V70.9901ZM63.6618 70.2675C63.6618 70.0709 63.6618 69.8727 63.6602 69.6761C63.1567 69.6761 62.6516 69.6761 62.148 69.6761C59.9214 69.6809 57.6931 69.7017 55.4664 69.6905C51.7019 69.6729 47.9359 69.6265 44.1714 69.6185C43.7222 69.6185 43.1388 69.3708 42.6736 70.25C49.8061 70.397 56.734 70.357 63.6618 70.2659V70.2675ZM79.7235 68.108C79.3734 68.0712 79.0233 68.0025 78.6733 68.0041C74.4325 68.0169 70.1917 68.0392 65.9509 68.06C65.6855 68.06 65.3818 67.9993 65.1676 68.108C64.9294 68.2295 64.7744 68.5124 64.4818 68.8385C66.5327 69.1038 78.8491 68.6722 79.7219 68.108H79.7235ZM79.4533 71.1083C79.4421 70.9917 79.4325 70.8734 79.4214 70.7567C74.6834 70.8638 69.9455 70.9677 65.2092 71.0892C64.995 71.094 64.784 71.265 64.2597 71.4952C64.8511 71.663 65.1196 71.7957 65.393 71.8069C69.0951 71.9571 78.5102 71.4808 79.4533 71.1083ZM79.5173 72.7692C79.53 72.6205 79.5428 72.4719 79.5556 72.3216C79.335 72.2529 79.1144 72.117 78.897 72.1234C74.327 72.2465 69.7569 72.3823 65.1868 72.5374C64.9982 72.5438 64.8159 72.7532 64.6321 72.8683C64.6577 72.9722 64.6833 73.0761 64.7088 73.1784C69.6498 73.204 74.5859 73.0329 79.5189 72.7676L79.5173 72.7692ZM64.6992 70.1796C68.096 70.1796 71.4912 70.2068 74.888 70.1668C76.3698 70.1492 77.85 69.9958 79.3302 69.8983C79.3638 69.8967 79.4054 69.8375 79.4182 69.796C79.4341 69.748 79.4214 69.6905 79.4246 69.6377C78.3967 69.3532 65.556 69.6873 64.6992 70.1796Z" fill="var(--fill-0, #2B1A12)"/>
<path id="Vector_3" d="M42.5363 39.7382H48.1423C48.2845 48.2597 48.4268 56.7445 48.5722 65.3748C46.9098 65.6801 45.2841 65.6865 43.6617 65.4339C43.3883 65.3908 43.1134 65.0135 42.9503 64.7258C42.8337 64.518 42.8912 64.2063 42.888 63.9409C42.7697 56.3896 42.653 48.84 42.5379 41.2887C42.5315 40.8667 42.5379 40.4463 42.5379 39.7366L42.5363 39.7382ZM43.3228 45.3425C44.9964 46.2121 46.8842 46.1002 47.5188 45.0532C46.1393 45.1043 44.8877 44.8421 43.3228 45.3425ZM44.5297 62.7644C45.5751 63.8083 46.0003 63.8019 46.9546 62.798C46.0338 61.8869 45.7909 61.8757 44.5297 62.7644ZM47.4341 43.6928C46.2321 42.7977 44.5089 42.8584 43.4763 43.6928H47.4341Z" fill="var(--fill-0, #2B1A12)"/>
<path id="Vector_4" d="M48.9502 35.2831C50.7821 35.005 52.3375 34.599 54.067 35.2064C54.1773 43.5074 54.2876 51.8371 54.3979 60.2084C52.8474 60.2995 51.4327 60.3811 50.018 60.4786C49.9701 60.4818 49.9317 60.6512 49.8582 60.811C50.504 61.4584 51.3352 61.1148 52.0721 61.1707C52.8058 61.2267 53.5475 61.1835 54.2509 61.1835C54.545 61.7957 54.3787 62.0691 53.7857 62.0771C52.988 62.0866 52.1888 62.0675 51.3927 62.1058C50.894 62.1298 50.3985 62.2385 49.684 62.3392C50.4816 63.3159 51.3192 62.9131 52.0305 62.9802C52.7659 63.0505 53.5139 62.9962 54.4315 62.9962C54.497 63.805 54.5594 64.5579 54.6345 65.4818H49.5769C49.0078 55.4577 49.1932 45.4368 48.9486 35.2831H48.9502ZM52.9481 40.7947C52.7403 40.0259 52.622 39.2282 52.3071 38.5185C51.9922 37.8071 51.3672 37.8183 50.9659 38.437C50.3186 39.436 50.3473 42.0975 51.0155 43.0614C51.4487 43.6848 52.0369 43.6928 52.3566 42.9751C52.6508 42.3149 52.7483 41.5668 52.9481 40.7963V40.7947Z" fill="var(--fill-0, #2B1A12)"/>
<path id="Vector_5" d="M55.1383 35.1834C55.5875 35.1834 55.9551 35.1626 56.3196 35.1866C59.8171 35.42 63.313 35.6614 66.8105 35.8995C67.4083 37.2614 67.5058 38.1486 67.2069 39.8174C66.3933 39.8174 65.5557 39.8446 64.7197 39.811C63.6567 39.7663 62.5905 39.7135 61.5355 39.5904C59.4031 39.3411 57.6112 40.2122 55.6642 41.2193C57.2979 49.3125 59.2288 57.3001 61.0687 65.4716C59.2081 65.8153 57.4881 65.6027 55.8017 65.5164C55.3429 64.2072 54.7658 37.8273 55.1383 35.1818V35.1834Z" fill="var(--fill-0, #2B1A12)"/>
<path id="Vector_6" d="M65.2853 64.861C64.1599 65.1887 63.212 65.4636 62.1235 65.7801C61.3018 63.6781 61.0892 61.5633 60.5729 59.5332C60.0374 57.4248 59.593 55.2924 59.1071 53.1712C58.6356 51.106 58.164 49.0407 57.6589 46.83C58.7379 46.3872 59.7337 45.9764 60.8782 45.5081C62.3616 52.0187 63.7955 58.3136 65.2869 64.8626L65.2853 64.861Z" fill="var(--fill-0, #2B1A12)"/>
<path id="Vector_7" d="M57.0894 44.1052C56.88 43.1973 56.7105 42.4588 56.5091 41.5892C57.5817 41.2008 58.5456 40.8507 59.6773 40.4415C59.8963 41.2743 60.0769 41.9584 60.2927 42.7801C59.2697 43.2037 58.3186 43.5969 57.0894 44.1068V44.1052Z" fill="var(--fill-0, #2B1A12)"/>
<path id="Vector_8" d="M57.6881 45.8642C57.2485 45.4486 57.0647 45.0394 57.5698 44.774C58.3067 44.3872 59.0964 44.0834 59.8908 43.8245C60.4583 43.6391 60.6181 44.0275 60.5894 44.6733C59.6463 45.0617 58.6504 45.4709 57.6897 45.8658L57.6881 45.8642Z" fill="var(--fill-0, #2B1A12)"/>
</g>
</g>
</svg>
