<svg preserveAspectRatio="none" width="100%" height="100%" overflow="visible" style="display: block;" viewBox="0 0 70.5223 70.8975" fill="none" xmlns="http://www.w3.org/2000/svg">
<g id="Group 1430103218">
<path id="Vector 65" d="M14.9868 23.5647C12.4776 31.6329 18.7997 36.2538 19.941 44.6257C20.4935 48.6793 19.0922 51.3777 20.875 55.0598C24.0701 61.6588 30.5915 63.273 37.9157 62.9393C50.5507 62.3637 55.962 48.9788 56.3905 36.338C56.7959 24.379 53.0688 12.8342 41.5712 9.51953C30.289 6.2669 18.4738 12.3527 14.9868 23.5647Z" fill="var(--fill-0, #FE733A)"/>
<g id="Group 1430103214">
<path id="Vector" d="M54.0914 29.4061C53.6003 28.0504 52.8079 26.8862 51.7831 25.8766C50.8911 24.9974 49.9229 24.2151 48.883 23.5157C46.6106 21.9875 44.1422 20.951 41.438 20.4879C40.817 20.3815 40.201 20.2448 39.5442 20.1143C39.4988 19.7711 39.4585 19.4222 39.4064 19.075C39.1567 17.4102 38.4074 16.6061 36.8641 16.4134C35.9844 16.3037 35.1108 16.3485 34.3341 16.8648C33.4779 17.4337 33.1458 18.3168 32.9274 19.2604C32.8608 19.5482 32.8334 19.845 32.7846 20.1608C32.5668 20.1972 32.368 20.2291 32.1698 20.2639C31.6014 20.3647 31.033 20.4615 30.4658 20.5691C28.8077 20.8832 27.2425 21.4549 25.7272 22.2003C23.3512 23.369 21.272 24.9212 19.5915 26.9624C18.3959 28.4155 17.8007 30.1022 17.8331 32.028C17.8595 33.597 19.0886 35.277 20.6622 35.7362C21.7407 36.0509 22.7951 36.0374 23.8602 35.7966C24.9029 35.5614 25.8761 35.1347 26.7951 34.5876C27.1148 34.3972 27.4419 34.2404 27.8697 34.2516C27.9548 35.1224 28.0377 35.9708 28.1211 36.8248C28.8844 37.1501 29.6179 37.4626 30.314 37.7594C30.314 38.3143 30.3426 38.8362 30.309 39.3542C30.1729 41.4564 30.0139 43.5569 29.8705 45.6585C29.7725 47.0903 29.6812 48.5233 29.5978 49.9563C29.5804 50.2531 29.4673 50.4536 29.1823 50.5477C28.8116 50.6709 28.4431 50.8019 28.069 50.9145C27.2979 51.1463 27.1759 51.3076 27.2005 52.1083C27.2156 52.5978 27.2369 52.6375 27.751 52.6633C28.2897 52.6902 28.8306 52.6969 29.3699 52.6834C30.8404 52.647 32.3115 52.6062 33.7808 52.5446C34.3145 52.5222 34.3123 52.493 34.3677 51.9476C34.4299 51.335 34.4954 50.7229 34.5598 50.1109C34.7216 48.5715 34.8605 47.0287 35.0514 45.4927C35.2911 43.5692 35.5706 41.6501 35.8433 39.7305C35.8774 39.4892 35.9161 39.2254 36.2089 39.0182C36.3036 39.2517 36.4128 39.4292 36.4469 39.6202C36.6239 40.6108 36.8126 41.6014 36.9391 42.5993C37.12 44.0233 37.2488 45.4541 37.4039 46.882C37.4963 47.7349 37.5966 48.5872 37.6929 49.4395C37.7954 50.3455 37.9001 51.2516 37.9981 52.1576C38.0249 52.4034 38.1571 52.5238 38.3934 52.5451C38.5049 52.5552 38.6163 52.5647 38.7277 52.5681C40.3657 52.6146 42.0036 52.665 43.6416 52.7014C44.0128 52.7098 44.3863 52.6812 44.7559 52.6431C44.8662 52.6319 45.0202 52.5558 45.0645 52.4656C45.3422 51.8967 44.985 51.1446 44.3667 50.9514C43.9938 50.8349 43.6208 50.7173 43.2485 50.5981C42.9091 50.4894 42.7204 50.2733 42.7344 49.897C42.7434 49.6551 42.7411 49.4115 42.721 49.1707C42.5905 47.61 42.4359 46.051 42.3234 44.4892C42.1823 42.536 42.0731 40.5806 41.9532 38.6257C41.9454 38.4991 41.9672 38.3709 41.9767 38.2214C42.5586 37.9464 43.1258 37.6653 43.7037 37.4099C44.0364 37.2632 44.2374 37.0852 44.2581 36.6747C44.299 35.8577 44.4065 35.0446 44.4883 34.2091C44.9542 34.2169 45.3478 34.4348 45.7236 34.6632C46.6257 35.2131 47.5995 35.5878 48.6192 35.8174C49.7045 36.0615 50.7976 36.0889 51.8643 35.6667C53.2777 35.1073 54.1418 34.0949 54.4207 32.5952C54.6239 31.501 54.4638 30.4376 54.0897 29.4061H54.0914ZM26.2273 30.1453C26.127 30.2534 26.0257 30.3704 25.9019 30.4449C25.4573 30.7137 25.0194 31.0032 24.5462 31.2121C24.1996 31.3649 23.8042 31.4719 23.4285 31.4786C22.761 31.4904 22.4351 31.0228 22.6719 30.3923C22.8047 30.0389 23.0314 29.6917 23.298 29.4246C24.0366 28.6854 24.8833 28.0778 25.823 27.6125C26.2177 27.4171 26.6288 27.2547 27.0633 27.0637C27.0947 27.2239 27.121 27.3124 27.1283 27.402C27.1736 27.9748 27.2139 28.5488 27.2487 29.0192C26.8679 29.4397 26.5504 29.7948 26.2267 30.1453H26.2273ZM30.9877 37.5707C30.3062 37.2722 29.6375 36.9396 28.9415 36.6797C28.5831 36.5459 28.4509 36.3589 28.4409 35.9909C28.4246 35.3789 28.3641 34.7679 28.3193 34.1111C28.7214 33.9985 29.114 33.8977 29.4998 33.7779C29.7479 33.7006 29.9943 33.6099 30.2278 33.4968C30.4254 33.401 30.5526 33.2308 30.4708 32.9945C30.3851 32.7464 30.1897 32.7386 29.9663 32.7895C29.6101 32.8707 29.2506 32.9379 28.8928 33.0107C28.8816 32.967 28.8704 32.9228 28.8592 32.8791C29.1487 32.8063 29.4393 32.7363 29.7283 32.6607C29.9444 32.6042 30.1634 32.5527 30.3722 32.4748C30.5778 32.3981 30.7295 32.2536 30.6864 32.0084C30.6399 31.7407 30.4226 31.706 30.2126 31.7351C29.8078 31.7916 29.4068 31.8756 29.0048 31.949C28.9392 31.9608 28.8754 31.9792 28.8105 31.9944C28.8015 31.9591 28.7925 31.9244 28.7836 31.8891C29.1526 31.7905 29.5272 31.7093 29.8879 31.5867C30.1102 31.5111 30.3448 31.4075 30.5128 31.2513C30.7553 31.0256 30.6438 30.7266 30.3129 30.6958C30.0766 30.6739 29.8319 30.7182 29.5939 30.7551C29.2848 30.8033 28.979 30.8733 28.6721 30.9338L28.6408 30.8234C28.8922 30.7467 29.1448 30.6722 29.3951 30.5922C29.6073 30.5244 29.8341 30.4785 30.0228 30.3682C30.1242 30.3088 30.2328 30.1123 30.2048 30.0165C30.1673 29.8871 30.0139 29.7264 29.8879 29.7029C29.6969 29.6676 29.4847 29.7309 29.2842 29.7673C28.811 29.8536 28.3395 29.9487 27.8394 30.0456C27.6463 27.9323 27.457 25.8665 27.2627 23.7402C28.6285 24.3808 29.9332 24.9929 31.2268 25.5999C31.374 27.9787 31.504 30.3424 31.6748 32.7027C31.7431 33.6469 31.7705 34.5932 31.9413 35.5357C32.0824 36.3141 32.0303 37.1277 32.0679 38.027C31.6552 37.8529 31.3197 37.7157 30.9882 37.5701L30.9877 37.5707ZM35.7817 32.2777L35.7766 32.6843V36.3359C34.6807 36.8645 33.5339 37.4178 32.3451 37.9912C32.0527 33.7981 31.766 29.6788 31.4776 25.5361C32.9336 24.9134 34.3492 24.3081 35.7817 23.6949V32.2777ZM40.0795 35.6146C40.0364 36.5604 39.9933 37.5175 39.9479 38.5131C39.8561 38.4885 39.7659 38.4834 39.6959 38.4431C38.5866 37.7946 37.4812 37.1395 36.3708 36.4933C36.1714 36.3773 36.0846 36.2306 36.088 35.9971C36.1121 34.3575 36.1378 32.7179 36.1417 31.0777C36.144 30.1464 36.0941 29.2152 36.0869 28.2834C36.0757 26.8112 36.0801 25.3395 36.0807 23.8673C36.0807 23.8354 36.1115 23.8041 36.1636 23.7038C36.3433 23.7688 36.5068 23.8074 36.6502 23.8836C37.652 24.4184 38.6482 24.9644 39.6511 25.4969C39.8275 25.5904 40.0297 25.6358 40.219 25.7069C40.4642 25.7993 40.6059 25.9286 40.5801 26.2417C40.4777 27.4854 40.3959 28.7313 40.327 29.9773C40.2604 31.1869 40.2178 32.3975 40.168 33.6082C40.1523 33.9806 40.079 35.6146 40.079 35.6146H40.0795ZM44.3275 30.0484C43.9742 29.9717 43.6175 29.8916 43.2602 29.8172C43.0418 29.7718 42.8223 29.727 42.6017 29.6945C42.3726 29.6604 42.1862 29.7343 42.1263 29.9762C42.0658 30.2203 42.2024 30.3704 42.4191 30.4443C42.7014 30.5401 42.9892 30.6179 43.2742 30.7064C43.3952 30.7439 43.5139 30.7898 43.613 30.9276C43.3364 30.8755 43.0609 30.8145 42.7826 30.773C42.5261 30.7344 42.2646 30.6812 42.0092 30.698C41.6833 30.7193 41.5685 31.0284 41.8054 31.2529C41.9599 31.3991 42.1767 31.496 42.3816 31.5677C42.7456 31.6948 43.1225 31.7855 43.4724 31.9843C43.0715 31.9092 42.6711 31.8275 42.269 31.7614C41.8395 31.6908 41.6598 31.7614 41.6183 31.9899C41.5747 32.2279 41.7012 32.3925 42.0865 32.5185C42.5216 32.6613 42.9668 32.7744 43.3851 32.9973C43.0894 32.9396 42.7949 32.8735 42.4981 32.8265C42.2662 32.7895 42.0014 32.6899 41.8692 33.0018C41.7679 33.2414 41.9079 33.4638 42.2993 33.6043C42.7193 33.7549 43.1555 33.8591 43.5844 33.9834C43.7082 34.0193 43.8325 34.0551 44.0056 34.1049C43.9574 35.0502 43.9092 35.9943 43.8605 36.9508C42.6683 37.4962 41.4728 38.0427 40.2565 38.5988C40.2565 38.0556 40.2481 37.527 40.2598 36.9989C40.2666 36.701 40.3097 36.4042 40.3326 36.1069L40.8467 28.6938V26.0244C42.1582 25.2466 43.4954 24.4531 44.8422 23.6546C44.9502 24.088 44.5331 29.2594 44.3281 30.0495L44.3275 30.0484ZM49.0163 31.4669C48.7643 31.4853 48.477 31.4764 48.2558 31.3728C47.6174 31.0754 47.0037 30.7249 46.3821 30.3911C46.3188 30.357 46.2578 30.3015 46.2192 30.2416C45.9128 29.7645 45.5449 29.3535 44.9906 29.1351C45.0398 28.4446 45.0863 27.7979 45.1378 27.0744C45.3254 27.1208 45.4833 27.1388 45.6239 27.1976C46.8883 27.729 48.0206 28.4659 49.014 29.414C49.3427 29.7276 49.6059 30.0859 49.6978 30.5418C49.8053 31.0743 49.5583 31.4271 49.0163 31.4663V31.4669Z" fill="var(--fill-0, #2B1A12)"/>
<path id="Vector_2" d="M38.4964 28.363C38.4107 28.6805 38.3357 28.9561 38.2293 29.3497C38.1268 28.9499 38.0551 28.6693 37.9622 28.3048C37.6749 28.4711 37.4336 28.6111 37.0712 28.8205C37.2667 28.4706 37.3966 28.2382 37.5646 27.9375C37.2633 27.8344 36.9962 27.7426 36.6429 27.6216C36.9744 27.5231 37.2325 27.4458 37.5607 27.3484C37.3983 27.0471 37.2622 26.794 37.0718 26.4406C37.3848 26.617 37.6234 26.7509 37.9297 26.9233C38.0277 26.6142 38.1139 26.3432 38.2349 25.9624C38.3469 26.3348 38.4309 26.6137 38.5356 26.9625C38.8296 26.7671 39.0676 26.6081 39.3061 26.4496C39.328 26.4653 39.3498 26.4815 39.3716 26.4972C39.2249 26.7531 39.0777 27.009 38.8929 27.331C39.23 27.4223 39.5049 27.4967 39.8824 27.5987C39.506 27.7095 39.235 27.7891 38.8929 27.8899C39.0648 28.1978 39.2053 28.4493 39.3946 28.7886C39.0597 28.6302 38.7943 28.5042 38.4942 28.3625L38.4964 28.363Z" fill="var(--fill-0, #2B1A12)"/>
<path id="Vector_3" d="M40.2187 25.7072C40.0294 25.6361 39.8279 25.5907 39.6509 25.4972C38.648 24.9647 37.6518 24.4181 36.65 23.8839C36.5066 23.8077 36.3431 23.7691 36.1633 23.7041C36.1113 23.8044 36.0805 23.8357 36.0805 23.8677C36.0805 25.3398 36.0754 26.812 36.0866 28.2837C36.0939 29.2149 36.1437 30.1462 36.1415 31.078C36.1381 32.7176 36.1124 34.3578 36.0877 35.9974C36.0844 36.2309 36.1706 36.3771 36.3705 36.4936C37.481 37.1398 38.5864 37.7955 39.6957 38.4434C39.7651 38.4843 39.8553 38.4888 39.9477 38.5134C39.993 37.5178 40.0362 36.5608 40.0793 35.6149C40.0793 35.6149 40.1526 33.9815 40.1683 33.6085C40.2182 32.3984 40.2607 31.1872 40.3274 29.9776C40.3962 28.7317 40.478 27.4857 40.5805 26.242C40.6062 25.9289 40.464 25.7996 40.2193 25.7072H40.2187ZM38.8921 27.89C39.064 28.198 39.2046 28.4494 39.3939 28.7888C39.059 28.6303 38.7936 28.5043 38.4934 28.3626C38.4077 28.6801 38.3327 28.9556 38.2263 29.3493C38.1238 28.9495 38.0522 28.6689 37.9592 28.3044C37.6719 28.4707 37.4306 28.6107 37.0683 28.8201C37.2637 28.4701 37.3936 28.2378 37.5616 27.937C37.2603 27.834 36.9932 27.7422 36.6399 27.6212C36.9714 27.5227 37.2295 27.4454 37.5577 27.3479C37.3953 27.0467 37.2592 26.7936 37.0688 26.4402C37.3819 26.6166 37.6204 26.7504 37.9267 26.9229C38.0247 26.6138 38.1109 26.3428 38.2319 25.962C38.3439 26.3344 38.4279 26.6132 38.5326 26.9621C38.8266 26.7667 39.0646 26.6076 39.3032 26.4492C39.325 26.4648 39.3468 26.4811 39.3687 26.4968C39.222 26.7527 39.0747 27.0086 38.8899 27.3306C39.227 27.4219 39.5019 27.4963 39.8794 27.5983C39.5031 27.7091 39.232 27.7886 38.8899 27.8894L38.8921 27.89Z" fill="var(--fill-0, #FE733A)"/>
<path id="Vector_4" d="M31.4764 25.5364C31.7648 29.6792 32.0521 33.7989 32.3438 37.9915C33.5327 37.4181 34.6795 36.8648 35.7754 36.3362C35.7754 35.0858 35.7804 26.5735 35.7804 23.6946C34.3475 24.3078 32.9324 24.9131 31.4764 25.5358V25.5364Z" fill="var(--fill-0, #FE733A)"/>
<path id="Vector_5" d="M42.6003 29.6953C42.8209 29.7278 43.0404 29.7726 43.2588 29.818C43.6166 29.8925 43.9733 29.9725 44.3261 30.0493C44.5311 29.2586 44.9477 24.0877 44.8402 23.6543C43.4934 24.4534 42.1556 25.2463 40.8447 26.0241V28.6935L40.3306 36.1066C40.3077 36.4039 40.2646 36.7013 40.2578 36.9986C40.2455 37.5267 40.2545 38.0553 40.2545 38.5985C41.4708 38.0424 42.6663 37.4953 43.8585 36.9505C43.9073 35.994 43.9554 35.0499 44.0036 34.1046C43.8305 34.0548 43.7062 34.0195 43.5825 33.9831C43.1535 33.8588 42.7167 33.7547 42.2973 33.604C41.9059 33.4635 41.7659 33.2406 41.8672 33.0015C41.9994 32.6896 42.2643 32.7892 42.4961 32.8262C42.7934 32.8738 43.0874 32.9393 43.3831 32.997C42.9648 32.7741 42.5196 32.661 42.0845 32.5182C41.6992 32.3922 41.5732 32.2276 41.6164 31.9896C41.6584 31.7606 41.8381 31.6906 42.2671 31.7611C42.6697 31.8272 43.0695 31.909 43.4705 31.984C43.1205 31.7858 42.7436 31.6945 42.3796 31.5674C42.1741 31.4957 41.958 31.3988 41.8034 31.2527C41.5665 31.0287 41.6813 30.7196 42.0072 30.6977C42.2626 30.6809 42.5241 30.7341 42.7806 30.7727C43.0589 30.8142 43.3344 30.8752 43.611 30.9273C43.5119 30.7895 43.3937 30.7436 43.2722 30.7061C42.9878 30.6176 42.6994 30.5398 42.4171 30.444C42.2004 30.3707 42.0638 30.22 42.1243 29.9759C42.1842 29.734 42.3712 29.6606 42.5997 29.6942L42.6003 29.6953Z" fill="var(--fill-0, #FE733A)"/>
<path id="Vector_6" d="M31.9388 35.5361C31.768 34.5936 31.7406 33.6478 31.6723 32.7032C31.5015 30.3428 31.3716 27.9791 31.2243 25.6003C29.9307 24.9933 28.626 24.3813 27.2602 23.7406C27.4545 25.8669 27.6438 27.9327 27.837 30.046C28.337 29.9492 28.8085 29.854 29.2817 29.7677C29.4822 29.7313 29.6944 29.6681 29.8854 29.7033C30.0119 29.7268 30.1648 29.8876 30.2023 30.0169C30.2303 30.1127 30.1217 30.3092 30.0203 30.3686C29.8322 30.4789 29.6048 30.5248 29.3926 30.5926C29.1423 30.6727 28.8897 30.7471 28.6383 30.8239L28.6697 30.9342C28.9765 30.8737 29.2823 30.8037 29.5914 30.7555C29.8288 30.7186 30.0741 30.6743 30.3104 30.6962C30.6414 30.7264 30.7528 31.026 30.5103 31.2517C30.3423 31.4085 30.1077 31.5115 29.8854 31.5871C29.5248 31.7103 29.1496 31.7909 28.7811 31.8895C28.7901 31.9248 28.799 31.9595 28.808 31.9948C28.8729 31.9797 28.9368 31.9612 29.0023 31.9494C29.4049 31.8755 29.8059 31.7915 30.2102 31.7355C30.4202 31.7064 30.6374 31.7411 30.6839 32.0088C30.7265 32.254 30.5753 32.3985 30.3698 32.4752C30.1609 32.5531 29.9419 32.604 29.7258 32.6612C29.4368 32.7367 29.1468 32.8073 28.8567 32.8795C28.8679 32.9232 28.8791 32.9675 28.8903 33.0111C29.2481 32.9383 29.6076 32.8711 29.9638 32.7899C30.1872 32.739 30.3827 32.7468 30.4683 32.9949C30.5495 33.2312 30.423 33.4014 30.2253 33.4972C29.9918 33.6103 29.7454 33.701 29.4973 33.7783C29.1115 33.8987 28.7189 33.9989 28.3169 34.1115C28.3617 34.7684 28.4222 35.3793 28.4384 35.9914C28.4485 36.3587 28.5806 36.5463 28.939 36.6801C29.6351 36.94 30.3037 37.2726 30.9852 37.5711C31.3167 37.7161 31.6521 37.8533 32.0648 38.028C32.0273 37.1287 32.0794 36.315 31.9383 35.5367L31.9388 35.5361Z" fill="var(--fill-0, #FE733A)"/>
<g id="Group">
<path id="Vector_7" d="M28.8813 26.9839C28.8393 26.9839 28.7973 26.9682 28.7648 26.9368C28.6601 26.8361 28.5509 26.7353 28.4406 26.6373C28.3712 26.5757 28.365 26.4693 28.4266 26.3998C28.4882 26.3304 28.5946 26.3242 28.664 26.3858C28.7777 26.4866 28.8897 26.5908 28.9978 26.6944C29.0644 26.7588 29.0667 26.8652 29.0023 26.9318C28.9692 26.966 28.925 26.9833 28.8813 26.9833V26.9839Z" fill="var(--fill-0, #2B1A12)"/>
<path id="Vector_8" d="M41.9281 35.6067C41.661 35.6067 41.3894 35.5776 41.1201 35.5205C41.0294 35.5015 40.9711 35.4119 40.9907 35.3212C41.0098 35.2304 41.0994 35.1728 41.1901 35.1918C41.4634 35.25 41.7383 35.2764 42.0093 35.2696C42.1023 35.2685 42.179 35.3408 42.1813 35.4337C42.1835 35.5267 42.1101 35.6034 42.0172 35.6056C41.9875 35.6062 41.9578 35.6067 41.9281 35.6067ZM40.3367 35.2528C40.3132 35.2528 40.2891 35.2478 40.2661 35.2372C39.9833 35.1067 39.7252 34.9465 39.4978 34.7617C39.4256 34.7029 39.4149 34.5971 39.4737 34.5254C39.5325 34.4532 39.6384 34.4425 39.7101 34.5013C39.9156 34.6682 40.1502 34.8132 40.4072 34.932C40.4912 34.9706 40.5282 35.0708 40.4896 35.1548C40.461 35.2164 40.4005 35.2523 40.3367 35.2523V35.2528ZM32.8329 34.2325C32.5485 34.2303 32.3989 33.9442 32.2903 33.6642C32.2567 33.5779 32.2993 33.4805 32.3861 33.4469C32.4723 33.4133 32.5697 33.4559 32.6033 33.5427C32.731 33.8708 32.8111 33.8966 32.8324 33.8966C32.838 33.8966 32.8581 33.8966 32.8945 33.8551C32.9556 33.7851 33.0614 33.7778 33.1314 33.8389C33.2014 33.8999 33.2087 34.0058 33.1476 34.0758C33.0569 34.1799 32.9511 34.2325 32.8324 34.2325H32.8329ZM39.0308 34.1609C38.9748 34.1609 38.9199 34.1329 38.888 34.0819C38.734 33.8344 38.6254 33.5656 38.547 33.2352C38.5257 33.1451 38.5811 33.0543 38.6713 33.0331C38.7615 33.0118 38.8522 33.0672 38.8734 33.1574C38.9434 33.4514 39.0386 33.6888 39.173 33.9044C39.2223 33.9834 39.1982 34.087 39.1193 34.1357C39.0918 34.153 39.061 34.1609 39.0308 34.1609ZM33.352 33.3399C33.3358 33.3399 33.3195 33.3377 33.3027 33.3327C33.2143 33.3058 33.1639 33.2117 33.1913 33.1232L33.2238 33.0163C33.291 32.7945 33.3671 32.5436 33.459 32.2911C33.4909 32.2037 33.5872 32.1589 33.6746 32.1909C33.7619 32.2228 33.8067 32.3191 33.7748 32.4064C33.6863 32.65 33.6113 32.8964 33.5452 33.1137L33.5127 33.2212C33.4909 33.2935 33.4243 33.3405 33.352 33.3405V33.3399ZM32.1861 32.9479C32.1133 32.9479 32.0461 32.9004 32.0249 32.8264L32.0092 32.7727C31.942 32.5414 31.8664 32.2788 31.7796 32.0016C31.7516 31.9131 31.8014 31.819 31.8899 31.791C31.9784 31.763 32.0725 31.8129 32.1005 31.9013C32.1884 32.1819 32.2645 32.4462 32.3323 32.6797L32.348 32.7335C32.3737 32.8225 32.3222 32.9155 32.2332 32.9418C32.2175 32.9463 32.2018 32.9485 32.1861 32.9485V32.9479ZM38.5571 32.5145C38.4775 32.5145 38.407 32.458 38.3919 32.3768C38.3487 32.1393 38.2855 31.8627 38.1477 31.609C38.1035 31.5273 38.1337 31.4254 38.2149 31.3811C38.2967 31.3369 38.3986 31.3671 38.4428 31.4483C38.6035 31.744 38.6741 32.0531 38.7223 32.3163C38.7391 32.4076 38.6786 32.4949 38.5873 32.5117C38.5772 32.5134 38.5671 32.5145 38.5571 32.5145ZM33.9747 31.7311C33.9462 31.7311 33.917 31.7238 33.8907 31.7081C33.8107 31.6617 33.7832 31.5586 33.8297 31.4786C33.9977 31.189 34.1847 30.9561 34.4003 30.7657C34.4698 30.7041 34.5761 30.7108 34.6372 30.7808C34.6988 30.8503 34.6921 30.9567 34.6221 31.0177C34.4339 31.184 34.2693 31.3895 34.1198 31.6477C34.0884 31.7014 34.0324 31.7311 33.9742 31.7311H33.9747ZM31.6626 31.3016C31.5942 31.3016 31.5298 31.2596 31.5052 31.1918C31.4044 30.9186 31.2969 30.6526 31.1849 30.4012C31.1474 30.3166 31.1855 30.2169 31.2706 30.1794C31.3551 30.1419 31.4548 30.18 31.4923 30.2651C31.6066 30.5232 31.7174 30.7959 31.8205 31.0759C31.8524 31.1627 31.8082 31.2596 31.7208 31.2915C31.7018 31.2988 31.6822 31.3022 31.6626 31.3022V31.3016ZM37.7266 31.0591C37.6919 31.0591 37.6572 31.0485 37.6275 31.0267C37.4181 30.8732 37.1756 30.7517 36.9068 30.6643C36.8183 30.6358 36.7702 30.5411 36.7987 30.4527C36.8273 30.3642 36.9219 30.316 37.0104 30.3446C37.3133 30.4426 37.5883 30.5809 37.8263 30.7551C37.9013 30.8099 37.9176 30.9152 37.8627 30.9897C37.8296 31.0345 37.7787 31.0586 37.7272 31.0586L37.7266 31.0591ZM35.2576 30.6391C35.1865 30.6391 35.1199 30.5932 35.0975 30.5215C35.0695 30.4331 35.1188 30.3384 35.2072 30.311C35.4878 30.2225 35.7958 30.1816 36.1144 30.1906C36.2074 30.1934 36.2802 30.2707 36.2779 30.3631C36.2751 30.456 36.1984 30.5266 36.1055 30.5266C35.8243 30.5187 35.5533 30.5546 35.3086 30.6319C35.2918 30.6369 35.275 30.6397 35.2582 30.6397L35.2576 30.6391ZM30.9598 29.7247C30.8999 29.7247 30.8416 29.6922 30.8114 29.6357C30.7106 29.4469 30.6036 29.2605 30.4939 29.0813C30.4569 29.0208 30.4194 28.9609 30.3813 28.9021C30.3315 28.8242 30.3539 28.7201 30.4323 28.6702C30.5101 28.6199 30.6143 28.6428 30.6641 28.7212C30.7028 28.7817 30.7414 28.8433 30.78 28.906C30.8931 29.0908 31.0035 29.2829 31.1076 29.4777C31.1513 29.5595 31.1205 29.6614 31.0387 29.7051C31.0135 29.7185 30.9867 29.7247 30.9598 29.7247ZM30.0285 28.2721C29.9776 28.2721 29.9277 28.2491 29.8947 28.206C29.7245 27.982 29.5425 27.7614 29.3538 27.5497C29.2922 27.4803 29.2983 27.3745 29.3672 27.3123C29.4366 27.2507 29.5425 27.2569 29.6046 27.3257C29.7989 27.5436 29.9865 27.7715 30.1624 28.0022C30.2184 28.0761 30.2044 28.1814 30.1305 28.2374C30.1002 28.2603 30.0644 28.2715 30.0291 28.2715L30.0285 28.2721Z" fill="var(--fill-0, #2B1A12)"/>
<path id="Vector_9" d="M42.8802 35.4677C42.8079 35.4677 42.7413 35.4207 42.7195 35.3479C42.6926 35.2588 42.743 35.1653 42.832 35.1384C42.9664 35.0981 43.1002 35.0477 43.2296 34.9889C43.3142 34.9508 43.4138 34.9878 43.4519 35.0724C43.4906 35.1569 43.453 35.2566 43.3685 35.2947C43.2251 35.3596 43.0773 35.4156 42.9283 35.4599C42.9121 35.4649 42.8959 35.4672 42.8802 35.4672V35.4677Z" fill="var(--fill-0, #2B1A12)"/>
</g>
</g>
</g>
</svg>
