<svg preserveAspectRatio="none" width="100%" height="100%" overflow="visible" style="display: block;" viewBox="0 0 107.235 107.235" fill="none" xmlns="http://www.w3.org/2000/svg">
<g id="Group 1430103230">
<path id="Vector 65" d="M32.0824 81.6682C43.6602 86.9232 51.742 78.3474 64.4558 78.2085C70.6117 78.1412 74.3788 80.7381 80.2101 78.7645C90.6607 75.2275 94.2901 65.7918 95.1612 54.7933C96.6638 35.8198 77.69 25.2377 58.8955 22.2345C41.1148 19.3934 23.1799 22.8001 16.081 39.348C9.11511 55.5859 15.9931 74.3655 32.0824 81.6682Z" fill="var(--fill-0, #36A7FF)"/>
<path id="Vector" d="M68.4769 71.4886C67.7754 71.5289 67.1687 71.57 66.562 71.5936C66.3934 71.5998 66.2222 71.5534 65.9615 71.5201C65.3284 66.9693 64.6954 62.4219 64.0624 57.8745C63.6568 59.2363 63.6567 60.6357 63.5277 62.0193C63.3951 63.4397 63.2353 64.8584 63.0992 66.2788C62.9649 67.6703 62.8464 69.0627 62.7173 70.455C62.5865 71.8684 62.4504 73.2818 62.3161 74.7022H59.6285C59.8112 71.0922 60.3388 67.616 60.5961 63.9911C56.8164 63.9534 53.0682 64.1127 49.1972 64.16C49.6897 66.6271 50.1638 69.0023 50.6599 71.4869C49.7766 71.5324 49.0365 71.5709 48.2525 71.612C47.7415 69.0959 47.2498 66.6778 46.7555 64.2422H42.5921C42.2251 67.6239 41.8651 70.9469 41.4981 74.3294H39.0178C39.232 70.9574 39.7439 67.6598 40.0055 64.244C39.3611 64.2125 38.7386 64.1819 38.0757 64.1495C37.908 63.3408 37.9941 62.5724 38.0318 61.7244C38.7605 61.6911 39.4498 61.6588 40.2487 61.622C40.3119 61.1363 40.3848 60.6584 40.434 60.178C40.8967 55.6586 41.3559 51.1384 41.8142 46.6182C41.9406 45.3719 42.0767 44.1266 42.1689 42.8786C42.2022 42.4209 42.1636 41.9465 42.0828 41.4932C41.4805 38.1116 40.8589 34.7334 40.2461 31.3535C40.2101 31.1557 40.1969 30.9544 40.1627 30.6665C40.9019 30.3812 41.6482 30.2552 42.485 30.2622C42.7027 31.1654 42.9108 32.0318 43.1197 32.8982L43.2822 32.9017C43.3972 32.002 43.5122 31.1024 43.6369 30.1309C44.399 30.2333 45.082 30.3252 45.8643 30.4302C45.8038 31.2415 45.7458 32.0116 45.6782 32.9096C50.6485 32.9069 55.5652 32.8894 60.5627 32.801C60.4802 31.9416 60.4073 31.1724 60.3213 30.2771C61.0684 30.1467 61.7919 30.0206 62.5926 29.8806C62.7015 30.6079 62.7963 31.2345 62.8894 31.8611C62.9192 32.0624 62.8947 32.2908 62.9842 32.4589C63.0606 32.6024 63.2555 32.7345 63.4171 32.7617C63.4978 32.7757 63.6848 32.556 63.7112 32.4212C63.7762 32.0799 63.7665 31.7255 63.8051 31.378C63.8394 31.0691 63.8982 30.7619 63.95 30.4276C64.2801 30.4276 64.5409 30.4048 64.7955 30.4329C65.3161 30.4897 65.8342 30.5746 66.4356 30.6604C66.4549 30.8914 66.5067 31.1129 66.4856 31.3273C66.0036 36.2842 65.526 41.2411 65.015 46.1955C64.9026 47.2868 65.058 48.3431 65.2117 49.4091C65.785 53.3867 66.3451 57.3661 66.936 61.3419C67.4066 64.51 67.9159 67.6729 68.4067 70.8392C68.433 71.009 68.4453 71.1806 68.4795 71.4895L68.4769 71.4886ZM60.8568 61.5809C60.8999 61.2431 60.9455 60.9324 60.978 60.6208C61.3661 56.883 61.7585 53.1451 62.1361 49.4064C62.2967 47.8171 62.525 46.2418 62.2098 44.6263C61.8701 42.8856 61.6865 41.1142 61.4433 39.3543C61.2616 38.0337 61.0939 36.7113 60.9183 35.3802H59.4117C59.1325 39.16 58.8594 42.8663 58.5837 46.6024C58.906 46.6672 59.15 46.7162 59.4889 46.7836C59.1492 51.2627 58.8138 55.6919 58.4775 60.1263C58.0095 60.1657 57.6408 60.1972 57.2079 60.234C57.1833 60.6926 57.1605 61.1118 57.1351 61.5791H60.8577L60.8568 61.5809ZM50.22 35.3889C49.9426 39.174 49.6037 42.9197 49.371 46.6803H50.5115C50.8065 42.8987 51.1779 39.1591 51.3579 35.3889H50.2191H50.22ZM56.2658 35.3732C55.977 39.1512 55.6925 42.8716 55.4054 46.6287H56.4555C56.7461 42.8698 57.0341 39.1486 57.3265 35.3732H56.2658ZM54.7101 35.3653C54.4344 39.139 54.0955 42.8786 53.8444 46.647C54.1095 46.6637 54.2544 46.6882 54.3957 46.6768C54.5318 46.6663 54.6644 46.6182 54.8242 46.5797C55.1078 42.8226 55.3879 39.1031 55.6697 35.3653H54.7101ZM45.3929 35.3977C45.2524 36.8618 45.1145 38.2227 44.9942 39.5845C44.9389 40.219 44.8222 40.8683 44.9029 41.4888C45.0575 42.6703 45.3314 43.836 45.5667 45.0052C45.5948 45.1444 45.6958 45.2687 45.8354 45.5417C46.0628 42.0489 46.464 38.739 46.6159 35.3968H45.3929V35.3977ZM44.4411 61.5966C44.4157 61.0549 44.5298 60.5324 44.334 60.1823C44.1575 59.8664 44.1224 59.603 44.1514 59.2993C44.2831 57.9393 44.3849 56.574 44.5825 55.2228C44.8011 53.7245 44.312 52.3435 44.1066 50.9152C44.0425 50.917 43.9793 50.9187 43.9152 50.9205C43.5614 54.4596 43.2075 57.9997 42.8484 61.5966H44.4402H44.4411ZM47.191 35.402C46.8898 39.1941 46.5931 42.9486 46.3463 46.7932C46.7265 46.7512 46.9724 46.7249 47.2726 46.6917C47.5562 42.9031 47.8354 39.1723 48.1173 35.4012H47.1901L47.191 35.402ZM57.9103 35.3347C57.6294 39.132 57.3546 42.8523 57.0736 46.6602C57.4599 46.626 57.7031 46.605 57.9981 46.5797C58.2817 42.8156 58.56 39.118 58.8375 35.4309C58.6391 35.3784 58.5583 35.3443 58.4757 35.3382C58.3335 35.3277 58.1895 35.3355 57.9103 35.3355V35.3347ZM48.7854 46.6952C49.0497 42.9048 49.3578 39.1574 49.601 35.3268C49.2165 35.3679 48.9715 35.3933 48.7011 35.4222C48.4149 39.2143 48.1339 42.9398 47.8503 46.6952H48.7854ZM51.9505 46.6024C52.2306 42.8716 52.5098 39.1504 52.7943 35.3583C52.4598 35.374 52.2455 35.3845 51.9778 35.3968C51.6801 39.1723 51.386 42.8961 51.091 46.6427C51.3263 46.6654 51.4396 46.689 51.5502 46.6829C51.6608 46.6768 51.7697 46.6409 51.9505 46.6024ZM53.3694 35.3784C53.0972 39.1705 52.7504 42.8917 52.5432 46.6383C53.2245 46.5998 53.2306 46.6007 53.2921 46.1867C53.3342 45.8988 53.365 45.6091 53.3878 45.3194C53.5853 42.8252 53.7803 40.331 53.9752 37.8368C54.0375 37.0333 54.0981 36.2299 54.1622 35.3793H53.3694V35.3784ZM52.0331 61.6211C52.0682 61.124 52.0998 60.6786 52.1323 60.213H51.1972V61.6211H52.0331ZM50.5853 60.2095H49.7003C49.6739 60.7022 49.6511 61.1477 49.6221 61.6798C50.0058 61.6518 50.2745 61.6325 50.5844 61.6097V60.2095H50.5853ZM45.0513 60.1675V61.6553C45.3946 61.6334 45.6712 61.615 46.0654 61.5896C46.0039 61.0706 45.9513 60.6331 45.8959 60.1675H45.0513ZM52.6924 60.2147C52.6547 60.7022 52.6213 61.1258 52.5836 61.6097H53.4905C53.5186 61.1363 53.545 60.6943 53.5731 60.2147H52.6924ZM55.092 60.2252H54.135V61.6518C54.4467 61.6272 54.6925 61.608 54.9805 61.5852C55.0191 61.11 55.0533 60.6926 55.092 60.2252ZM55.5828 61.5782C55.8664 61.5992 56.1245 61.6185 56.4731 61.6439C56.5047 61.1197 56.531 60.6847 56.5609 60.185C56.2088 60.2025 55.9656 60.2147 55.6794 60.2296C55.6469 60.6812 55.6188 61.0759 55.5836 61.5782H55.5828ZM48.8565 61.4268C49.1893 60.4029 49.184 60.3749 48.6344 60.1999C48.7143 60.6427 48.7854 61.0348 48.8565 61.4268Z" fill="var(--fill-0, #2B1A12)"/>
</g>
</svg>
