<svg preserveAspectRatio="none" width="100%" height="100%" overflow="visible" style="display: block;" viewBox="0 0 174.109 207.782" fill="none" xmlns="http://www.w3.org/2000/svg">
<path id="Subtract" d="M72.9375 0.0249551C73.4626 -0.140669 74.6502 0.549877 75.0098 1.15777C75.5348 2.04209 75.6457 3.20303 75.8115 4.28081C79.4598 27.8839 83.1358 51.4873 86.7012 75.0904C87.0605 77.5502 87.9176 79.4577 89.6035 81.2818C95.2414 87.445 96.6505 94.7415 93.8867 102.48C92.2285 107.123 93.3071 111.241 94.2744 115.415C99.6637 114.143 104.335 112.789 109.116 111.96C123.101 109.583 134.765 114.447 144.493 124.231C147.395 127.161 149.799 130.644 151.982 134.154C155.299 139.488 154.968 140.234 148.832 144.048C146.179 140.234 143.553 136.392 140.845 132.606C136.146 126.028 129.872 121.716 122.105 119.505C112.847 116.852 104.611 119.146 96.9551 124.453C96.3747 124.867 95.8215 125.364 95.4346 125.972C85.8441 141.007 77.4145 156.568 74.2637 174.367C72.9923 181.47 72.2183 188.656 73.5449 195.953C74.3464 200.402 75.9224 204.355 78.4375 207.782H43.6963C43.9727 198.44 44.3318 189.071 44.7188 179.729C45.2992 165.993 46.018 152.256 46.709 138.52C46.9854 133.269 47.2342 128.018 47.8975 122.822C48.8648 115.332 50.9925 113.286 58.4824 113.424C67.1332 113.59 75.7845 114.448 84.4629 115.001C85.5129 115.056 86.5629 115.139 87.751 115.194C88.6354 113.287 88.1661 112.346 86.2314 112.153C82.2792 111.766 78.3266 111.297 74.3467 110.993C70.6433 110.716 67.216 109.722 64.2588 107.483C59.2286 103.669 57.5433 94.8516 60.7217 89.2134C63.762 83.8242 70.6711 81.5025 76.8066 83.7964C82.1132 85.7588 84.4627 91.5906 82.0029 96.7037C80.2341 100.407 73.0208 101.982 70.2568 98.9976C69.2342 97.8921 68.7086 95.7358 68.9297 94.188C69.2063 92.1985 71.0858 92.1437 72.8545 92.6412C73.4625 92.8069 74.0982 92.8343 75.0654 92.9449C74.5679 89.9323 72.6332 90.0149 70.9473 90.0425C68.7086 90.0702 67.2436 91.3418 66.4697 93.4146C64.7839 97.9473 67.8247 102.535 72.9102 103.253C78.1336 103.972 83.1081 101.264 84.877 96.7867C86.784 91.9224 84.5454 85.4273 79.9023 82.4976C73.3521 78.3519 60.3066 79.9828 57.377 91.7291C55.7188 98.3345 57.4602 104.249 62.2139 109.169C61.8546 109.555 61.6882 109.97 61.4395 109.998C53.3142 111.075 52.0153 110.219 49.749 102.176C45.244 86.2843 59.7264 70.7237 76.1436 73.7916C77.9123 74.1232 79.6257 74.6487 82.0576 75.2291C80.9521 67.7667 79.9297 60.6909 78.8242 53.6431C78.4926 51.5703 76.7511 51.4592 75.0928 51.2105C66.0001 49.7734 57.4601 51.4046 49.3623 55.6607C45.6864 57.5954 42.1482 59.8067 38.417 61.6861C29.6005 66.1357 20.3417 67.7942 10.5303 65.6109C8.29157 65.1134 6.96447 64.1454 6.63281 61.8238C4.47704 47.5349 2.29396 33.2733 0 18.2935C2.23848 18.5699 3.97954 18.6254 5.6377 19.0123C13.9568 20.9193 21.8066 19.4267 29.3242 15.7232C31.2588 14.7559 33.2492 13.8436 35.0732 12.7105C45.9626 5.99453 57.2945 1.21346 71.0029 4.97222C71.0029 3.67339 70.7538 2.76121 71.0576 2.12554C71.4169 1.32403 72.1363 0.411395 72.9102 0.16265L72.9375 0.0249551ZM112.985 121.523C116.882 121.578 121.001 122.048 124.621 123.402C131.005 125.806 135.897 130.367 139.877 136.199C134.875 142.279 137.168 149.41 136.754 155.905C128.601 161.985 120.641 167.927 112.736 173.897C112.377 174.173 112.35 174.81 111.714 176.496C114.091 175.363 115.721 174.809 117.048 173.87C123.681 169.171 130.176 164.251 136.864 159.608C139.296 157.922 140.071 156.126 139.49 153.224C139.02 150.764 138.937 148.166 139.214 145.678C139.435 143.688 140.403 141.754 141.397 138.686C143.415 141.312 144.631 143.053 145.958 144.628C148.252 147.337 149.661 147.42 152.204 144.905C154.139 142.998 155.742 140.759 157.814 139.018C161.435 135.978 164.365 137 166.023 141.45L172.573 158.199L172.546 158.171C172.712 158.862 172.822 159.608 173.209 160.161C174.784 162.51 174.093 164.694 172.656 166.711C170.998 169.061 169.477 171.631 167.377 173.566C157.317 182.908 147.367 192.415 136.837 201.231C133.963 203.636 130.978 205.82 127.854 207.754H81.8369C78.6309 203.913 76.4751 198.606 76.0605 191.586C75.6737 185.008 76.7236 178.209 78.1055 171.742C80.9798 158.171 86.701 145.678 94.0527 133.96C98.4472 126.94 104.031 121.385 112.985 121.523ZM42.4248 156.872C41.6233 174.09 40.8494 190.922 40.0479 207.726H30.3467C29.5177 206.234 29.2137 204.189 29.3242 201.425C29.8217 189.348 30.43 177.242 31.5908 165.219C32.2265 158.89 34.769 157.341 42.4248 156.872ZM164.337 180.807C164.005 187.91 163.895 194.35 163.37 200.734C163.177 203.083 162.983 205.405 162.762 207.726H133.548C134.902 206.786 136.256 205.819 137.583 204.796C146.51 197.998 155.161 190.84 162.43 182.189C162.734 181.83 163.204 181.608 164.31 180.779L164.337 180.807ZM112.433 74.0953C123.267 60.6357 142.863 64.0907 150.905 71.5806C152.84 73.3771 154.249 75.8096 155.548 78.1587C159.224 84.7642 162.735 91.4801 166.3 98.1685C166.631 98.8041 167.101 99.3845 167.433 100.02C169.367 103.862 168.676 105.105 164.393 105.52C163.342 105.631 162.292 105.742 160.302 105.935C160.302 109.279 160.385 112.154 160.302 115.001C160.081 120.915 158.754 122.324 152.978 122.849C151.209 123.015 149.412 123.153 147.091 123.375C135.732 110.468 121.111 105.907 103.34 109.832C103.837 96.9246 104.141 84.4596 112.46 74.0953H112.433ZM35.8232 38.7642C34.8503 35.6018 32.2125 33.7393 28.1543 34.9878C24.0962 36.2364 22.9616 39.26 23.9346 42.4224C24.9076 45.5845 27.5456 47.4472 31.6035 46.1988C35.6616 44.9502 36.7962 41.9266 35.8232 38.7642ZM10.2197 35.0982C11.2762 37.5665 12.9842 43.1176 13.502 45.7662L22.8262 42.897C22.3334 41.8749 21.9737 40.7078 21.8066 39.5855C20.9923 40.0292 19.5555 40.575 18.0898 41.0259C17.4384 41.2263 16.7962 41.4093 16.1865 41.5523C15.2908 38.9308 14.382 35.734 14.0469 33.9205L10.2197 35.0982ZM28.9727 37.648C30.5063 37.1761 31.7604 38.1129 32.2949 39.8502C32.8292 41.5872 32.3187 43.0668 30.7852 43.5386C29.2515 44.0105 27.9974 43.0737 27.4629 41.3365C26.9284 39.5992 27.4391 38.1199 28.9727 37.648ZM44.2598 26.5923C42.9213 25.6224 41.2224 25.2682 38.915 25.9781C34.8571 27.2267 33.7224 30.2503 34.6953 33.4127C35.6683 36.5747 38.3064 38.4374 42.3643 37.189C44.8885 36.4124 46.1979 34.9695 46.6094 33.1197C45.6228 33.0518 43.9539 32.599 43.0957 32.2242C43.0738 33.3601 42.6588 34.1864 41.5459 34.5289C40.0123 35.0006 38.7581 34.0639 38.2236 32.3267C37.6892 30.5896 38.2 29.1102 39.7334 28.6382C40.7106 28.3376 41.4039 28.6594 42.0752 29.3443C42.5847 28.4893 43.5029 27.271 44.2598 26.5923ZM49.0986 20.8384C49.213 23.7966 48.4026 29.8721 47.502 32.522L51.9199 31.6597C51.8675 30.9465 51.844 29.9381 51.8633 28.7769L55.1113 28.1431C55.5798 29.2091 55.9376 30.1521 56.1572 30.8326L60.5752 29.9703C58.7441 27.8536 55.7076 22.5287 54.7012 19.7447L49.0986 20.8384ZM61.9424 20.6207C62.2782 23.2844 62.3909 29.091 62.1592 31.7798L71.9131 31.5904C71.7209 30.4721 71.6971 29.2505 71.8457 28.1255C70.9407 28.3278 69.4093 28.457 67.876 28.4869C67.1945 28.5001 66.5269 28.4988 65.9014 28.4683C65.7624 25.7015 65.769 22.3781 65.9463 20.5425L61.9424 20.6207ZM52.4004 22.856C53.1854 24.1351 53.9225 25.5391 54.543 26.8648L51.9229 27.3765C51.9992 25.9148 52.1541 24.3364 52.4004 22.856Z" fill="var(--fill-0, #2B1A12)"/>
</svg>
