<svg preserveAspectRatio="none" width="100%" height="100%" overflow="visible" style="display: block;" viewBox="0 0 159.798 28.6084" fill="none" xmlns="http://www.w3.org/2000/svg">
<g id="Group">
<path id="Vector" d="M1.40149e-05 21.7015C3.095 21.9292 7.10295 22.0928 11.3076 22.1259C11.3076 21.3102 11.2434 20.4966 11.113 19.8114H19.5533C19.4229 20.4966 19.3587 21.3102 19.3587 22.1259C23.6275 22.0928 27.6354 21.9313 30.7636 21.7015V27.9577H1.40149e-05V21.7015ZM1.82388 8.21194H21.5055V6.67997H2.08473C2.34558 5.37573 2.34558 2.05301 2.08473 0.748773H28.6085C28.2503 3.35519 28.2503 8.53695 28.6085 11.1434H8.92889V12.8058C11.2413 12.9031 13.6863 12.9693 16.1623 12.9693C20.6257 12.9693 25.1553 12.8058 28.9355 12.4807C28.6105 14.0769 28.6105 17.1077 28.9355 18.737H1.82388C2.18203 16.1305 2.18203 10.8184 1.82388 8.21194Z" fill="var(--fill-0, #2B1A12)"/>
<path id="Vector_2" d="M33.1109 9.35331C34.9037 9.48373 36.6634 9.58103 38.2265 9.58103C41.0606 9.58103 43.4082 9.25599 44.6462 8.24572H33.9266V6.29144H45.6565L45.7538 5.11761H33.5995C33.8603 3.91274 33.8603 1.7618 33.5995 0.554857H51.097V6.22518C51.097 13.295 45.8842 15.5122 36.6303 15.5122C35.5227 15.5122 34.3489 15.4791 33.1109 15.4149C33.5353 13.7525 33.5353 10.8211 33.1109 9.35331ZM35.2598 20.7892H53.7014V19.6154H35.3571C35.5207 18.5078 35.5207 17.1394 35.3571 16.096H62.239C61.945 18.3443 61.945 20.6257 62.239 22.8739H43.7974V24.0478C49.9563 24.1782 56.374 24.1119 62.3052 23.7869C62.0444 25.4804 62.0444 26.915 62.3052 28.6084H35.2598C35.6842 26.0352 35.7484 23.6875 35.2598 20.7892ZM51.7802 4.98512H54.2893C54.2251 3.095 54.0616 1.33532 53.8339 2.57332e-05H62.2411C61.5889 3.78026 61.5889 10.7528 62.2411 15.2824H53.8339C54.0285 13.8167 54.192 12.1212 54.2583 10.3305H51.7823C51.9769 8.89786 51.9769 6.41978 51.7823 4.98719L51.7802 4.98512Z" fill="var(--fill-0, #2B1A12)"/>
<path id="Vector_3" d="M65.2696 0.946107H71.9171V9.67832H76.9354V0.946107H83.5828C82.997 5.89808 82.997 21.2778 83.5828 26.2318H65.2696C65.8555 21.2798 65.8555 5.90015 65.2696 0.946107ZM76.9354 19.0295V12.6098H71.9171V19.0295H76.9354ZM85.3736 2.57332e-05H93.9112C93.7166 3.06189 93.5862 6.38667 93.5199 9.80875H96.2236C96.029 11.6989 96.029 13.6531 96.2236 15.5433H93.4868C93.5199 19.9756 93.6503 24.3417 93.9112 28.2834H85.3736C85.9284 19.5843 85.9284 8.70118 85.3736 2.57332e-05Z" fill="var(--fill-0, #2B1A12)"/>
<path id="Vector_4" d="M97.2351 13.7194C97.2351 5.21492 100.297 0.262948 107.108 0.262948C113.919 0.262948 116.981 5.21492 116.981 13.7194C116.981 22.2239 113.919 27.1759 107.108 27.1759C100.297 27.1759 97.2351 22.2239 97.2351 13.7194ZM107.11 19.6485C109.553 19.6485 110.596 17.7584 110.596 13.7173C110.596 9.67625 109.553 7.78614 107.11 7.78614C104.667 7.78614 103.624 9.67625 103.624 13.7173C103.624 17.7584 104.667 19.6485 107.11 19.6485ZM118.221 2.57332e-05H126.759C126.204 8.69911 126.204 19.5823 126.759 28.2834H118.221C118.776 19.5843 118.776 8.70118 118.221 2.57332e-05Z" fill="var(--fill-0, #2B1A12)"/>
<path id="Vector_5" d="M129.039 21.3107C133.111 21.6047 138.781 21.7662 144.418 21.7662C150.055 21.7662 155.726 21.6026 159.798 21.3107V27.9582H129.039V21.3107ZM131.187 0.782375H138.29V6.3223H150.542V0.782375H157.645C157.059 5.8979 157.059 14.1415 157.645 19.0956H131.187C131.773 14.1436 131.773 5.8979 131.187 0.782375ZM150.544 12.5122V9.25372H138.292V12.5122H150.544Z" fill="var(--fill-0, #2B1A12)"/>
</g>
</svg>
