<svg preserveAspectRatio="none" width="100%" height="100%" overflow="visible" style="display: block;" viewBox="0 0 253 45.722" fill="none" xmlns="http://www.w3.org/2000/svg">
<g id="Group">
<path id="Vector" d="M0 0.000219533H15.9951C15.1428 7.317 14.8622 20.5925 15.2017 31.6543C17.6996 31.8241 20.3637 31.883 23.0867 31.883C29.2117 31.883 35.3402 31.4846 38.9709 30.7501C38.2884 35.233 38.2884 40.1109 38.9709 44.5903H0C1.13285 33.8646 1.13285 10.6636 0 0.000219533Z" fill="var(--fill-0, #2B1A12)"/>
<g id="Group_2">
<path id="Vector_2" d="M152.545 29.2142C152.545 20.0232 159.522 12.7064 172.853 12.7064C180.568 12.7064 186.128 15.1453 189.475 19.0047C186.354 20.5913 182.553 23.0892 180.229 25.1297C179.096 22.9748 175.86 21.6688 172.853 21.6688C168.315 21.6688 165.761 24.6759 165.761 29.2142C165.761 33.7526 168.315 36.7596 172.853 36.7596C177.391 36.7596 179.945 35.1141 181.646 32.6751C183.347 34.435 187.83 37.553 190.608 38.6304C187.376 42.999 181.871 45.722 172.853 45.722C159.522 45.722 152.545 38.4052 152.545 29.2142Z" fill="var(--fill-0, #2B1A12)"/>
<path id="Vector_3" d="M192.418 35.339C192.418 27.6238 200.927 25.6942 207.111 25.6942C212.217 25.6942 217.036 26.9414 218.741 28.5315C218.685 27.5684 218.571 26.6018 218.401 25.6387C217.892 23.3141 211.538 22.6905 209.325 22.6905C205.978 22.6905 201.949 23.3141 197.695 24.8454C197.639 22.4065 196.333 17.0748 195.142 14.8056C199.566 13.4441 204.842 12.7651 210.059 12.7651H210.683C222.029 12.9348 232.921 16.6209 232.522 24.5059C232.183 31.4277 231.954 37.7814 233.031 44.5855H217.033C217.431 43.8476 217.771 42.9399 218.055 42.1465C216.07 44.4157 211.532 45.7218 206.768 45.7218C199.791 45.7218 192.415 42.7147 192.415 35.3425L192.418 35.339ZM212.952 39.8774C215.959 39.8774 219.136 38.5713 219.136 35.2247C219.136 31.8781 215.959 30.6309 212.952 30.6309C209.945 30.6309 206.768 31.8781 206.768 35.2247C206.768 38.5713 209.945 39.8774 212.952 39.8774Z" fill="var(--fill-0, #2B1A12)"/>
<path id="Vector_4" d="M237.005 0.0561398H253C251.753 10.7195 251.753 33.8651 253 44.5874H237.005C238.138 33.8651 238.138 10.723 237.005 0.0561398Z" fill="var(--fill-0, #2B1A12)"/>
</g>
<path id="Vector_5" d="M126.192 13.1647C131.208 13.1647 135.293 17.2457 135.293 22.2622C135.293 27.2786 131.212 31.3596 126.192 31.3596H64.1688C59.1524 31.3596 55.0713 27.2786 55.0713 22.2622C55.0713 17.2457 59.1524 13.1647 64.1688 13.1647H126.192ZM126.192 0H64.1688C51.8737 0 41.9032 9.9705 41.9032 22.2656C41.9032 34.5607 51.8702 44.5278 64.1653 44.5278H126.188C138.483 44.5278 148.454 34.5607 148.454 22.2656C148.454 9.9705 138.487 0 126.192 0Z" fill="var(--fill-0, #BE3FFF)"/>
</g>
</svg>
