<svg preserveAspectRatio="none" width="100%" height="100%" overflow="visible" style="display: block;" viewBox="0 0 159.968 47.3007" fill="none" xmlns="http://www.w3.org/2000/svg">
<g id="Group">
<path id="Vector" d="M0 1.5335H17.9836C18.777 8.2267 21.8395 21.0484 26.267 32.5051C30.7499 21.0449 33.7535 8.2267 34.5503 1.5335H52.534C46.9736 12.3666 40.2804 33.3019 37.3322 46.1202H15.2087C12.2501 33.2985 5.55688 12.3666 0 1.5335Z" fill="var(--fill-0, #2B1A12)"/>
<path id="Vector_2" d="M63.1351 6.09712e-05C67.7878 6.09712e-05 71.6991 2.04058 71.758 6.75215C71.7025 11.4602 67.7878 13.5042 63.1351 13.5042C58.4824 13.5042 54.4568 11.4602 54.5122 6.75215C54.4568 2.04405 58.4824 6.09712e-05 63.1351 6.09712e-05ZM55.0215 15.7145H71.0166C69.8837 23.544 69.8837 38.2365 71.0166 46.1214H55.0215C56.0435 38.2365 56.0435 23.544 55.0215 15.7145Z" fill="var(--fill-0, #2B1A12)"/>
<path id="Vector_3" d="M90.8719 41.2977C91.0417 43.0576 91.2703 44.7587 91.7242 46.1202H75.7291C76.862 35.3979 76.862 12.1969 75.7291 1.5335H91.7242C90.7611 10.1564 90.477 14.809 90.3627 19.971C92.4621 16.51 97.2256 14.2998 102.162 14.2998C111.748 14.2998 116.346 22.015 116.346 30.863C116.346 42.2089 109.199 47.2565 102.336 47.2565C97.1737 47.2565 92.8051 45.0427 90.8754 41.3012L90.8719 41.2977ZM95.8087 38.6302C98.8158 38.6302 101.993 36.7005 101.993 30.8595C101.993 25.0186 98.8158 22.9746 95.8087 22.9746C92.8016 22.9746 89.6248 25.0186 89.6248 30.8595C89.6248 36.7005 92.8016 38.6302 95.8087 38.6302Z" fill="var(--fill-0, #2B1A12)"/>
<path id="Vector_4" d="M119.352 32.4454C118.33 19.5128 127.635 14.292 139.604 14.292C147.773 14.292 157.758 17.8672 157.758 24.9554C157.758 32.0435 149.987 34.8808 143.01 34.8808C139.947 34.8808 135.07 34.2572 132.97 32.0435L133.026 33.0066C133.195 37.4306 137.962 38.5669 141.59 38.5669C145.899 38.5669 149.076 36.8659 151.175 34.4824C152.876 36.2423 157.19 39.3049 159.968 40.268C154.751 46.3376 147.715 47.3007 141.984 47.3007C131.661 47.3007 120.938 44.4079 119.352 32.4384V32.4454ZM137.955 31.0284C140.962 31.0284 143.401 29.4417 143.401 26.4347C143.401 23.4276 140.962 21.782 137.955 21.782C134.948 21.782 132.509 23.4276 132.509 26.4347C132.509 29.4417 134.948 31.0284 137.955 31.0284Z" fill="var(--fill-0, #2B1A12)"/>
</g>
</svg>
