<svg preserveAspectRatio="none" width="100%" height="100%" overflow="visible" style="display: block;" viewBox="0 0 163.665 124.783" fill="none" xmlns="http://www.w3.org/2000/svg">
<g id="Group">
<path id="Vector" d="M18.1412 37.957C17.2264 37.3036 16.4382 36.74 15.6092 36.1479C14.9211 37.371 16.0931 37.5874 16.3259 38.3878C15.9277 38.8656 15.3846 39.3761 15.0211 39.9907C14.5433 40.7952 13.9879 41.6488 13.8491 42.5431C13.4856 44.8586 16.0421 46.6779 18.2106 45.6488C19.0355 45.2568 19.7032 44.5094 20.3995 43.8764C20.9447 43.3843 21.4225 42.8187 21.9759 42.2409C23.056 42.833 24.0566 43.3823 25.2674 44.0459C25.1939 45.4569 25.1776 46.9332 25.0326 48.3993C24.614 52.6607 24.128 56.916 23.7074 61.1775C23.6257 62.0024 23.7237 62.8437 23.7421 63.8748C25.0285 63.4113 25.0653 62.5782 25.1469 61.8044C25.2858 60.4526 25.4777 59.0968 25.4757 57.7451C25.4736 55.9849 26.1985 54.6332 27.3767 53.404C32.361 48.2012 37.2268 42.88 42.3214 37.7875C45.7946 34.3163 49.7028 31.3392 54.4829 29.8016C57.5274 28.8215 60.6413 28.1681 63.8553 28.0497C65.2723 27.9986 66.6853 27.8782 68.3005 27.7761C68.2045 25.7485 68.1167 23.8903 68.0289 22.024C66.326 21.2175 64.4147 22.1302 62.6873 21.0398C62.8935 20.5294 63.0283 20.025 63.2835 19.5921C64.4229 17.6605 65.6378 15.7738 66.7405 13.8217C67.4388 12.5864 68.0636 11.2979 68.5863 9.98088C70.081 6.21766 72.6742 3.62648 76.5171 2.32375C79.7658 1.22317 83.0655 1.17824 86.3509 2.06851C88.4398 2.63412 90.0937 3.93073 91.474 5.59692C94.6226 9.3969 95.4802 13.8238 95.08 18.5977C94.835 21.5054 94.5593 24.411 94.2796 27.5106C96.0622 27.6454 97.7324 27.7822 99.4027 27.8945C104.967 28.2661 110.374 29.3647 115.011 32.5868C118.117 34.7451 121.057 37.228 123.736 39.9029C127.916 44.0786 131.771 48.5789 135.847 52.8629C137.382 54.476 138.295 56.1993 138.219 58.476C138.178 59.6869 138.428 60.912 138.587 62.1229C138.673 62.7702 138.738 63.4869 139.855 63.6645C140.022 60.3219 139.44 57.1304 139.142 53.9247C138.84 50.6821 138.568 47.4355 138.272 44.0602C139.365 43.4517 140.416 42.8657 141.758 42.1184C142.603 43.0576 143.373 44.1072 144.333 44.9362C146.399 46.7188 149.135 45.8837 149.819 43.3558C150.136 42.1837 149.703 41.2036 149.031 40.3174C148.506 39.6252 147.875 39.0106 147.302 38.3715C147.726 37.7528 148.114 37.1872 148.743 36.2704C147.053 36.3459 146.483 37.3669 145.474 37.9917C145.934 38.5736 146.338 39.0882 146.744 39.6007C147.208 40.1867 147.737 40.7319 148.12 41.3649C148.676 42.2817 148.504 43.3639 147.82 43.9806C147.122 44.6095 146.04 44.7095 145.213 43.9806C144.049 42.9556 143.02 41.7774 141.872 40.6013C141.272 40.928 140.753 41.222 140.224 41.4976C139.563 41.8407 138.914 42.2287 138.219 42.4921C137.027 42.9433 135.922 42.6758 135.455 41.9121C134.952 41.0933 135.275 39.8743 136.328 39.0739C138.005 37.7997 139.743 36.6052 141.437 35.3515C141.938 34.9799 142.377 34.5245 142.842 34.106C142.734 33.9406 142.624 33.7772 142.515 33.6118C142.032 33.8568 141.501 34.0386 141.07 34.3551C139.538 35.4842 138.074 36.7053 136.522 37.8018C135.585 38.4634 134.564 39.029 133.523 39.5149C132.412 40.0336 131.514 39.8294 130.922 39.1107C130.303 38.3592 130.358 37.2689 131.165 36.3133C131.597 35.8007 132.136 35.3658 132.671 34.9493C134.652 33.3995 136.657 31.8803 138.638 30.3305C139.071 29.9915 139.444 29.577 139.847 29.1952L139.506 28.7255C138.903 29.0645 138.258 29.3463 137.703 29.7506C135.397 31.4331 133.147 33.1932 130.809 34.8288C130.129 35.3046 129.233 35.6966 128.424 35.715C126.821 35.7517 125.921 34.0447 126.756 32.6623C127.13 32.0416 127.703 31.5046 128.281 31.0472C130.466 29.3197 132.694 27.6474 134.895 25.9404C135.297 25.628 135.649 25.2523 136.024 24.9052C135.951 24.7826 135.879 24.6581 135.806 24.5356C135.369 24.7214 134.875 24.8316 134.505 25.1073C132.647 26.4815 130.821 27.8986 128.984 29.2973C128.498 29.6668 128.024 30.0569 127.516 30.3958C126.781 30.8859 126.015 31.039 125.257 30.4285C124.498 29.8159 124.095 28.9971 124.479 28.0905C124.841 27.237 125.296 26.312 125.974 25.7199C128.277 23.7147 130.617 21.73 133.092 19.9454C137.245 16.9519 141.55 17.589 145.752 19.8943C148.684 21.5013 150.928 23.8924 152.509 26.8082C153.928 29.43 155.128 32.1498 155.851 35.0922C157.583 42.149 159.5 49.1609 161.274 56.2075C162.708 61.8921 163.574 67.6769 163.661 73.5392C163.71 76.8001 163.296 80.0283 162.214 83.1688C160.615 87.8141 157.088 90.9607 151.338 91.2077C146.895 91.3976 142.722 90.3277 138.895 87.9958C134.934 85.5823 131.25 82.8012 127.887 79.6077C122.96 74.9256 118.029 70.2476 113.167 65.4981C111.526 63.8953 110.09 62.08 108.23 59.9932C107.846 62.3046 108.079 64.2322 107.948 66.1271C107.817 68.026 107.674 69.927 107.621 71.828C107.566 73.7862 107.609 75.7485 107.609 77.9374C90.4449 78.501 73.5604 78.7195 56.4003 78.5439C56.1348 72.51 55.8735 66.5681 55.5999 60.3301C55.0771 60.714 54.6851 60.912 54.4135 61.2163C47.4874 69.0021 39.9099 76.1181 31.9587 82.8318C29.5819 84.839 26.9887 86.6461 24.3057 88.2225C20.034 90.734 15.3458 91.7795 10.3962 90.9688C6.3206 90.3011 3.51094 87.8896 1.90601 84.1223C0.192852 80.0977 -0.139978 75.8383 0.0458346 71.5258C0.25615 66.6212 1.07495 61.786 2.21229 57.0324C4.07859 49.2405 6.08986 41.4833 8.18077 33.7486C9.36507 29.3667 11.4192 25.4197 14.7679 22.2098C17.5531 19.5411 20.863 18.1873 24.6446 17.9218C26.6191 17.783 28.4507 18.4793 29.9985 19.5982C32.6346 21.5095 35.1747 23.5636 37.6597 25.6688C38.3437 26.2487 38.7909 27.1778 39.1748 28.0252C39.5893 28.9379 39.1789 29.7506 38.4397 30.3734C37.6985 31.0002 36.9144 30.8859 36.1855 30.3795C35.238 29.722 34.3232 29.0135 33.4044 28.3151C32.1057 27.3268 30.8336 26.3059 29.5186 25.3421C29.0163 24.9746 28.4262 24.7275 27.8749 24.4253C27.7667 24.5846 27.6605 24.7418 27.5523 24.9011C28.0281 25.3054 28.4875 25.7301 28.9837 26.1078C31.0909 27.7168 33.2165 29.2973 35.3136 30.9185C35.8465 31.329 36.3508 31.8047 36.7674 32.3316C37.382 33.1075 37.382 33.9732 36.8021 34.7859C36.2283 35.5904 35.3891 35.8844 34.4682 35.6333C33.8985 35.4781 33.3595 35.1269 32.8714 34.7737C30.609 33.1463 28.3772 31.4801 26.1189 29.8506C25.5451 29.4361 24.9142 29.0992 24.3098 28.7276C24.1893 28.8583 24.0668 28.9889 23.9463 29.1196C24.2607 29.4606 24.5323 29.8547 24.8937 30.1345C26.9887 31.7598 29.1143 33.3423 31.2053 34.9717C31.7892 35.4271 32.3487 35.9416 32.8163 36.5154C33.4391 37.2791 33.4779 38.1387 32.849 38.9514C32.2425 39.7375 31.4013 40.0724 30.5028 39.6763C29.39 39.1862 28.3078 38.5879 27.3073 37.8978C25.7983 36.8564 24.3792 35.6864 22.909 34.5899C22.4006 34.2101 21.8472 33.8895 21.2142 33.475C20.8344 34.4122 21.2816 34.7206 21.7227 35.0269C23.4522 36.2295 25.1878 37.4241 26.9091 38.6369C28.365 39.662 28.8693 40.8463 28.3017 41.8448C27.7504 42.8188 26.4864 42.9698 24.8161 42.1878C23.8381 41.7304 22.907 41.177 21.6001 40.4767C21.2898 40.9096 20.9815 41.4323 20.5833 41.8774C19.9523 42.586 19.3051 43.2925 18.5863 43.9091C17.5306 44.8157 16.6751 44.8586 15.8481 44.1766C15.1294 43.5845 14.915 42.4083 15.5561 41.3874C16.2728 40.248 17.1733 39.2229 18.1432 37.9508L18.1412 37.957Z" fill="var(--fill-0, #2B1A12)"/>
<path id="Vector_2" d="M97.3876 118.541C97.3876 119.893 97.4141 121.049 97.3815 122.201C97.3325 123.893 97.1977 124.081 95.5233 124.216C92.5463 124.457 89.563 124.804 86.5859 124.782C80.8809 124.739 75.1758 124.49 69.4728 124.277C67.3104 124.196 67.0307 124.014 67.1205 121.892C67.2185 119.589 66.3854 118.431 64.2945 117.237C57.3582 113.269 52.7782 107.407 51.6511 99.2537C51.3917 97.3751 51.3162 95.47 51.1018 93.5833C50.8874 91.6986 51.7838 90.4326 53.3275 89.5955C55.1733 88.5949 57.0396 87.6128 58.9672 86.7838C63.7534 84.7235 68.852 83.8822 73.9752 83.2431C83.1168 82.0997 92.1603 82.8633 101.041 85.1727C103.834 85.8996 106.57 87.0819 109.129 88.4377C113.527 90.7696 113.196 91.1677 112.643 95.7967C112.21 99.415 111.175 103.001 109.531 106.304C107.154 111.084 103.854 115.074 99.0681 117.659C98.5351 117.947 97.9961 118.221 97.3856 118.539L97.3876 118.541ZM109.976 92.5726C109.376 92.1254 108.857 91.7048 108.306 91.3331C104.757 88.9359 100.769 87.5985 96.6301 86.7736C88.3767 85.1298 80.0498 84.9216 71.7107 86.0058C66.2894 86.7103 61.1153 88.2968 56.3005 90.9309C55.3898 91.4291 54.5648 92.0866 53.6256 92.7196C56.1208 95.3332 59.0284 96.7156 62.1464 97.761C67.9291 99.7008 73.9098 100.448 79.9641 100.577C83.0085 100.642 86.0632 100.387 89.1118 100.224C93.8184 99.9704 98.3902 99.0127 102.784 97.3118C105.457 96.2766 107.848 94.7533 109.978 92.5726H109.976Z" fill="var(--fill-0, #2B1A12)"/>
<path id="Vector_3" d="M129.438 20.9678C128.6 21.7131 127.798 22.4278 126.842 23.2772C125.94 22.3155 125.109 21.4313 124.28 20.5472C123.363 19.5691 122.446 18.9443 120.904 19.3343C118.983 19.8203 117.139 19.1015 115.487 18.0969C112.604 16.345 110.538 13.8824 109.527 10.6399C108.837 8.42646 108.647 6.14362 110.381 4.31203C112.063 2.53558 114.342 2.56214 116.474 3.15838C119.614 4.0364 122.285 5.7475 124.071 8.58983C125.264 10.4868 125.864 12.5532 125.474 14.7952C125.237 16.149 125.66 17.1393 126.642 18.0459C127.584 18.9137 128.421 19.8958 129.436 20.9699L129.438 20.9678Z" fill="var(--fill-0, #2B1A12)"/>
<path id="Vector_4" d="M36.0635 22.8244C35.1283 22.0035 34.3299 21.3052 33.4805 20.562C34.724 19.1367 35.8205 17.8483 36.9537 16.5925C37.646 15.8247 37.9216 14.9876 37.6419 13.9727C37.0742 11.9186 37.4826 9.98695 38.8098 8.40447C41.0335 5.75409 43.4 3.22418 45.7482 0.682013C46.1117 0.287926 46.6957 0.0959694 47.3593 0C46.2485 3.50799 42.9998 5.53969 41.4541 8.76794C42.3199 9.15386 42.6956 8.56375 43.0774 8.15741C44.6109 6.52185 46.0913 4.83728 47.6349 3.20989C48.1556 2.66062 48.8029 2.23386 49.4481 1.70705C50.1403 2.82193 49.4971 3.36711 49.0581 3.91638C47.6574 5.66833 46.2158 7.38558 44.813 9.13549C44.421 9.62555 44.1106 10.1789 43.6389 10.8915C44.8375 11.1304 45.1642 10.4668 45.5747 9.99103C46.9958 8.34526 48.3823 6.66886 49.8239 5.04147C50.3302 4.46974 50.8203 3.75302 51.8535 3.8347C52.1455 4.75968 51.6003 5.33142 51.1715 5.88273C49.9198 7.48971 48.6048 9.04971 47.3429 10.6506C46.8529 11.2713 46.4323 11.9492 45.9708 12.6149C46.8856 13.2111 47.2613 12.5516 47.637 12.1473C49.2092 10.4546 50.7202 8.70465 52.2925 7.01395C52.803 6.46672 53.24 5.66015 54.5468 5.97461C54.2997 6.5933 54.2037 7.19362 53.8729 7.61017C51.6003 10.4831 49.3358 13.3663 46.9468 16.1433C45.8381 17.4317 44.2433 17.9933 42.5261 17.8115C40.9232 17.64 39.8002 18.2465 38.8629 19.4961C38.0176 20.6232 37.0518 21.6585 36.0614 22.8223L36.0635 22.8244Z" fill="var(--fill-0, #2B1A12)"/>
<path id="Vector_5" d="M109.973 92.566C107.844 94.7488 105.455 96.27 102.78 97.3052C98.3857 99.0061 93.8159 99.9658 89.1073 100.217C86.0608 100.38 83.0061 100.636 79.9596 100.57C73.9053 100.44 67.9246 99.6942 62.142 97.7544C59.026 96.709 56.1163 95.3266 53.6211 92.713C54.5604 92.0779 55.3853 91.4225 56.296 90.9243C61.1108 88.2882 66.285 86.7037 71.7062 85.9992C80.0453 84.917 88.3722 85.1232 96.6256 86.767C100.765 87.5919 104.752 88.9293 108.301 91.3265C108.852 91.6981 109.371 92.1188 109.971 92.566H109.973ZM73.2846 94.4302C73.6562 92.0902 72.6026 90.5261 70.8752 89.3704C69.0762 88.1657 67.1487 88.1759 65.311 89.301C63.4569 90.4363 62.3666 92.0351 62.6116 94.4302H73.2846ZM90.1038 95.7758C92.1763 98.4916 96.548 98.1771 98.5654 96.2434C100.54 94.3526 100.648 91.2489 98.6675 89.1111C95.7251 91.2122 92.7153 93.2418 90.1038 95.7758ZM83.7126 98.0995C83.6473 95.2102 81.3705 93.1152 78.7222 93.3603C76.08 93.6053 74.3158 95.639 74.6976 98.0995H83.7126ZM90.4897 90.8691C89.1726 89.3928 87.9822 88.0575 86.6815 86.5975C85.046 87.9778 83.6289 89.1764 82.2118 90.373C83.6513 91.8166 84.8826 93.0499 86.2037 94.373C87.5228 93.2949 88.8704 92.1923 90.4897 90.8691Z" fill="var(--fill-0, #FFFE7C)"/>
<path id="Vector_6" d="M73.2658 94.4371H62.5928C62.3477 92.042 63.4381 90.4432 65.2922 89.3079C67.1299 88.1828 69.0574 88.1726 70.8563 89.3773C72.5838 90.533 73.6374 92.0971 73.2658 94.4371Z" fill="var(--fill-0, #2B1A12)"/>
<path id="Vector_7" d="M90.1055 95.7781C92.7171 93.2441 95.7289 91.2144 98.6692 89.1133C100.65 91.2512 100.542 94.3549 98.5671 96.2457C96.5497 98.1773 92.178 98.4938 90.1055 95.7781Z" fill="var(--fill-0, #2B1A12)"/>
<path id="Vector_8" d="M83.7036 98.0947H74.6886C74.3068 95.6362 76.071 93.6004 78.7132 93.3554C81.3615 93.1104 83.6383 95.2054 83.7036 98.0947Z" fill="var(--fill-0, #2B1A12)"/>
<path id="Vector_9" d="M90.4888 90.8615C88.8696 92.1846 87.5219 93.2873 86.2029 94.3654C84.8817 93.0422 83.6505 91.8069 82.2109 90.3653C83.628 89.1688 85.0451 87.9722 86.6807 86.5898C87.9813 88.0498 89.1718 89.3831 90.4888 90.8615Z" fill="var(--fill-0, #2B1A12)"/>
</g>
</svg>
