<svg preserveAspectRatio="none" width="100%" height="100%" overflow="visible" style="display: block;" viewBox="0 0 75.9721 117.267" fill="none" xmlns="http://www.w3.org/2000/svg">
<g id="Group 1430103254">
<path id="Vector" d="M0.645159 117.257C0.525589 106.345 0.406019 95.4329 0.28125 84.5208C0.28125 84.2869 0.28125 84.0529 0.44241 83.8086C1.21182 86.5795 1.86166 89.3868 2.78702 92.1057C3.676 94.7155 4.66896 97.3304 5.93744 99.7738C9.06186 105.794 14.7232 108.087 21.258 106.21C25.1414 105.097 28.635 103.153 31.8478 100.808C36.0743 97.7255 40.0929 94.3568 44.1947 91.1076C44.6886 90.7177 45.1461 90.2758 45.8427 89.6623C45.9882 98.9368 46.1234 107.91 46.2638 116.976C44.0907 117.08 42.1204 117.174 40.1501 117.267H0.645159V117.257Z" fill="var(--fill-0, #2B1A12)"/>
<path id="Vector_2" d="M63.9525 76.6743C65.7669 76.9707 67.5916 76.5756 69.2968 76.1077C71.002 75.6346 72.5616 74.6417 74.0952 73.919C74.0952 75.2863 72.3016 77.345 70.2066 77.9324C68.543 78.4003 66.8274 78.6706 65.1378 79.0554C64.6751 79.1593 64.228 79.3465 63.7758 79.492C63.8121 79.6688 63.8537 79.8456 63.8901 80.0171C65.928 79.7156 67.9711 79.4141 70.009 79.1125C70.0714 79.2269 70.139 79.3465 70.2014 79.4609C69.2812 80.0067 68.413 80.7033 67.4252 81.0724C64.5764 82.1226 61.5975 82.2889 58.5874 82.0602C57.2046 81.9562 55.8113 81.9094 54.4493 81.6703C52.7805 81.374 51.616 82.003 50.3943 83.0895C45.4087 87.5188 40.4752 92.0157 35.2453 96.1435C31.9025 98.7792 28.175 100.978 24.432 103.032C22.5137 104.087 20.221 104.68 18.0272 104.966C14.0034 105.486 10.7698 103.838 8.40437 100.526C5.80502 96.8869 4.6821 92.6448 3.51759 88.439C1.39132 80.6773 0.164428 72.7597 0.00846675 64.7277C-0.0591164 61.333 0.283998 57.8914 0.819464 54.5331C1.62526 49.5059 2.90414 43.8497 2.90414 43.8497C2.90414 43.8497 4.77048 38.126 5.93499 35.9061C7.70775 32.5322 8.3108 32.5789 8.35238 26.1637C8.36798 23.9699 8.21202 22.1867 8.2952 19.9825C8.43556 16.4526 8.74749 15.6988 9.35054 12.3768C10.4631 6.28911 14.1489 2.43687 20.0859 0.794078C24.2864 -0.370432 28.487 -0.292451 32.5887 1.28276C36.5605 2.80598 39.451 5.58728 40.3816 9.72025C41.4057 14.2535 43.6048 18.1785 45.6791 22.2075C46.0482 22.9302 46.3965 23.6632 46.8696 24.6353C45.5699 24.8589 44.4522 25.1396 43.3189 25.228C42.0036 25.332 41.4213 25.831 41.4525 27.2399C41.4941 29.2258 41.3434 31.2221 41.2186 33.208C41.0886 35.2979 39.8357 36.5508 37.7303 36.6547C36.1395 36.7327 34.5434 36.6703 32.7447 36.6703C32.6043 38.9734 32.8227 40.0651 33.4361 41.2816C33.7221 41.843 33.9976 42.6176 34.4655 43.1479C37.9382 47.1249 41.1874 51.3047 42.5339 56.4774C43.6308 60.6831 44.1507 65.0448 44.8681 69.3494C44.9253 69.6925 44.6289 70.2955 44.3222 70.4671C37.6575 74.1478 30.9615 77.7869 24.276 81.4312C24.2084 81.4675 24.1097 81.4519 23.8497 81.4779C23.7561 80.0327 23.6522 78.5927 23.569 77.1474C23.2311 71.3561 22.8984 65.5595 22.5552 59.7682C22.5344 59.425 22.5448 59.0195 22.3681 58.7648C22.1757 58.4945 21.7806 58.2501 21.4687 58.2397C21.2764 58.2345 21.0268 58.6712 20.8865 58.9468C20.7981 59.1183 20.8605 59.3731 20.8709 59.5862C21.2972 67.2387 21.7131 74.8912 22.1601 82.5437C22.2589 84.2177 22.5033 84.3372 23.9381 83.5626C30.9771 79.7468 38.0266 75.9517 45.0084 72.0371C46.1574 71.3925 47.2127 70.3423 47.9405 69.235C49.3442 67.1035 51.0909 65.5127 53.3887 64.4002C55.5254 63.3657 57.5373 62.0764 59.6376 60.9639C60.0691 60.7351 60.9009 60.5584 61.1192 60.7819C61.4623 61.1302 61.6859 61.9308 61.5195 62.3779C61.2336 63.1525 60.6981 63.8855 60.1055 64.4782C59.4088 65.1748 58.4939 65.6479 57.7609 66.3185C57.3814 66.6668 56.8719 67.3531 56.9966 67.6546C57.1786 68.0965 57.8544 68.5696 58.3483 68.6008C60.7605 68.7463 63.1883 68.7931 65.6057 68.7827C67.9243 68.7723 69.9986 67.9353 71.9325 66.698C72.4056 66.3965 72.9151 65.9962 73.4297 65.965C74.0276 65.9286 74.6514 66.2405 75.2649 66.4017C75.0985 66.9684 75.1141 67.7638 74.7346 68.0601C72.4472 69.8588 70.061 71.5068 67.0249 71.8136C66.2087 71.8967 65.4029 72.0943 64.6075 72.2866C64.358 72.349 64.1501 72.5778 63.7602 72.8377C64.1189 73.0041 64.2956 73.1652 64.462 73.1496C67.576 72.8897 70.7108 72.6869 73.2114 70.4411C73.5961 70.098 74.012 69.7133 74.4799 69.5573C74.9322 69.4066 75.4728 69.5157 75.9719 69.5105C75.9251 70.02 76.0759 70.7478 75.8004 71.0078C73.8352 72.8273 71.8857 74.7144 69.0732 75.1875C67.706 75.4163 66.3439 75.6658 64.9871 75.9309C64.6023 76.0089 64.2436 76.1857 63.8693 76.3156C63.8953 76.4404 63.9213 76.5652 63.9473 76.6899L63.9525 76.6743Z" fill="var(--fill-0, #2B1A12)"/>
</g>
</svg>
