<svg preserveAspectRatio="none" width="100%" height="100%" overflow="visible" style="display: block;" viewBox="0 0 140.627 109.074" fill="none" xmlns="http://www.w3.org/2000/svg">
<g id="Group 1430103266">
<path id="Vector" d="M22.6465 96.2485C15.8653 92.414 9.08406 88.5794 2.30286 84.7449C2.00872 84.5786 1.70402 84.4226 1.43069 84.2236C0.347758 83.4382 0.247936 82.4113 1.24357 81.5314C1.74278 81.0911 2.35761 80.7606 2.95742 80.4567C5.01151 79.413 7.05821 78.3534 9.15158 77.3974C10.4432 76.8088 11.335 75.9638 12.0195 74.6952C15.1763 68.852 18.3979 63.0431 21.6425 57.2473C23.2654 54.3485 23.7116 54.3202 26.5401 55.9103C35.8702 61.151 45.2331 66.3379 54.5813 71.5468C55.2903 71.943 55.991 72.358 56.698 72.7578C57.5539 73.2417 57.7483 73.969 57.4025 74.8328C57.1258 75.5206 56.7961 76.1947 56.4286 76.8405C52.9378 82.9601 49.4168 89.0627 45.9614 95.2024C45.6678 95.7216 45.6781 96.4851 45.7342 97.1178C45.9664 99.7467 46.2737 102.371 46.5408 104.996C46.5879 105.467 46.637 105.951 46.5777 106.416C46.4036 107.774 45.7181 108.168 44.4834 107.551C41.9999 106.311 39.5416 105.021 37.0844 103.73C32.2891 101.205 27.5019 98.6667 22.7116 96.1333C22.6895 96.1723 22.6685 96.2095 22.6465 96.2485ZM39.6323 66.094C39.6504 66.0621 39.6674 66.032 39.6854 66.0001C35.0209 63.5214 30.3624 61.0322 25.6888 58.5695C24.4816 57.9336 24.3032 58.0175 23.5083 59.0717C19.8888 63.8722 17.7655 69.5047 14.8054 74.6733C14.3991 75.3836 14.5901 75.9804 15.2682 76.4106C15.7255 76.702 16.2049 76.9543 16.6692 77.2332C20.967 79.8062 25.2569 82.3933 29.5647 84.9485C30.6106 85.5679 31.704 86.1114 32.7949 86.6511C36.0107 88.2427 39.2538 89.7819 42.4533 91.4064C44.5396 92.4645 44.6935 92.486 45.9127 90.3879C47.7845 87.1645 49.6209 83.9211 51.4643 80.6817C52.3373 79.1502 53.1721 77.5995 54.0664 76.08C54.5834 75.203 54.4282 74.547 53.5833 74.0272C53.1219 73.7429 52.6596 73.4605 52.1883 73.1939C48.004 70.8255 43.8177 68.4606 39.6323 66.094Z" fill="var(--fill-0, #2B1A12)"/>
<path id="Vector_2" d="M126.298 39.447C129.942 45.6963 133.598 51.9411 137.213 58.2076C137.674 59.0089 138.016 59.9037 138.265 60.7945C138.693 62.3221 138.253 63.657 137.068 64.7157C136.433 65.283 135.815 65.8936 135.099 66.3366C129.892 69.5672 124.671 72.7738 119.429 75.9454C118.787 76.334 118.006 76.5019 117.278 76.7275C114.733 77.5173 112.571 77.0905 111.022 74.7266C110.51 73.9445 109.938 73.1981 109.434 72.4107C105.338 66.0373 101.183 59.6996 97.1833 53.2678C94.7558 49.368 92.5657 45.3214 90.2762 41.3381C89.217 39.4951 88.0911 37.6805 87.1389 35.7818C85.7483 33.0111 86.1519 31.1024 88.7369 29.3903C94.2003 25.7735 99.7618 22.3038 105.286 18.782C105.642 18.5544 106.032 18.3688 106.422 18.2017C110.091 16.6441 111.787 17.0029 114.092 20.2705C116.252 23.327 118.209 26.5297 120.193 29.7073C122.221 32.9571 124.17 36.2546 126.154 39.531C126.2 39.5031 126.248 39.474 126.294 39.4461L126.298 39.447ZM122.595 39.986C122.613 39.9754 122.633 39.9634 122.65 39.9528C120 35.5771 117.383 31.1814 114.69 26.8322C112.355 23.0615 112.227 23.0915 108.414 25.5199C103.888 28.4049 99.3666 31.3043 94.7656 34.0666C91.1274 36.2489 90.967 36.2263 93.1096 39.8138C97.2594 46.7653 101.543 53.6359 105.769 60.541C107.149 62.7946 108.482 65.0795 109.916 67.2998C111.333 69.4917 111.902 69.6892 114.055 68.4061C119.47 65.1781 124.857 61.8948 130.193 58.5376C132.552 57.0552 132.621 56.636 131.191 54.2154C128.374 49.4442 125.465 44.7253 122.595 39.986ZM125.899 69.5577C127.113 68.8229 127.506 67.2081 126.756 66.0396C125.991 64.8449 124.446 64.5324 123.221 65.3221C122.047 66.0778 121.768 67.6087 122.57 68.8648C123.274 69.968 124.727 70.2707 125.902 69.5564L125.899 69.5577ZM96.7887 28.639C99.4288 28.1597 102.224 26.3295 102.934 24.6993C100.661 25.6417 98.4603 26.6988 96.7887 28.639Z" fill="var(--fill-0, #2B1A12)"/>
<g id="Group">
<path id="Vector_3" d="M78.421 75.6946C79.4107 75.7914 79.8637 75.7522 80.2564 75.8857C82.0945 76.5193 83.6995 75.9983 85.1709 74.9196C87.983 72.8616 90.7557 70.7513 93.5678 68.6959C94.3637 68.1147 95.2382 67.6381 96.4269 66.8945C96.5709 68.1382 96.7254 68.887 96.7333 69.6385C96.8328 77.6583 96.8458 85.6781 97.0291 93.6952C97.0815 96.0491 96.2201 97.5494 94.3323 98.9109C91.5831 100.893 89.0434 103.168 86.467 105.378C85.006 106.632 83.435 107.418 81.4687 107.103C79.6019 106.808 78.9185 106.103 78.8059 104.189C78.6907 102.275 78.6645 100.356 78.6357 98.4396C78.5546 93.1218 78.4839 87.8067 78.4236 82.489C78.4001 80.3263 78.421 78.161 78.421 75.692L78.421 75.6946ZM93.7379 74.5242C92.7247 75.239 92.0361 75.7286 91.3448 76.2156C90.6327 76.7157 89.9284 77.2289 89.2031 77.7133C86.4251 79.5618 85.9067 81.1903 87.1739 84.7695C88.4202 83.9186 89.5592 83.0205 90.8081 82.311C93.3007 80.8945 94.2695 78.7946 93.9186 76.0088C93.8767 75.6658 93.8348 75.3254 93.7353 74.5268L93.7379 74.5242Z" fill="var(--fill-0, #2B1A12)"/>
<path id="Vector_4" d="M83.6445 60.7538C82.5082 62.4976 80.4345 62.9427 78.8295 64.0319C77.2454 65.1028 75.5749 66.0427 73.9542 67.0638C72.2785 68.119 70.6212 69.2004 68.647 70.4702C70.396 72.0281 72.0979 72.7638 74.0354 72.269C75.6064 71.8684 77.1695 71.2086 78.5598 70.3734C81.9164 68.3625 85.1683 66.1736 88.4726 64.0738C89.1874 63.6182 89.9493 63.2386 90.6955 62.8222C91.7664 64.8854 91.7009 65.2598 90.1273 66.37C86.501 68.9281 82.9061 71.5332 79.217 73.9944C77.6067 75.0679 76.8789 76.3011 76.9181 78.2832C77.0726 86.1171 77.0883 93.9562 77.1538 101.793C77.159 102.403 77.1642 103.013 77.1564 103.62C77.1276 105.982 76.3028 106.94 73.9411 107.011C71.823 107.074 69.8043 106.513 67.9662 105.424C66.9111 104.798 66.4241 103.861 66.411 102.607C66.3141 92.3329 66.2067 82.0587 66.0575 71.7872C66.0392 70.5017 66.5026 69.6219 67.5604 68.9831C72.2471 66.1448 76.9234 63.2857 81.631 60.4815C82.1311 60.183 82.8092 60.1856 83.4036 60.0469L83.6419 60.759L83.6445 60.7538Z" fill="var(--fill-0, #2B1A12)"/>
</g>
<g id="Group_2">
<path id="Vector_5" d="M77.6667 31.4305C77.3817 39.9304 72.4957 48.173 63.2085 53.6439C56.5779 57.5502 49.3951 57.4427 42.1972 55.3883C39.9779 54.7535 37.831 53.7863 35.7391 52.7891C22.2856 46.3835 17.0672 28.5363 24.2426 15.5302C28.6288 7.58007 35.0344 1.8043 44.4665 0.41221C48.8602 -0.237597 53.2514 -0.260084 57.4977 1.38693C58.1175 1.62685 58.7348 1.86927 59.3621 2.0917C72.7006 6.82529 77.5117 17.947 77.6692 31.4305L77.6667 31.4305ZM39.3831 28.6938C39.3906 33.9622 43.9517 38.5184 49.2826 38.5783C54.9634 38.6433 59.7045 34.0172 59.7395 28.3764C59.7745 22.7106 55.1309 18.0995 49.4026 18.107C43.8917 18.1145 39.3756 22.8855 39.3831 28.6938Z" fill="var(--fill-0, #2B1A12)"/>
<path id="Vector_6" d="M49.5298 26.1624C50.6745 26.1099 51.5692 26.9821 51.5692 28.1493C51.5692 29.274 50.7144 30.2437 49.6348 30.3412C48.5126 30.4436 47.5879 29.6314 47.4804 28.4492C47.3679 27.2371 48.2802 26.2224 49.5298 26.1649L49.5298 26.1624Z" fill="var(--fill-0, #2B1A12)"/>
</g>
</g>
</svg>
