<svg preserveAspectRatio="none" width="100%" height="100%" overflow="visible" style="display: block;" viewBox="0 0 197.498 104.135" fill="none" xmlns="http://www.w3.org/2000/svg">
<g id="Mask group">
<mask id="mask0_837_48" style="mask-type:alpha" maskUnits="userSpaceOnUse" x="0" y="0" width="198" height="105">
<path id="Vector 69" d="M87.9295 102.236L67.6645 94.0066H0V0H197.498V95.5892H144.259L123.651 104.135L105.447 94.0066L87.9295 102.236Z" fill="var(--fill-0, #D9D9D9)"/>
</mask>
<g mask="url(#mask0_837_48)">
<g id="Group 1430103215">
<path id="Vector" d="M187.644 61.667C185.4 55.4726 181.779 50.1532 177.097 45.5399C173.021 41.5229 168.597 37.9485 163.846 34.7527C153.463 27.7702 142.184 23.0342 129.829 20.9182C126.991 20.432 124.177 19.8077 121.175 19.2116C120.968 17.6431 120.784 16.0491 120.546 14.4627C119.405 6.85591 115.981 3.1817 108.93 2.30153C104.91 1.80004 100.919 2.00473 97.3699 4.36379C93.4577 6.96337 91.9404 10.9983 90.9426 15.3096C90.6381 16.6248 90.5127 17.9809 90.2901 19.4239C89.2948 19.5902 88.3865 19.7361 87.4807 19.8947C84.8837 20.3553 82.2867 20.7979 79.6948 21.2892C72.1187 22.7246 64.9673 25.3369 58.0436 28.7425C47.1873 34.0824 37.6871 41.1749 30.0086 50.5011C24.5459 57.1408 21.8261 64.8474 21.9745 73.6466C22.0948 80.8159 27.711 88.4918 34.9007 90.5899C39.8287 92.0278 44.6466 91.9664 49.5131 90.8662C54.2773 89.7916 58.7242 87.8419 62.9229 85.3421C64.3839 84.4722 65.8782 83.7557 67.833 83.8069C68.2219 87.7856 68.6006 91.6619 68.9818 95.5639C72.4692 97.0504 75.821 98.4781 79.0014 99.8342C79.0014 102.37 79.1319 104.754 78.9784 107.121C78.3566 116.726 77.63 126.324 76.975 135.926C76.5272 142.469 76.1102 149.016 75.7289 155.564C75.6496 156.92 75.1328 157.836 73.8304 158.266C72.1366 158.829 70.453 159.427 68.7438 159.942C65.2206 161.001 64.6628 161.738 64.7754 165.397C64.8445 167.633 64.9417 167.815 67.2905 167.932C69.7519 168.055 72.2236 168.086 74.6876 168.024C81.4065 167.858 88.1281 167.671 94.8419 167.39C97.2803 167.288 97.2701 167.155 97.5234 164.662C97.8074 161.863 98.1068 159.067 98.401 156.27C99.1405 149.236 99.775 142.187 100.647 135.169C101.743 126.38 103.019 117.612 104.265 108.841C104.421 107.738 104.598 106.533 105.936 105.586C106.369 106.653 106.868 107.464 107.024 108.337C107.832 112.863 108.694 117.389 109.273 121.949C110.099 128.455 110.688 134.992 111.396 141.517C111.819 145.414 112.276 149.308 112.717 153.202C113.185 157.342 113.663 161.482 114.111 165.622C114.234 166.745 114.838 167.295 115.917 167.392C116.427 167.439 116.936 167.482 117.445 167.497C124.929 167.71 132.413 167.94 139.897 168.106C141.593 168.145 143.3 168.014 144.989 167.84C145.493 167.789 146.196 167.441 146.398 167.029C147.668 164.43 146.035 160.993 143.21 160.111C141.506 159.578 139.802 159.041 138.101 158.496C136.55 158 135.688 157.012 135.752 155.293C135.793 154.187 135.783 153.074 135.691 151.974C135.094 144.843 134.388 137.72 133.874 130.584C133.229 121.659 132.73 112.725 132.183 103.792C132.147 103.214 132.247 102.628 132.29 101.945C134.949 100.689 137.54 99.4044 140.181 98.2376C141.701 97.5673 142.619 96.7536 142.714 94.8781C142.901 91.1451 143.392 87.4299 143.766 83.6125C145.894 83.6483 147.693 84.6436 149.41 85.6875C153.532 88.2001 157.981 89.9118 162.641 90.9609C167.599 92.0764 172.594 92.2018 177.468 90.2726C183.926 87.7165 187.874 83.0905 189.148 76.2385C190.077 71.2389 189.345 66.38 187.636 61.667H187.644ZM60.3285 65.0444C59.8705 65.5382 59.4074 66.073 58.8419 66.4133C56.8104 67.6414 54.8095 68.9643 52.6475 69.9186C51.0637 70.6171 49.2573 71.1058 47.5404 71.1366C44.4905 71.1903 43.0014 69.0538 44.0837 66.1728C44.6901 64.5583 45.7263 62.9719 46.9443 61.7515C50.3191 58.3741 54.1878 55.5979 58.4811 53.4717C60.285 52.5788 62.163 51.8367 64.1485 50.9643C64.2918 51.696 64.4121 52.1003 64.4453 52.5097C64.6526 55.1272 64.8368 57.7498 64.9954 59.899C63.2556 61.8205 61.8074 63.4427 60.3285 65.0444ZM82.0795 98.972C78.9656 97.6082 75.9106 96.0884 72.7302 94.9012C71.0927 94.2896 70.4888 93.4351 70.4428 91.754C70.3686 88.9575 70.0922 86.166 69.8876 83.1647C71.7247 82.6504 73.5183 82.1899 75.2812 81.6423C76.4146 81.2892 77.5404 80.8747 78.6074 80.3579C79.5106 79.9203 80.0914 79.1425 79.7178 78.0628C79.3264 76.9293 78.4334 76.8935 77.4125 77.1263C75.7852 77.4973 74.1426 77.8044 72.5076 78.137C72.4564 77.9374 72.4053 77.7353 72.3541 77.5357C73.6769 77.2031 75.0048 76.8832 76.3251 76.5378C77.3127 76.2794 78.3132 76.044 79.2675 75.6884C80.2065 75.3378 80.8999 74.6777 80.7029 73.557C80.4906 72.334 79.4978 72.1754 78.5383 72.3084C76.6884 72.5668 74.8564 72.9506 73.0193 73.2858C72.72 73.3395 72.4283 73.424 72.1315 73.4931C72.0905 73.3319 72.0496 73.1732 72.0087 73.012C73.6948 72.5617 75.4065 72.1907 77.0543 71.6304C78.0701 71.285 79.1421 70.8116 79.9097 70.0977C81.0176 69.0666 80.5085 67.7003 78.9963 67.5596C77.9166 67.4598 76.7984 67.6619 75.711 67.8308C74.2986 68.0508 72.9016 68.3707 71.4995 68.647L71.3562 68.1429C72.505 67.7924 73.659 67.4521 74.8027 67.0862C75.7724 66.7766 76.8087 66.5668 77.6709 66.0628C78.134 65.7916 78.6304 64.8935 78.5025 64.4559C78.3311 63.8649 77.63 63.1306 77.0543 63.0231C76.1818 62.8619 75.2121 63.151 74.2961 63.3174C72.134 63.7114 69.9797 64.1464 67.6948 64.589C66.8121 54.9327 65.9473 45.4939 65.0594 35.7787C71.2999 38.7058 77.2615 41.5024 83.172 44.276C83.8449 55.1451 84.4385 65.9451 85.2189 76.7297C85.5311 81.0436 85.6564 85.3677 86.4368 89.6739C87.0816 93.2304 86.8436 96.9481 87.0151 101.057C85.1294 100.262 83.5967 99.6346 82.082 98.9694L82.0795 98.972ZM103.984 74.7877L103.961 76.6453V93.3302C98.9537 95.7455 93.7136 98.2735 88.2816 100.893C86.946 81.7344 85.636 62.9131 84.3183 43.9843C90.9707 41.1391 97.439 38.3732 103.984 35.5715V74.7877ZM123.622 90.0346C123.424 94.3562 123.227 98.7289 123.02 103.278C122.601 103.166 122.189 103.143 121.869 102.958C116.8 99.9954 111.749 97.0018 106.676 94.0491C105.765 93.5195 105.368 92.8491 105.384 91.7822C105.494 84.2905 105.611 76.7988 105.629 69.3046C105.639 65.0495 105.412 60.7945 105.378 56.537C105.327 49.8103 105.348 43.0862 105.35 36.3596C105.35 36.2137 105.491 36.0704 105.729 35.6124C106.55 35.9092 107.297 36.0858 107.952 36.4337C112.53 38.8772 117.082 41.3719 121.664 43.8052C122.47 44.2325 123.394 44.4397 124.259 44.7647C125.379 45.1869 126.027 45.7779 125.909 47.2082C125.441 52.8909 125.067 58.5839 124.752 64.2768C124.448 69.8035 124.253 75.3353 124.026 80.867C123.954 82.5685 123.622 90.0346 123.622 90.0346ZM143.031 64.6018C141.417 64.2513 139.787 63.8854 138.155 63.5451C137.157 63.3378 136.154 63.1331 135.146 62.9847C134.099 62.8287 133.247 63.1664 132.973 64.2717C132.697 65.3873 133.321 66.073 134.311 66.4107C135.601 66.8483 136.916 67.2039 138.219 67.6082C138.771 67.7796 139.314 67.9894 139.766 68.6188C138.503 68.3809 137.244 68.102 135.972 67.9127C134.8 67.7361 133.605 67.493 132.439 67.5698C130.949 67.667 130.425 69.0794 131.507 70.1054C132.213 70.7732 133.204 71.2159 134.14 71.5434C135.803 72.1242 137.525 72.5387 139.124 73.447C137.292 73.1041 135.463 72.7306 133.626 72.4287C131.663 72.1063 130.842 72.4287 130.653 73.4726C130.453 74.56 131.031 75.3122 132.792 75.8879C134.78 76.5404 136.814 77.0572 138.725 78.0756C137.374 77.812 136.028 77.5101 134.672 77.2952C133.613 77.1263 132.403 76.6709 131.799 78.096C131.336 79.1911 131.975 80.2069 133.764 80.8491C135.683 81.5374 137.676 82.0133 139.636 82.5813C140.201 82.7451 140.769 82.9088 141.56 83.1366C141.34 87.4555 141.12 91.7694 140.897 96.1395C135.45 98.6317 129.987 101.129 124.43 103.67C124.43 101.188 124.392 98.7724 124.445 96.3596C124.476 94.9984 124.673 93.6423 124.778 92.2837L127.127 58.4124V46.2154C133.119 42.6615 139.229 39.0359 145.383 35.3873C145.877 37.3677 143.97 60.9967 143.034 64.6069L143.031 64.6018ZM164.455 71.0828C163.303 71.1672 161.991 71.1263 160.98 70.653C158.063 69.2943 155.259 67.6926 152.419 66.1677C152.13 66.0116 151.851 65.7583 151.674 65.4845C150.275 63.3046 148.594 61.4265 146.061 60.4286C146.286 57.2738 146.498 54.3186 146.734 51.0129C147.591 51.2252 148.312 51.3071 148.955 51.5758C154.732 54.0039 159.906 57.3711 164.445 61.7029C165.946 63.1357 167.149 64.7732 167.569 66.8559C168.06 69.2892 166.932 70.9037 164.455 71.0828Z" fill="var(--fill-0, #2B1A12)"/>
<path id="Vector_2" d="M116.379 56.8947C115.988 58.3454 115.645 59.6043 115.159 61.403C114.691 59.5761 114.363 58.2942 113.938 56.6286C112.626 57.3885 111.523 58.0281 109.868 58.9851C110.76 57.3859 111.354 56.3241 112.122 54.9501C110.745 54.4793 109.525 54.0597 107.91 53.507C109.425 53.0567 110.604 52.7036 112.104 52.2584C111.362 50.8819 110.74 49.7254 109.87 48.1109C111.3 48.9168 112.39 49.5283 113.79 50.3164C114.238 48.904 114.632 47.6657 115.184 45.9258C115.696 47.6273 116.08 48.9015 116.558 50.4955C117.902 49.6025 118.989 48.8759 120.079 48.1518C120.179 48.2234 120.279 48.2976 120.378 48.3693C119.708 49.5386 119.035 50.7079 118.191 52.1791C119.731 52.5961 120.987 52.9364 122.712 53.4021C120.992 53.9087 119.754 54.2721 118.191 54.7326C118.976 56.1399 119.618 57.2887 120.483 58.8392C118.953 58.1151 117.74 57.5394 116.369 56.8921L116.379 56.8947Z" fill="var(--fill-0, #2B1A12)"/>
<path id="Vector_3" d="M124.257 44.7655C123.392 44.4406 122.471 44.2333 121.663 43.806C117.08 41.3728 112.528 38.8755 107.951 36.4346C107.296 36.0866 106.549 35.9101 105.728 35.6133C105.49 36.0713 105.349 36.2146 105.349 36.3604C105.349 43.0871 105.326 49.8137 105.377 56.5378C105.41 60.7928 105.638 65.0478 105.628 69.3054C105.612 76.7971 105.495 84.2914 105.382 91.783C105.367 92.85 105.761 93.5178 106.674 94.05C111.748 97.0027 116.799 99.9988 121.867 102.959C122.185 103.146 122.597 103.166 123.019 103.279C123.226 98.7297 123.423 94.357 123.62 90.0355C123.62 90.0355 123.955 82.5719 124.027 80.8679C124.255 75.3387 124.449 69.8044 124.754 64.2777C125.068 58.5847 125.442 52.8918 125.91 47.209C126.028 45.7787 125.375 45.1877 124.257 44.7655ZM118.196 54.7391C118.981 56.1463 119.624 57.2952 120.488 58.8457C118.958 58.1216 117.746 57.5459 116.374 56.8986C115.983 58.3493 115.64 59.6082 115.154 61.4069C114.685 59.58 114.358 58.2982 113.933 56.6325C112.621 57.3924 111.518 58.0321 109.862 58.989C110.755 57.3898 111.349 56.328 112.117 54.954C110.74 54.4832 109.519 54.0636 107.905 53.5109C109.42 53.0606 110.599 52.7075 112.099 52.2623C111.357 50.8858 110.735 49.7293 109.865 48.1148C111.295 48.9208 112.385 49.5323 113.785 50.3203C114.232 48.908 114.627 47.6696 115.179 45.9297C115.691 47.6312 116.075 48.9054 116.553 50.4994C117.896 49.6065 118.984 48.8798 120.074 48.1557C120.174 48.2274 120.273 48.3016 120.373 48.3732C119.703 49.5425 119.03 50.7118 118.186 52.183C119.726 52.6001 120.982 52.9404 122.707 53.406C120.987 53.9127 119.749 54.276 118.186 54.7365L118.196 54.7391Z" fill="var(--fill-0, #FFFE7C)"/>
<path id="Vector_4" d="M84.3008 43.9896C85.6185 62.9184 86.9311 81.7423 88.2641 100.899C93.6961 98.2787 98.9362 95.7508 103.943 93.3354C103.943 87.622 103.966 48.7282 103.966 35.5742C97.4189 38.3759 90.9532 41.1418 84.3008 43.987V43.9896Z" fill="var(--fill-0, #FFFE7C)"/>
<path id="Vector_5" d="M135.139 62.9776C136.147 63.126 137.15 63.3307 138.148 63.5379C139.783 63.8782 141.413 64.2441 143.024 64.5946C143.961 60.9819 145.865 37.3554 145.373 35.375C139.22 39.0262 133.107 42.6492 127.117 46.2032V58.4002L124.769 92.2714C124.664 93.6301 124.467 94.9887 124.436 96.3473C124.38 98.7601 124.421 101.175 124.421 103.657C129.978 101.117 135.441 98.6169 140.888 96.1273C141.111 91.7571 141.331 87.4433 141.551 83.1243C140.76 82.8966 140.192 82.7354 139.627 82.5691C137.667 82.0011 135.671 81.5251 133.755 80.8369C131.966 80.1947 131.326 79.1763 131.79 78.0838C132.393 76.6586 133.604 77.1141 134.663 77.2829C136.021 77.5004 137.365 77.7998 138.716 78.0633C136.804 77.045 134.77 76.5281 132.782 75.8757C131.022 75.3 130.446 74.5477 130.643 73.4603C130.835 72.4138 131.656 72.094 133.616 72.4164C135.456 72.7183 137.283 73.0919 139.115 73.4347C137.516 72.529 135.794 72.1119 134.131 71.5311C133.192 71.2036 132.204 70.761 131.498 70.0932C130.416 69.0697 130.94 67.6573 132.429 67.5575C133.596 67.4808 134.791 67.7239 135.963 67.9004C137.234 68.0897 138.493 68.3686 139.757 68.6066C139.304 67.9772 138.764 67.7674 138.209 67.5959C136.909 67.1917 135.592 66.836 134.302 66.3985C133.312 66.0633 132.688 65.375 132.964 64.2595C133.238 63.1541 134.092 62.8189 135.136 62.9725L135.139 62.9776Z" fill="var(--fill-0, #FFFE7C)"/>
<path id="Vector_6" d="M86.436 89.6803C85.6556 85.3741 85.5302 81.0526 85.2181 76.7361C84.4377 65.9515 83.8441 55.1515 83.1712 44.2824C77.2607 41.5088 71.2991 38.7122 65.0586 35.7852C65.9464 45.5003 66.8113 54.9391 67.694 64.5954C69.9789 64.1528 72.1332 63.7178 74.2953 63.3238C75.2113 63.1575 76.181 62.8683 77.0535 63.0295C77.6317 63.137 78.3302 63.8713 78.5017 64.4624C78.6296 64.8999 78.1332 65.798 77.6701 66.0692C76.8104 66.5732 75.7716 66.783 74.8019 67.0926C73.6582 67.4585 72.5042 67.7988 71.3554 68.1494L71.4987 68.6534C72.9008 68.3771 74.2978 68.0572 75.7102 67.8372C76.7951 67.6683 77.9157 67.4662 78.9955 67.566C80.5076 67.7042 81.0168 69.073 79.9089 70.1042C79.1413 70.8206 78.0693 71.2914 77.0535 71.6368C75.4057 72.1997 73.6914 72.5681 72.0079 73.0184C72.0488 73.1796 72.0897 73.3383 72.1307 73.4995C72.4275 73.4304 72.7192 73.3459 73.0185 73.2922C74.8582 72.9545 76.6902 72.5707 78.5375 72.3148C79.497 72.1818 80.4897 72.3404 80.7021 73.5634C80.8966 74.6841 80.2057 75.3442 79.2667 75.6948C78.3123 76.0504 77.3119 76.2833 76.3243 76.5442C75.004 76.8897 73.6786 77.212 72.3533 77.5421C72.4044 77.7417 72.4556 77.9438 72.5068 78.1434C74.1418 77.8108 75.7844 77.5037 77.4117 77.1327C78.4326 76.8999 79.3256 76.9357 79.717 78.0692C80.088 79.1489 79.5098 79.9268 78.6066 80.3643C77.5396 80.8811 76.4138 81.2956 75.2804 81.6487C73.5174 82.1988 71.7238 82.6568 69.8867 83.1711C70.0914 86.1724 70.3678 88.9639 70.442 91.7605C70.488 93.4389 71.0919 94.2961 72.7294 94.9076C75.9098 96.0948 78.9648 97.6146 82.0786 98.9784C83.5934 99.6411 85.126 100.268 87.0117 101.066C86.8403 96.957 87.0782 93.2393 86.4334 89.6828L86.436 89.6803Z" fill="var(--fill-0, #FFFE7C)"/>
<g id="Group">
<path id="Vector_7" d="M72.4473 50.5906C72.2554 50.5906 72.0635 50.5189 71.9151 50.3756C71.4366 49.9151 70.9377 49.4545 70.4336 49.0068C70.1163 48.7253 70.0882 48.2392 70.3696 47.9219C70.6511 47.6046 71.1372 47.5765 71.4545 47.8579C71.9739 48.3185 72.4856 48.7944 72.9795 49.2677C73.2839 49.562 73.2942 50.0481 72.9999 50.3526C72.849 50.5087 72.6468 50.588 72.4473 50.588V50.5906Z" fill="var(--fill-0, #2B1A12)"/>
<path id="Vector_8" d="M132.074 89.9911C130.854 89.9911 129.613 89.858 128.382 89.5971C127.967 89.5101 127.701 89.1007 127.791 88.6862C127.878 88.2717 128.287 88.0081 128.702 88.0951C129.95 88.3612 131.207 88.4815 132.445 88.4508C132.87 88.4457 133.22 88.7757 133.231 89.2005C133.241 89.6252 132.906 89.9757 132.481 89.986C132.345 89.9885 132.21 89.9911 132.074 89.9911ZM124.802 88.374C124.695 88.374 124.585 88.351 124.48 88.3024C123.188 87.7062 122.008 86.9745 120.97 86.1301C120.64 85.8614 120.591 85.3779 120.86 85.0504C121.128 84.7203 121.612 84.6717 121.939 84.9403C122.878 85.7028 123.95 86.3655 125.125 86.9079C125.509 87.0845 125.677 87.5425 125.501 87.9263C125.37 88.2077 125.094 88.3715 124.802 88.3715V88.374ZM90.5167 83.7122C89.2169 83.702 88.5338 82.3945 88.0374 81.1152C87.8839 80.7211 88.0783 80.2759 88.4749 80.1224C88.8689 79.9689 89.3141 80.1634 89.4677 80.56C90.051 82.0593 90.4169 82.177 90.5142 82.177C90.5397 82.177 90.6318 82.177 90.7982 81.9877C91.077 81.6678 91.5606 81.6346 91.8805 81.9135C92.2003 82.1924 92.2336 82.6759 91.9547 82.9958C91.5402 83.4717 91.0566 83.7122 90.5142 83.7122H90.5167ZM118.836 83.3847C118.58 83.3847 118.329 83.2568 118.183 83.0239C117.48 81.893 116.983 80.6649 116.625 79.1553C116.528 78.7433 116.781 78.3288 117.193 78.2316C117.605 78.1344 118.019 78.3877 118.117 78.7996C118.437 80.1429 118.872 81.2278 119.486 82.2128C119.711 82.5736 119.601 83.0469 119.24 83.2695C119.115 83.3489 118.974 83.3847 118.836 83.3847ZM92.8886 79.6337C92.8144 79.6337 92.7402 79.6235 92.6634 79.6005C92.2591 79.4776 92.0289 79.0478 92.1542 78.6435L92.3026 78.1548C92.6097 77.1416 92.9576 75.9953 93.3773 74.8414C93.5231 74.4422 93.9632 74.2376 94.3623 74.3834C94.7615 74.5292 94.9662 74.9693 94.8203 75.3685C94.4161 76.4815 94.0732 77.6073 93.7713 78.6L93.6229 79.0913C93.5231 79.4214 93.2186 79.6363 92.8886 79.6363V79.6337ZM87.5615 77.8427C87.2289 77.8427 86.9218 77.6252 86.8246 77.2875L86.753 77.0418C86.4459 75.9851 86.1005 74.7851 85.7039 73.5186C85.576 73.1143 85.8037 72.6845 86.208 72.5565C86.6122 72.4286 87.0421 72.6563 87.17 73.0606C87.5717 74.3425 87.9197 75.5501 88.2293 76.6171L88.3009 76.8627C88.4186 77.2695 88.1832 77.6943 87.7764 77.8145C87.7048 77.835 87.6331 77.8452 87.5615 77.8452V77.8427ZM116.671 75.8623C116.308 75.8623 115.985 75.6039 115.916 75.2329C115.719 74.148 115.43 72.884 114.801 71.725C114.599 71.3514 114.737 70.8857 115.108 70.6836C115.481 70.4815 115.947 70.6196 116.149 70.9906C116.883 72.3416 117.206 73.754 117.426 74.9565C117.503 75.3736 117.226 75.7727 116.809 75.8495C116.763 75.8572 116.717 75.8623 116.671 75.8623ZM95.7338 72.2828C95.6033 72.2828 95.4702 72.2495 95.35 72.1779C94.9841 71.9655 94.8587 71.4947 95.0711 71.1288C95.8387 69.806 96.6933 68.7416 97.6783 67.8717C97.9956 67.5902 98.4817 67.6209 98.7606 67.9407C99.0421 68.258 99.0114 68.7442 98.6916 69.0231C97.8319 69.783 97.0796 70.722 96.3965 71.9015C96.2532 72.1472 95.9973 72.2828 95.7312 72.2828H95.7338ZM85.1692 70.3203C84.857 70.3203 84.5628 70.1284 84.4502 69.8188C83.9896 68.5702 83.4984 67.3548 82.9866 66.206C82.8152 65.8196 82.9892 65.3642 83.3781 65.1928C83.7645 65.0213 84.2199 65.1953 84.3913 65.5842C84.9133 66.7638 85.4199 68.0098 85.8907 69.2892C86.0365 69.6857 85.8344 70.1284 85.4353 70.2742C85.3483 70.3075 85.2587 70.3228 85.1692 70.3228V70.3203ZM112.877 69.2124C112.718 69.2124 112.559 69.1638 112.424 69.064C111.467 68.3629 110.359 67.8077 109.131 67.4086C108.727 67.2781 108.506 66.8457 108.637 66.4414C108.767 66.0371 109.2 65.8171 109.604 65.9476C110.988 66.3953 112.245 67.0273 113.332 67.8231C113.675 68.0738 113.749 68.5548 113.498 68.8951C113.347 69.0998 113.115 69.2098 112.879 69.2098L112.877 69.2124ZM101.596 67.2934C101.271 67.2934 100.966 67.0836 100.864 66.7561C100.736 66.3518 100.961 65.9194 101.365 65.7941C102.647 65.3898 104.054 65.203 105.51 65.2439C105.935 65.2567 106.268 65.6098 106.257 66.032C106.245 66.4567 105.894 66.7791 105.469 66.7791C104.185 66.7433 102.947 66.9071 101.828 67.2602C101.752 67.2832 101.675 67.296 101.598 67.296L101.596 67.2934ZM81.9581 63.1152C81.6843 63.1152 81.4182 62.9668 81.28 62.7083C80.8195 61.8461 80.3308 60.9941 79.8293 60.1753C79.6604 59.899 79.489 59.6252 79.315 59.3565C79.0873 59.0009 79.1896 58.525 79.5478 58.2973C79.9035 58.067 80.3794 58.1719 80.6071 58.5301C80.7837 58.8064 80.9602 59.0879 81.1367 59.3744C81.6536 60.2188 82.1576 61.0964 82.6335 61.9868C82.8331 62.3604 82.6924 62.826 82.3188 63.0256C82.2037 63.087 82.0809 63.1152 81.9581 63.1152ZM77.7031 56.4781C77.4702 56.4781 77.2425 56.3732 77.0915 56.1761C76.3137 55.1527 75.4822 54.1446 74.6199 53.1774C74.3384 52.8601 74.3666 52.3766 74.6813 52.0926C74.9986 51.8111 75.4822 51.8392 75.7662 52.154C76.654 53.1493 77.5112 54.1906 78.3146 55.2448C78.5704 55.5825 78.5065 56.0636 78.1687 56.3194C78.0306 56.4243 77.8668 56.4755 77.7056 56.4755L77.7031 56.4781Z" fill="var(--fill-0, #2B1A12)"/>
<path id="Vector_9" d="M136.408 89.3654C136.078 89.3654 135.773 89.1505 135.674 88.8179C135.551 88.4111 135.781 87.9838 136.188 87.861C136.802 87.6767 137.414 87.4465 138.005 87.1778C138.391 87.0038 138.846 87.1727 139.02 87.559C139.197 87.9454 139.025 88.4008 138.639 88.5748C137.984 88.8716 137.309 89.1275 136.628 89.3296C136.554 89.3526 136.48 89.3629 136.408 89.3629V89.3654Z" fill="var(--fill-0, #2B1A12)"/>
</g>
</g>
</g>
</g>
</svg>
