<svg preserveAspectRatio="none" width="100%" height="100%" overflow="visible" style="display: block;" viewBox="0 0 143.635 110.407" fill="none" xmlns="http://www.w3.org/2000/svg">
<g id="Group">
<path id="Vector" d="M52.3125 67.8369C65.1121 63.7579 77.9444 63.7933 90.7656 67.751C92.1268 68.1706 93.4256 69.0272 94.7129 69.9395C95.438 70.4532 95.7684 71.229 95.5322 72.2881V72.2891C95.0365 74.5133 95.5321 76.6757 95.9814 78.6504C96.1004 79.1739 96.1662 79.533 96.1807 79.7969C96.1947 80.0538 96.1544 80.1383 96.1377 80.166C96.1215 80.1927 96.0671 80.2667 95.8359 80.3711C95.6578 80.4515 95.4195 80.5302 95.0947 80.6211L94.7402 80.7168C92.7782 81.2242 90.8135 81.6392 88.8096 82.1104C88.1912 82.2548 87.5121 82.4014 86.8574 82.6035H86.8564C85.2346 83.1076 84.0329 83.6878 83.334 84.7402C82.6842 85.719 82.5631 86.9695 82.6572 88.5605C81.5081 89.6623 80.7547 90.6887 80.6553 91.7988C80.5525 92.9485 81.1643 93.9488 82.1064 94.9434C82.0916 95.4789 82.0419 95.9564 82.0176 96.5342C81.9916 97.1526 82.0056 97.8284 82.2412 98.4639V98.4648C82.4706 99.0823 82.9232 99.5634 83.3604 99.9736C83.7775 100.365 84.1638 100.684 84.5781 101.091C84.5788 101.122 84.5814 101.156 84.582 101.193C84.5847 101.349 84.5873 101.544 84.5996 101.751C84.6238 102.159 84.687 102.673 84.8906 103.159C85.0953 103.648 85.4193 104.054 85.7275 104.399C85.9467 104.645 86.1344 104.84 86.3193 105.041C85.0476 107.294 83.0666 108.562 80.2363 109.017C74.2068 109.986 68.2399 109.906 62.2451 108.777C60.0415 108.362 58.5889 107.115 57.3779 105.094C57.9932 104.657 58.4937 104.12 58.8125 103.474C59.1809 102.727 59.2803 101.888 59.0947 100.995C59.4259 100.681 59.7553 100.407 60.1348 100.049C60.5762 99.632 61.0352 99.1405 61.3057 98.5225C61.5696 97.9195 61.5793 97.258 61.5508 96.6475C61.5244 96.0816 61.4702 95.5663 61.4541 94.9609C61.7204 94.7328 62.0803 94.4031 62.3584 93.9971C62.7702 93.3958 63.042 92.5831 62.7402 91.5938L62.7393 91.5928C62.5453 90.9585 62.2417 90.3774 61.9121 89.8057C61.603 89.2694 61.289 88.7674 60.9561 88.167C61.1266 86.8398 61.0395 85.6817 60.3926 84.7266C59.7984 83.8495 58.8164 83.2661 57.4902 82.8213L56.9004 82.6387L55.9727 82.3828C53.7992 81.808 51.5713 81.3682 49.4424 80.8623C48.8295 80.7165 48.2317 80.5477 47.4863 80.3438C47.5127 79.8129 47.5312 79.3682 47.6143 78.8994C48.0021 76.7224 48.5103 74.3757 48.0137 71.9199V71.9189L47.9863 71.7432C47.8921 70.8716 48.4261 70.1038 49.2852 69.459H49.2861C50.2076 68.7664 51.2568 68.1754 52.3135 67.8379L52.3125 67.8369Z" fill="var(--fill-0, #FFFE7C)" stroke="var(--stroke-0, #2B1A12)" stroke-width="1.43635"/>
<path id="Vector_2" d="M83.4002 88.8449C80.8248 91.2234 80.7526 92.5756 82.8313 94.6631C82.8313 95.9891 82.5468 97.2232 82.9144 98.2144C83.2492 99.1159 84.2907 99.7526 85.2841 100.779C85.3279 101.206 85.2382 102.129 85.5533 102.882C85.8684 103.634 86.5883 104.216 87.1878 104.941C85.8137 107.691 83.5512 109.212 80.3499 109.726C74.2385 110.709 68.1884 110.628 62.112 109.483C59.4184 108.976 57.7533 107.332 56.4119 104.851C58.0311 103.969 58.8473 102.571 58.2981 100.772C59.169 99.8752 60.228 99.1947 60.6481 98.2341C61.0332 97.3545 60.7291 96.1707 60.7291 94.6346C61.2805 94.1576 62.5015 93.2736 62.0529 91.8032C61.7138 90.6938 60.9698 89.707 60.2149 88.311C60.6263 85.5649 59.8626 84.2345 56.7029 83.3286C54.2588 82.6284 51.7534 82.1492 49.2765 81.5606C48.5041 81.3768 47.7404 81.1536 46.7383 80.8845C46.793 80.1515 46.7864 79.4513 46.9068 78.773C47.3028 76.5498 47.7733 74.3552 47.3094 72.062C47.0337 70.7032 47.863 69.6288 48.8542 68.8849C49.8235 68.1562 50.9438 67.5217 52.0948 67.1541C65.0375 63.0295 78.0196 63.0645 90.9776 67.0644C92.4612 67.5217 93.8441 68.4429 95.1285 69.3531C96.1044 70.0446 96.5289 71.1211 96.2335 72.4449C95.7784 74.4865 96.2269 76.4908 96.6821 78.4907C97.1591 80.5891 96.9796 80.8779 94.9206 81.4118C92.9491 81.9217 90.9558 82.344 88.9733 82.81C88.3366 82.9588 87.6933 83.0967 87.0696 83.2892C83.8662 84.2848 83.1332 85.3701 83.3936 88.8427L83.4002 88.8449ZM91.6669 74.237C91.5969 74.0379 91.529 73.841 91.459 73.6418C90.7544 73.8606 90.0389 74.0598 89.3431 74.3048C87.0893 75.1035 84.9012 76.2216 82.5818 76.6789C72.8906 78.5892 63.3548 78.1318 54.1451 74.202C53.5324 73.9416 52.8694 73.8016 52.2305 73.6046C52.1429 73.7687 52.0554 73.9329 51.9679 74.097C52.5434 74.5937 53.0488 75.2348 53.7096 75.5564C55.2697 76.3179 56.8693 77.0356 58.5147 77.5783C65.0681 79.7358 71.8338 79.762 78.5951 79.215C82.2164 78.9218 85.7699 78.0531 89.0433 76.342C90.0564 75.8125 91.098 75.2982 91.6669 74.237ZM82.0217 83.659C82.0085 83.4533 81.9954 83.2477 81.9823 83.0398C81.6562 83.0026 81.2974 82.8538 81.0086 82.9435C77.1378 84.1295 73.2014 84.3614 69.1993 83.88C68.9608 83.8516 68.6807 84.1536 68.4203 84.3023C73.1226 85.6327 77.6454 85.5736 82.0217 83.659ZM71.755 103.501C74.4026 104.744 76.9496 104.024 79.4878 103.352C80.0436 103.205 80.7482 103.081 80.746 102.164C77.6804 102.619 74.7177 103.059 71.755 103.501ZM71.9629 88.9565C74.2517 90.3722 78.6913 89.7967 79.7657 88.0637C77.1969 88.3569 74.7199 88.6414 71.9629 88.9565ZM74.7024 93.9235C74.7265 94.1117 74.7484 94.2977 74.7724 94.4858C76.024 94.7769 77.1794 94.6981 77.9999 93.2824C76.9015 93.4968 75.803 93.7091 74.7024 93.9235ZM76.1509 99.2187C76.1728 99.4288 76.1969 99.6367 76.2188 99.8467C77.4638 99.8883 78.6979 99.897 79.5272 98.4332C78.4025 98.6958 77.2756 98.9562 76.1509 99.2187Z" fill="var(--fill-0, #2B1A12)"/>
<path id="Vector_3" d="M143.372 61.2971C142.783 56.2404 141.354 51.4593 139.166 46.9124C136.422 41.2124 132.129 36.7311 127.219 32.891C116.138 24.2304 103.504 19.7798 89.4412 19.4144C88.7388 19.3969 88.0364 19.3268 87.2793 19.2787C87.1984 18.7667 87.124 18.4166 87.089 18.0643C86.8723 15.8193 86.7564 13.5611 86.4303 11.3336C85.8439 7.30095 84.0037 3.99908 80.2708 2.07353C74.3541 -0.976703 68.4396 -0.536883 62.7221 2.57462C60.4399 3.81747 58.9279 5.87429 58.0111 8.39282C57.0417 11.0514 56.8558 13.7865 56.7332 16.5523C56.6982 17.3313 56.6391 18.1102 56.591 18.8848C56.1074 18.9877 55.8295 19.0599 55.5472 19.1037C50.8778 19.8192 46.158 20.3071 41.5455 21.2896C29.6574 23.8234 19.2661 29.2718 10.774 38.0571C8.91412 39.9805 7.11329 42.0986 5.84199 44.4311C0.745867 53.7853 -1.52321 63.6012 1.09597 74.2902C2.9865 82.0055 6.97106 88.2241 13.3078 92.8432C17.5506 95.9372 22.2835 98.2216 27.3271 99.8123C33.0337 101.613 38.8607 102.944 44.7883 103.613C48.158 103.994 51.6152 103.777 55.0199 103.609C56.6501 103.528 57.2999 102.694 57.103 101.655C56.8426 100.287 55.7157 100.674 54.8252 100.618C54.6086 100.602 54.3876 100.637 54.1709 100.618C51.7815 100.41 49.3899 100.213 47.0049 99.9633C46.6766 99.9283 46.379 99.6198 45.6482 99.1931C47.3156 99.1931 48.4621 99.1647 49.6065 99.1997C51.6437 99.2588 53.6786 99.4163 55.7157 99.4097C56.6435 99.4054 57.5975 99.1931 58.4903 98.9152C59.3283 98.657 59.7922 97.9459 59.7069 97.0509C59.6215 96.1385 58.9913 95.6265 58.1161 95.5149C57.4706 95.4339 56.8076 95.5215 56.1556 95.4821C53.3985 95.3202 50.6371 95.1845 47.8866 94.9329C47.2171 94.8716 46.2653 94.9788 45.913 93.7797C46.913 93.8257 47.7751 93.8694 48.6394 93.9022C51.5474 94.0138 54.4554 94.1473 57.3634 94.2151C58.0767 94.2327 58.8863 94.2064 59.4859 93.8869C60.0504 93.585 60.6893 92.9045 60.7506 92.3312C60.8097 91.771 60.3261 90.8739 59.8206 90.5982C59.0417 90.1737 58.0395 89.9811 57.138 89.9965C53.6261 90.0512 50.1579 89.7426 46.7248 89.0315C46.2893 88.9418 45.8801 88.7142 45.4578 88.5501C45.4732 88.4013 45.4885 88.2525 45.5038 88.1037C46.0246 88.0578 46.5519 87.9309 47.0617 87.9834C49.1602 88.1978 51.252 88.502 53.3504 88.7055C54.5057 88.8171 55.6807 88.8783 56.8382 88.8039C57.7944 88.7427 58.7704 88.4516 58.9323 87.2657C59.0811 86.1694 58.4815 85.4408 57.5166 85.0644C56.5713 84.6968 55.5954 84.3949 54.6108 84.1476C51.7903 83.4387 48.9566 82.7801 46.1362 82.0755C45.6001 81.942 45.0946 81.686 44.506 81.4606C44.8802 80.1849 45.2412 79.0865 45.5213 77.9684C45.9633 76.1982 46.3484 74.4127 45.8626 72.579C45.5235 71.2968 44.5542 70.404 43.4776 70.3712C42.4273 70.3406 41.7468 70.9795 41.2042 72.3493C40.6177 73.8328 40.0948 75.3645 39.3005 76.7365C38.0948 78.8217 36.0008 79.5066 33.8521 78.4782C28.3205 75.8328 24.2856 70.5879 25.0405 63.75C25.6182 58.5226 28.1936 54.2645 32.4845 51.1574C35.5282 48.9539 38.957 47.5514 42.6046 46.6914C43.0575 46.5842 43.5476 46.6236 44.1319 46.5886C44.1319 48.6476 44.075 50.5316 44.1472 52.4112C44.2216 54.3017 44.4272 56.1857 44.576 58.074C44.7292 60.0346 44.762 62.0126 45.0662 63.9469C45.3463 65.7193 44.9743 67.6339 45.948 69.6492C49.0179 65.9447 53.0484 64.925 57.0943 64.0235C66.7592 61.8682 76.4503 61.9251 86.1328 63.9272C90.2311 64.774 94.1719 65.9994 97.1609 69.1984C97.2331 69.275 97.4344 69.229 97.581 69.2422C97.7013 69.1765 97.9289 69.1153 97.9355 69.0387C98.5569 61.7457 99.1608 54.4505 99.7735 47.0634C100.592 47.186 101.39 47.245 102.161 47.4288C109.397 49.1553 114.957 52.9976 117.624 60.1943C120.23 67.2291 117.033 74.8547 110.423 78.1281C107.384 79.6335 105.478 78.7627 103.828 76.0932C103.113 74.9378 102.679 73.5834 102.27 72.2705C101.938 71.2027 101.537 70.3603 100.272 70.3428C99.0536 70.3253 98.058 70.9927 97.7648 72.3559C97.5263 73.4652 97.4322 74.684 97.6247 75.7934C97.9442 77.638 98.5438 79.4344 99.0733 81.4343C98.3775 81.6816 97.7254 81.977 97.0427 82.1499C94.2922 82.8391 91.5221 83.4584 88.7782 84.1695C87.7301 84.4408 86.6907 84.8128 85.7148 85.2767C84.8461 85.6902 84.5004 86.4955 84.6755 87.4735C84.833 88.3597 85.5376 88.6639 86.264 88.7252C87.4172 88.8214 88.5944 88.8455 89.7453 88.7383C91.9903 88.5282 94.2244 88.1913 96.465 87.9353C96.9792 87.8762 97.5066 87.9265 98.0295 87.9265C98.0536 88.1387 98.0777 88.351 98.1018 88.5632C97.721 88.7142 97.3512 88.9265 96.9552 89.003C93.4432 89.6792 89.9029 90.1059 86.3187 89.9243C85.1678 89.8652 84.1372 90.0468 83.2992 90.8673C82.2948 91.8498 82.4348 93.1058 83.6996 93.7294C84.3254 94.0379 85.0934 94.202 85.7936 94.1955C88.5572 94.1648 91.3208 94.0467 94.0844 93.9526C95.2594 93.9132 96.4344 93.8497 98.0646 93.7775C97.0755 94.9263 96.1521 94.9307 95.3622 94.9897C92.5352 95.202 89.6994 95.3026 86.868 95.4471C86.3603 95.4733 85.7498 95.3333 85.3713 95.5696C84.8089 95.9175 84.2203 96.4601 83.9928 97.0531C83.7083 97.7883 84.1547 98.5542 84.9096 98.8102C85.8592 99.1297 86.8767 99.4163 87.8636 99.4119C90.2639 99.401 92.6621 99.2062 95.0625 99.1056C95.8064 99.0749 96.5526 99.1012 97.2987 99.1012C97.3206 99.3091 97.3425 99.5169 97.3643 99.7248C96.4344 99.9196 95.511 100.224 94.5723 100.289C92.4696 100.438 90.358 100.484 88.2487 100.537C87.3844 100.559 86.6141 100.642 86.4938 101.716C86.3866 102.674 86.8877 103.263 87.7563 103.484C88.5244 103.681 89.323 103.814 90.1151 103.856C94.2769 104.07 98.3862 103.725 102.498 102.987C111.712 101.333 120.733 99.2566 128.689 93.9154C132.877 91.1036 136.479 87.7777 138.965 83.3905C142.851 76.533 144.284 69.17 143.367 61.3015L143.372 61.2971Z" fill="var(--fill-0, #2B1A12)"/>
</g>
</svg>
