<svg preserveAspectRatio="none" width="100%" height="100%" overflow="visible" style="display: block;" viewBox="0 0 65.4136 97.5756" fill="none" xmlns="http://www.w3.org/2000/svg">
<g id="Group 1430103255">
<g id="Group 1430103339">
<path id="Vector" d="M58.842 76.5618C58.8289 76.5968 58.8202 76.6274 58.807 76.6624C58.1156 78.2204 57.2578 80.7936 56.4526 82.264C54.9822 84.9467 52.6365 86.5221 49.6519 87.1216C49.0611 87.2398 48.4222 87.1041 47.8139 87.161C40.7375 87.8 34.2038 85.7081 27.7532 83.2005C26.6329 82.7629 25.4819 82.3909 24.401 81.8701C22.6067 81.0037 20.7994 80.8899 18.8826 81.3756C17.8016 81.6513 16.6944 81.8133 15.6004 82.0277C13.758 82.3865 11.8631 82.3559 10.0426 81.9008C6.86977 81.1087 4.0471 79.7914 1.97276 77.1219C1.57452 76.6099 1.05375 76.1898 0.585489 75.7259C0.112854 75.2576 -0.250376 74.7413 0.217882 74.0979C0.708022 73.4284 1.39947 73.2008 2.13905 73.6341C2.98367 74.133 3.83704 74.6537 4.57662 75.2927C7.42993 77.7652 10.5502 77.2707 13.723 76.1898C13.7667 76.1767 13.8105 76.1548 13.8499 76.1329C14.3356 75.8528 14.2612 75.1001 13.7449 74.8813C13.6661 74.8507 13.5873 74.82 13.5085 74.8025C12.3007 74.5312 11.071 74.3649 9.85875 74.1067C8.71217 73.866 8.2089 73.2402 8.34019 72.3343C8.47148 71.4416 9.12791 71.0477 10.3445 71.179C12.4845 71.4022 14.607 71.5641 16.7601 71.1177C18.4143 70.772 20.0379 71.1396 21.4645 72.098C22.3529 72.6932 23.2982 72.877 24.3572 72.8507C30.3352 72.715 36.3175 72.6232 42.2955 72.5137C43.6302 72.4875 43.7265 72.4131 43.6609 71.0565C43.3633 64.6846 43.0526 58.3085 42.7375 51.9366C42.7243 51.6478 42.7025 51.324 42.558 51.0964C42.4224 50.8864 42.1073 50.6544 41.8928 50.6719C41.6784 50.6894 41.3721 50.9695 41.3108 51.1927C41.2058 51.5647 41.2408 51.9848 41.2583 52.383C41.5384 58.1378 41.8272 63.8925 42.1073 69.6473C42.116 69.8705 42.1204 70.0937 42.116 70.33C42.116 70.7195 41.7966 71.039 41.4115 71.0433C35.683 71.1571 30.0245 71.2709 24.3047 71.389C23.9196 71.3978 23.5958 71.1002 23.5695 70.7151C23.5651 70.6276 23.5608 70.5444 23.5651 70.4569C23.8496 63.7219 23.7358 56.965 25.0006 50.2956C26.0115 44.9478 28.2433 40.1733 31.6787 35.9896C32.7202 34.7249 33.1404 33.4908 32.9434 31.8803C32.8296 30.9482 32.4708 30.8169 32.4708 30.8169C32.4708 30.8169 32.217 30.6987 31.6568 30.7294C30.7115 30.7775 29.7619 30.8213 28.8123 30.8125C26.5454 30.7819 25.4601 29.736 25.3331 27.491C25.2412 25.8149 25.1012 24.1431 25.0968 22.467C25.0968 21.5043 24.6898 21.211 23.8146 21.1323C23.0706 21.0623 22.331 20.9222 21.5171 20.7734C21.0357 20.6859 20.7819 20.1476 21.0138 19.7187C21.8453 18.2002 22.633 16.826 23.2938 15.3906C24.1384 13.5526 25.0312 11.6883 25.5169 9.73654C27.0092 3.76734 31.1579 0.183199 37.3503 0.00814887C39.2934 -0.044366 41.3021 0.156941 43.1882 0.61207C48.7023 1.94682 51.56 6.33182 52.4046 11.9553C53.0785 16.4584 54.2776 25.9155 57.1047 30.7556C59.8617 36.1384 73.2749 42.3833 58.8202 76.553L58.842 76.5618Z" fill="var(--fill-0, #2B1A12)"/>
</g>
<path id="Vector_2" d="M58.5519 97.5274C57.8955 97.5449 57.2434 97.5756 56.587 97.5756C45.8389 97.5756 35.0865 97.5624 24.3384 97.5581C23.9752 97.5581 23.6164 97.5581 23.1875 97.5581V83.0027C24.6448 83.5628 25.9533 84.0749 27.2662 84.565C32.045 86.3549 36.8326 88.101 41.9528 88.6743C44.5523 88.9631 47.143 89.1951 49.7557 88.648C53.2829 87.9128 55.9524 86.0442 57.8036 82.972C58.0443 82.5694 58.3025 82.1756 58.5519 81.7773V97.5318V97.5274Z" fill="var(--fill-0, #2B1A12)"/>
</g>
</svg>
