<svg width="228" height="90" viewBox="0 0 228 90" fill="none" xmlns="http://www.w3.org/2000/svg">
<path d="M0.241211 48.3057H16.4053C17.1184 54.3217 19.8711 65.8461 23.8506 76.1437C27.88 65.843 30.5797 54.3217 31.2959 48.3057H47.46C42.4623 58.0428 36.4463 76.8599 33.7964 88.3813H13.9111C11.2519 76.8568 5.23587 58.0428 0.241211 48.3057Z" fill="white"/>
<path d="M56.9919 46.8877C61.1739 46.8877 64.6894 48.7218 64.7424 52.9566C64.6925 57.1884 61.1739 59.0256 56.9919 59.0256C52.81 59.0256 49.1917 57.1884 49.2415 52.9566C49.1917 48.7249 52.81 46.8877 56.9919 46.8877ZM49.6992 61.0122H64.076C63.0577 68.0496 63.0577 81.2556 64.076 88.3428H49.6992C50.6178 81.2556 50.6178 68.0496 49.6992 61.0122Z" fill="white"/>
<path d="M81.9626 84.0468C82.1151 85.6286 82.3207 87.1575 82.7286 88.3813H68.3518C69.37 78.7438 69.37 57.8902 68.3518 48.3057H82.7286C81.8629 56.0561 81.6076 60.238 81.5048 64.8777C83.3918 61.767 87.6734 59.7803 92.1107 59.7803C100.727 59.7803 104.859 66.7149 104.859 74.6678C104.859 84.8657 98.435 89.4026 92.2664 89.4026C87.6267 89.4026 83.7001 87.4129 81.9657 84.0499L81.9626 84.0468ZM86.3998 81.6491C89.1027 81.6491 91.9581 79.9146 91.9581 74.6646C91.9581 69.4146 89.1027 67.5775 86.3998 67.5775C83.697 67.5775 80.8416 69.4146 80.8416 74.6646C80.8416 79.9146 83.697 81.6491 86.3998 81.6491Z" fill="white"/>
<path d="M107.579 76.0345C106.66 64.4104 115.024 59.7178 125.782 59.7178C133.125 59.7178 142.099 62.9313 142.099 69.3023C142.099 75.6733 135.115 78.2235 128.843 78.2235C126.091 78.2235 121.706 77.6631 119.819 75.6733L119.869 76.5389C120.022 80.5154 124.306 81.5367 127.567 81.5367C131.44 81.5367 134.296 80.0078 136.183 77.8655C137.712 79.4473 141.588 82.2 144.086 83.0656C139.396 88.5211 133.072 89.3868 127.922 89.3868C118.642 89.3868 109.005 86.7867 107.579 76.0283V76.0345ZM124.3 74.7609C127.003 74.7609 129.195 73.3348 129.195 70.6319C129.195 67.9291 127.003 66.45 124.3 66.45C121.597 66.45 119.405 67.9291 119.405 70.6319C119.405 73.3348 121.597 74.7609 124.3 74.7609Z" fill="white"/>
<path d="M0 0H14.3768C13.6108 6.57651 13.3585 18.5089 13.6637 28.4515C15.9088 28.6041 18.3034 28.657 20.7509 28.657C26.2562 28.657 31.7647 28.2989 35.028 27.6388C34.4146 31.6681 34.4146 36.0525 35.028 40.0787H0C1.01824 30.4382 1.01824 9.58451 0 0Z" fill="white"/>
<path d="M137.127 26.281C137.127 18.0199 143.398 11.4434 155.38 11.4434C162.315 11.4434 167.313 13.6355 170.321 17.1044C167.515 18.5305 164.099 20.7757 162.01 22.6097C160.991 20.6729 158.083 19.499 155.38 19.499C151.301 19.499 149.006 22.2018 149.006 26.281C149.006 30.3602 151.301 33.063 155.38 33.063C159.459 33.063 161.754 31.5839 163.283 29.3918C164.812 30.9736 168.842 33.7761 171.339 34.7445C168.434 38.6711 163.486 41.1186 155.38 41.1186C143.398 41.1186 137.127 34.5421 137.127 26.281Z" fill="white"/>
<path d="M172.936 31.7646C172.936 24.83 180.584 23.0956 186.142 23.0956C190.732 23.0956 195.063 24.2166 196.595 25.6459C196.546 24.7802 196.443 23.9114 196.29 23.0458C195.833 20.9564 190.122 20.3959 188.132 20.3959C185.124 20.3959 181.503 20.9564 177.679 22.3327C177.629 20.1405 176.455 15.3483 175.384 13.3087C179.36 12.0849 184.103 11.4746 188.792 11.4746H189.353C199.551 11.6272 209.341 14.9404 208.982 22.0275C208.677 28.2491 208.472 33.9599 209.44 40.0756H195.06C195.418 39.4123 195.724 38.5965 195.979 37.8834C194.195 39.923 190.115 41.0969 185.834 41.0969C179.563 41.0969 172.933 38.3941 172.933 31.7677L172.936 31.7646ZM191.392 35.8438C194.095 35.8438 196.95 34.6699 196.95 31.6619C196.95 28.6539 194.095 27.5329 191.392 27.5329C188.689 27.5329 185.834 28.6539 185.834 31.6619C185.834 34.6699 188.689 35.8438 191.392 35.8438Z" fill="white"/>
<path d="M213.026 0.0908203H227.403C226.282 9.67533 226.282 30.4791 227.403 40.1166H213.026C214.045 30.4791 214.045 9.67845 213.026 0.0908203Z" fill="white"/>
<path d="M113.439 11.8327C117.948 11.8327 121.619 15.5009 121.619 20.0098C121.619 24.5187 117.951 28.1868 113.439 28.1868H57.6911C53.1822 28.1868 49.5141 24.5187 49.5141 20.0098C49.5141 15.5009 53.1822 11.8327 57.6911 11.8327H113.439ZM113.439 0H57.6911C46.64 0 37.6782 8.96174 37.6782 20.0129C37.6782 31.064 46.6369 40.0227 57.688 40.0227H113.436C124.487 40.0227 133.449 31.064 133.449 20.0129C133.449 8.96174 124.49 0 113.439 0Z" fill="#88C2EE"/>
</svg>
