<svg width="228" height="90" viewBox="0 0 228 90" fill="none" xmlns="http://www.w3.org/2000/svg">
<path d="M0.241455 48.3057H16.4056C17.1187 54.3217 19.8713 65.8461 23.8509 76.1437C27.8802 65.843 30.58 54.3217 31.2962 48.3057H47.4603C42.4625 58.0428 36.4465 76.8599 33.7966 88.3813H13.9114C11.2521 76.8568 5.23611 58.0428 0.241455 48.3057Z" fill="black"/>
<path d="M56.9924 46.8877C61.1743 46.8877 64.6899 48.7218 64.7428 52.9566C64.693 57.1884 61.1743 59.0256 56.9924 59.0256C52.8105 59.0256 49.1921 57.1884 49.242 52.9566C49.1921 48.7249 52.8105 46.8877 56.9924 46.8877ZM49.6997 61.0122H64.0765C63.0582 68.0496 63.0582 81.2556 64.0765 88.3428H49.6997C50.6183 81.2556 50.6183 68.0496 49.6997 61.0122Z" fill="black"/>
<path d="M81.9633 84.0468C82.1159 85.6286 82.3214 87.1575 82.7293 88.3813H68.3525C69.3708 78.7438 69.3708 57.8902 68.3525 48.3057H82.7293C81.8636 56.0561 81.6083 60.238 81.5056 64.8777C83.3926 61.767 87.6741 59.7803 92.1114 59.7803C100.728 59.7803 104.86 66.7149 104.86 74.6678C104.86 84.8657 98.4357 89.4026 92.2671 89.4026C87.6274 89.4026 83.7008 87.4129 81.9664 84.0499L81.9633 84.0468ZM86.4006 81.6491C89.1034 81.6491 91.9588 79.9146 91.9588 74.6646C91.9588 69.4146 89.1034 67.5775 86.4006 67.5775C83.6977 67.5775 80.8423 69.4146 80.8423 74.6646C80.8423 79.9146 83.6977 81.6491 86.4006 81.6491Z" fill="black"/>
<path d="M107.579 76.0345C106.66 64.4104 115.024 59.7178 125.783 59.7178C133.125 59.7178 142.099 62.9313 142.099 69.3023C142.099 75.6733 135.115 78.2235 128.843 78.2235C126.091 78.2235 121.706 77.6631 119.819 75.6733L119.869 76.5389C120.022 80.5154 124.307 81.5367 127.567 81.5367C131.44 81.5367 134.296 80.0078 136.183 77.8655C137.712 79.4473 141.589 82.2 144.086 83.0656C139.396 88.5211 133.072 89.3868 127.922 89.3868C118.642 89.3868 109.005 86.7867 107.579 76.0283V76.0345ZM124.3 74.7609C127.003 74.7609 129.195 73.3348 129.195 70.6319C129.195 67.9291 127.003 66.45 124.3 66.45C121.597 66.45 119.405 67.9291 119.405 70.6319C119.405 73.3348 121.597 74.7609 124.3 74.7609Z" fill="black"/>
<path d="M0 0H14.3768C13.6108 6.57651 13.3585 18.5089 13.6637 28.4515C15.9088 28.6041 18.3034 28.657 20.7509 28.657C26.2562 28.657 31.7647 28.2989 35.028 27.6388C34.4146 31.6681 34.4146 36.0525 35.028 40.0787H0C1.01824 30.4382 1.01824 9.58451 0 0Z" fill="black"/>
<path d="M137.127 26.281C137.127 18.0199 143.398 11.4434 155.38 11.4434C162.315 11.4434 167.313 13.6355 170.321 17.1044C167.515 18.5305 164.099 20.7757 162.01 22.6097C160.991 20.6729 158.083 19.499 155.38 19.499C151.301 19.499 149.006 22.2018 149.006 26.281C149.006 30.3602 151.301 33.063 155.38 33.063C159.459 33.063 161.754 31.5839 163.283 29.3918C164.812 30.9736 168.842 33.7761 171.339 34.7445C168.434 38.6711 163.486 41.1186 155.38 41.1186C143.398 41.1186 137.127 34.5421 137.127 26.281Z" fill="black"/>
<path d="M172.936 31.7646C172.936 24.83 180.584 23.0956 186.142 23.0956C190.732 23.0956 195.063 24.2166 196.595 25.6459C196.545 24.7802 196.443 23.9114 196.29 23.0458C195.832 20.9564 190.121 20.3959 188.132 20.3959C185.124 20.3959 181.502 20.9564 177.678 22.3327C177.629 20.1405 176.455 15.3483 175.384 13.3087C179.36 12.0849 184.102 11.4746 188.792 11.4746H189.352C199.55 11.6272 209.34 14.9404 208.982 22.0275C208.677 28.2491 208.472 33.9599 209.44 40.0756H195.06C195.418 39.4123 195.723 38.5965 195.979 37.8834C194.194 39.923 190.115 41.0969 185.834 41.0969C179.562 41.0969 172.933 38.3941 172.933 31.7677L172.936 31.7646ZM191.392 35.8438C194.095 35.8438 196.95 34.6699 196.95 31.6619C196.95 28.6539 194.095 27.5329 191.392 27.5329C188.689 27.5329 185.834 28.6539 185.834 31.6619C185.834 34.6699 188.689 35.8438 191.392 35.8438Z" fill="black"/>
<path d="M213.027 0.0908203H227.404C226.283 9.67533 226.283 30.4791 227.404 40.1166H213.027C214.045 30.4791 214.045 9.67845 213.027 0.0908203Z" fill="black"/>
<path d="M113.439 11.8327C117.948 11.8327 121.619 15.5009 121.619 20.0098C121.619 24.5187 117.951 28.1868 113.439 28.1868H57.6909C53.182 28.1868 49.5138 24.5187 49.5138 20.0098C49.5138 15.5009 53.182 11.8327 57.6909 11.8327H113.439ZM113.439 0H57.6909C46.6397 0 37.678 8.96174 37.678 20.0129C37.678 31.064 46.6366 40.0227 57.6878 40.0227H113.436C124.487 40.0227 133.448 31.064 133.448 20.0129C133.448 8.96174 124.49 0 113.439 0Z" fill="#BE3FFF"/>
</svg>
