<svg width="333" height="295" viewBox="0 0 333 295" fill="none" xmlns="http://www.w3.org/2000/svg">
<g clip-path="url(#clip0_391_81)">
<path d="M4 281.124C10.3382 281.592 18.546 281.929 27.1565 281.997C27.1565 280.318 27.0251 278.644 26.758 277.234H44.0427C43.7756 278.644 43.6442 280.318 43.6442 281.997C52.3862 281.929 60.594 281.597 67 281.124V294H4V281.124ZM7.73506 253.36H48.0406V250.207H8.26925C8.80343 247.523 8.80343 240.684 8.26925 238H62.5866C61.8532 243.364 61.8532 254.029 62.5866 259.394H22.2853V262.815C27.0209 263.015 32.0278 263.152 37.0983 263.152C46.2388 263.152 55.515 262.815 63.2565 262.146C62.5908 265.431 62.5908 271.669 63.2565 275.022H7.73506C8.46851 269.658 8.46851 258.725 7.73506 253.36Z" fill="white"/>
<path d="M72 255.29C75.6846 255.559 79.3011 255.759 82.5134 255.759C88.3381 255.759 93.163 255.089 95.7073 253.005H73.6764V248.975H97.7836L97.9836 246.554H73.0041C73.5402 244.069 73.5402 239.633 73.0041 237.144H108.965V248.838C108.965 263.419 98.2516 267.991 79.233 267.991C76.9567 267.991 74.5443 267.923 72 267.791C72.8722 264.362 72.8722 258.317 72 255.29ZM76.4164 278.874H114.317V276.453H76.6164C76.9525 274.169 76.9525 271.347 76.6164 269.195H131.864C131.26 273.832 131.26 278.537 131.864 283.174H93.9628V285.594C106.621 285.863 119.81 285.727 132 285.056C131.464 288.549 131.464 291.508 132 295H76.4164C77.2886 289.693 77.4205 284.851 76.4164 278.874ZM110.369 246.281H115.526C115.394 242.383 115.058 238.754 114.59 236H131.868C130.528 243.796 130.528 258.176 131.868 267.517H114.59C114.99 264.495 115.326 260.998 115.462 257.305H110.373C110.773 254.35 110.773 249.24 110.373 246.285L110.369 246.281Z" fill="white"/>
<path d="M138 237.94H151.529V255.847H161.743V237.94H175.272C174.08 248.095 174.08 279.634 175.272 289.793H138C139.192 279.638 139.192 248.099 138 237.94ZM161.743 275.023V261.858H151.529V275.023H161.743ZM178.917 236H196.294C195.897 242.279 195.632 249.097 195.497 256.114H201C200.604 259.99 200.604 263.998 201 267.874H195.43C195.497 276.963 195.763 285.917 196.294 294H178.917C180.046 276.161 180.046 253.843 178.917 236Z" fill="white"/>
<path d="M204 264.134C204 246.694 210.223 236.539 224.064 236.539C237.906 236.539 244.129 246.694 244.129 264.134C244.129 281.574 237.906 291.729 224.064 291.729C210.223 291.729 204 281.574 204 264.134ZM224.069 276.293C229.033 276.293 231.154 272.417 231.154 264.13C231.154 255.843 229.033 251.967 224.069 251.967C219.104 251.967 216.984 255.843 216.984 264.13C216.984 272.417 219.104 276.293 224.069 276.293ZM246.649 236H264C262.872 253.839 262.872 276.157 264 294H246.649C247.777 276.161 247.777 253.843 246.649 236Z" fill="white"/>
<path d="M269 280.302C277.34 280.908 288.954 281.24 300.5 281.24C312.046 281.24 323.66 280.903 332 280.302V294H269V280.302ZM273.401 238H287.949V249.416H313.042V238H327.59C326.39 248.541 326.39 265.529 327.59 275.737H273.401C274.601 265.533 274.601 248.541 273.401 238ZM313.047 262.171V255.457H287.953V262.171H313.047Z" fill="white"/>
<path d="M0.365234 128H37.6785C39.3246 141.961 45.6789 168.705 54.8652 192.601C64.1666 168.697 70.3987 141.961 72.0519 128H109.365C97.8284 150.596 83.941 194.263 77.824 221H31.9209C25.7823 194.256 11.8949 150.596 0.365234 128Z" fill="white"/>
<path d="M131.366 125C141.078 125 149.242 129.247 149.365 139.054C149.25 148.854 141.078 153.108 131.366 153.108C121.654 153.108 113.251 148.854 113.366 139.054C113.251 129.254 121.654 125 131.366 125ZM114.429 157.709H147.818C145.453 174.006 145.453 204.588 147.818 221H114.429C116.563 204.588 116.563 174.006 114.429 157.709Z" fill="white"/>
<path d="M189.055 210.619C189.411 214.276 189.889 217.81 190.839 220.639H157.365C159.736 198.361 159.736 150.156 157.365 128H190.839C188.823 145.916 188.229 155.583 187.99 166.308C192.383 159.117 202.352 154.525 212.683 154.525C232.744 154.525 242.365 170.555 242.365 188.939C242.365 212.512 227.408 223 213.046 223C202.243 223 193.101 218.4 189.063 210.627L189.055 210.619ZM199.387 205.077C205.68 205.077 212.328 201.068 212.328 188.932C212.328 176.796 205.68 172.549 199.387 172.549C193.094 172.549 186.445 176.796 186.445 188.932C186.445 201.068 193.094 205.077 199.387 205.077Z" fill="white"/>
<path d="M248.524 192.397C246.414 165.755 265.622 155 290.33 155C307.193 155 327.803 162.365 327.803 176.967C327.803 191.569 311.762 197.414 297.36 197.414C291.038 197.414 280.969 196.13 276.635 191.569L276.75 193.553C277.1 202.667 286.94 205.008 294.428 205.008C303.324 205.008 309.882 201.504 314.215 196.594C317.727 200.219 326.63 206.528 332.365 208.512C321.595 221.016 307.071 223 295.243 223C273.932 223 251.799 217.041 248.524 192.383V192.397ZM286.926 189.478C293.133 189.478 298.168 186.209 298.168 180.015C298.168 173.82 293.133 170.43 286.926 170.43C280.719 170.43 275.684 173.82 275.684 180.015C275.684 186.209 280.719 189.478 286.926 189.478Z" fill="white"/>
<path d="M0 55.5291H20.9991C19.8802 65.1349 19.5118 82.5636 19.9575 97.086C23.2368 97.3089 26.7344 97.3862 30.3092 97.3862C38.3505 97.3862 46.3963 96.8631 51.1628 95.8989C50.2668 101.784 50.2668 108.188 51.1628 114.069H0C1.48726 99.9878 1.48726 69.5284 0 55.5291Z" fill="white"/>
<path d="M200.262 93.8778C200.262 81.8114 209.422 72.2056 226.923 72.2056C237.052 72.2056 244.352 75.4075 248.746 80.4742C244.648 82.5573 239.658 85.8365 236.606 88.5154C235.119 85.6864 230.871 83.9718 226.923 83.9718C220.965 83.9718 217.613 87.9196 217.613 93.8778C217.613 99.8359 220.965 103.784 226.923 103.784C232.881 103.784 236.233 101.623 238.467 98.4214C240.7 100.732 246.585 104.825 250.233 106.24C245.989 111.975 238.762 115.55 226.923 115.55C209.422 115.55 200.262 105.944 200.262 93.8778Z" fill="white"/>
<path d="M252.615 101.92C252.615 91.7912 263.785 89.2578 271.904 89.2578C278.608 89.2578 284.934 90.8952 287.172 92.9828C287.099 91.7184 286.949 90.4495 286.726 89.1851C286.058 86.1332 277.716 85.3145 274.81 85.3145C270.417 85.3145 265.127 86.1332 259.542 88.1435C259.469 84.9416 257.754 77.9419 256.19 74.9628C261.998 73.1754 268.925 72.2839 275.774 72.2839H276.593C291.488 72.5068 305.788 77.3461 305.265 87.6978C304.819 96.7851 304.519 105.127 305.934 114.059H284.93C285.453 113.09 285.899 111.899 286.272 110.857C283.666 113.836 277.707 115.551 271.454 115.551C262.294 115.551 252.61 111.603 252.61 101.925L252.615 101.92ZM279.572 107.878C283.52 107.878 287.691 106.164 287.691 101.77C287.691 97.3764 283.52 95.739 279.572 95.739C275.624 95.739 271.454 97.3764 271.454 101.77C271.454 106.164 275.624 107.878 279.572 107.878Z" fill="white"/>
<path d="M311.151 55.6038H332.15C330.513 69.6031 330.513 99.9897 332.15 114.066H311.151C312.639 99.9897 312.639 69.6077 311.151 55.6038Z" fill="white"/>
<path d="M165.459 56.0481H154.818C154.25 57.6494 153.01 58.3338 150.621 58.5533C150.079 58.605 149.549 58.6567 148.942 58.7083C149.782 59.7801 150.505 60.8778 151.125 61.8722C151.525 62.5178 151.887 63.1119 152.093 63.693C153.449 62.6211 154.573 62.6211 155.296 62.8019C156.058 63.0086 157.117 63.6413 157.814 65.5009L160.784 73.2103H165.459C172.006 73.2103 177.327 78.5308 177.327 85.0651C177.327 91.5994 172.006 96.9198 165.459 96.9198H84.5936C78.0464 96.9198 72.7259 91.5994 72.7259 85.0651C72.7259 78.5308 78.0464 73.2103 84.5936 73.2103H94.1755C95.2344 72.3451 96.7583 72.0094 98.7728 71.8802L99.186 71.8544C99.3022 69.517 99.4314 67.0893 99.5605 64.5065L99.5863 63.9771C99.7026 61.7172 99.8317 59.3798 100.116 57.0683C100.167 56.7067 100.219 56.3709 100.284 56.0481H84.5807C68.5548 56.0481 55.5508 69.0522 55.5508 85.078C55.5508 101.104 68.5419 114.108 84.5807 114.108H165.446C181.472 114.108 194.476 101.117 194.476 85.078C194.476 69.0392 181.485 56.0481 165.446 56.0481H165.459Z" fill="#00D0FF"/>
<path d="M113.112 0.01165C113.358 -0.0656935 113.913 0.256891 114.081 0.540947C114.326 0.954098 114.378 1.49645 114.455 1.99993C116.16 13.0282 117.877 24.0566 119.543 35.0849C119.711 36.2342 120.112 37.1252 120.899 37.9775C123.534 40.8572 124.192 44.267 122.9 47.8827C122.126 50.0519 122.629 51.976 123.081 53.9257C125.599 53.3317 127.782 52.6989 130.016 52.3115C136.55 51.2009 142 53.4744 146.546 58.0458C147.902 59.4146 149.025 61.0417 150.045 62.6816C151.595 65.1739 151.44 65.5226 148.573 67.3046C147.334 65.5225 146.106 63.7271 144.841 61.9579C142.646 58.8847 139.714 56.8699 136.086 55.8368C131.76 54.5971 127.911 55.669 124.334 58.1484C124.063 58.3421 123.805 58.5752 123.624 58.8593C119.143 65.8842 115.205 73.1544 113.732 81.4706C113.138 84.7894 112.777 88.1474 113.396 91.5566C113.771 93.6354 114.507 95.4818 115.682 97.0829H99.4492C99.5783 92.7184 99.747 88.341 99.9277 83.9765C100.199 77.5584 100.535 71.1397 100.857 64.7216C100.987 62.2681 101.102 59.8144 101.412 57.3867C101.864 53.8872 102.859 52.9315 106.358 52.996C110.4 53.0735 114.442 53.4741 118.497 53.7324C118.988 53.7582 119.479 53.7964 120.034 53.8222C120.447 52.9315 120.227 52.4927 119.323 52.4023C117.477 52.2215 115.63 52.0013 113.771 51.8593C112.04 51.7302 110.439 51.2655 109.058 50.2197C106.707 48.4376 105.919 44.3179 107.404 41.6835C108.825 39.1656 112.053 38.0806 114.92 39.1523C117.399 40.0691 118.497 42.7945 117.348 45.1835C116.521 46.9139 113.151 47.6495 111.859 46.2548C111.382 45.7383 111.136 44.7317 111.239 44.0087C111.368 43.079 112.247 43.0527 113.073 43.2851C113.357 43.3626 113.655 43.375 114.106 43.4267C113.874 42.0197 112.97 42.0583 112.183 42.0712C111.137 42.0841 110.451 42.6779 110.09 43.6464C109.302 45.7643 110.723 47.9083 113.1 48.2441C115.54 48.5796 117.864 47.3142 118.69 45.2226C119.581 42.9498 118.536 39.9147 116.366 38.5458C113.306 36.6088 107.211 37.3711 105.842 42.8593C105.067 45.9455 105.88 48.7092 108.102 51.0077C107.934 51.1884 107.856 51.3813 107.74 51.3945C103.944 51.8981 103.336 51.498 102.277 47.7402C100.173 40.3149 106.94 33.045 114.61 34.4784C115.437 34.6334 116.238 34.8782 117.374 35.1493C116.858 31.6628 116.379 28.3572 115.862 25.0644C115.707 24.0959 114.894 24.0439 114.119 23.9277C109.871 23.2562 105.88 24.0181 102.097 26.0068C100.379 26.9107 98.7266 27.9441 96.9834 28.8222C92.8639 30.9013 88.5375 31.6754 83.9531 30.6552C82.9072 30.4228 82.2868 29.9712 82.1318 28.8867C81.1246 22.2104 80.105 15.5468 79.0332 8.54778C80.0789 8.67687 80.8924 8.70206 81.667 8.88274C85.554 9.77378 89.2219 9.07701 92.7344 7.34661C93.6383 6.89466 94.5677 6.46782 95.4199 5.93841C100.508 2.8004 105.803 0.56696 112.208 2.32317C112.208 1.71625 112.092 1.29011 112.234 0.993095C112.402 0.618599 112.738 0.192326 113.1 0.0761032L113.112 0.01165ZM131.824 56.7802C133.645 56.806 135.569 57.0254 137.261 57.6581C140.244 58.7816 142.529 60.9121 144.389 63.6367C142.051 66.4777 143.123 69.8099 142.93 72.8447C139.12 75.6855 135.401 78.4617 131.708 81.2509C131.54 81.38 131.526 81.6772 131.229 82.4648C132.34 81.9353 133.103 81.6773 133.723 81.2382C136.822 79.043 139.856 76.7445 142.981 74.5751C144.118 73.7874 144.479 72.9477 144.208 71.5917C143.988 70.4425 143.95 69.2285 144.079 68.0663C144.182 67.1367 144.635 66.2329 145.1 64.7997C146.042 66.0263 146.611 66.8401 147.23 67.5761C148.302 68.8411 148.961 68.8799 150.148 67.705C151.052 66.814 151.801 65.7676 152.77 64.954C154.461 63.5335 155.831 64.0117 156.605 66.0908L159.666 73.9159L159.653 73.9033C159.731 74.226 159.782 74.5747 159.963 74.8329C160.699 75.9306 160.376 76.9508 159.704 77.8935C158.929 78.9911 158.22 80.1927 157.238 81.0966C152.538 85.4613 147.889 89.903 142.969 94.0224C141.626 95.1459 140.231 96.1663 138.771 97.0702H117.271C115.773 95.2752 114.765 92.7956 114.571 89.5156C114.391 86.4422 114.882 83.2657 115.527 80.2441C116.87 73.9035 119.543 68.0661 122.979 62.5908C125.032 59.3109 127.64 56.7156 131.824 56.7802ZM97.7451 97.0575H93.2119C92.8246 96.3602 92.6827 95.4045 92.7344 94.1132C92.9668 88.47 93.2506 82.8136 93.793 77.1962C94.09 74.2391 95.2784 73.5163 98.8555 73.2968C98.481 81.3419 98.1196 89.2062 97.7451 97.0575ZM155.817 84.4794C155.662 87.7981 155.611 90.807 155.365 93.79C155.275 94.8876 155.184 95.9728 155.081 97.0575H141.432C142.064 96.6185 142.698 96.1662 143.317 95.6884C147.488 92.5117 151.531 89.1668 154.927 85.1249C155.069 84.9573 155.289 84.8539 155.805 84.4667L155.817 84.4794ZM131.565 34.62C136.628 28.3311 145.784 29.9456 149.542 33.4452C150.446 34.2846 151.104 35.421 151.711 36.5185C153.428 39.6048 155.069 42.743 156.734 45.8681C156.889 46.165 157.109 46.4364 157.264 46.7333C158.167 48.5281 157.845 49.1089 155.844 49.3027C155.353 49.3543 154.862 49.4066 153.933 49.497C153.933 51.0594 153.971 52.4024 153.933 53.7324C153.829 56.4958 153.209 57.154 150.51 57.3993C149.683 57.4768 148.844 57.5422 147.76 57.6454C142.452 51.6148 135.621 49.4837 127.317 51.3173C127.55 45.2867 127.692 39.4626 131.579 34.62H131.565ZM95.7725 18.1249C95.3179 16.6474 94.0855 15.777 92.1895 16.3603C90.2933 16.9437 89.7632 18.3563 90.2178 19.8339C90.6724 21.3114 91.9048 22.1818 93.8008 21.5986C95.6969 21.0152 96.2271 19.6025 95.7725 18.1249ZM83.8037 16.4101C84.2974 17.5633 85.096 20.1569 85.3379 21.3945L89.6943 20.0536C89.4642 19.5762 89.2968 19.031 89.2188 18.5068C88.8383 18.7141 88.1663 18.9689 87.4814 19.1796C87.1772 19.2732 86.8775 19.3589 86.5928 19.4257C86.1743 18.2008 85.7493 16.7066 85.5928 15.8593L83.8037 16.4101ZM92.5723 17.6034C93.2886 17.3833 93.8743 17.8204 94.124 18.6318C94.3737 19.4433 94.1352 20.1348 93.4189 20.3554C92.7024 20.5758 92.116 20.1386 91.8662 19.3271C91.6165 18.5154 91.8557 17.8239 92.5723 17.6034ZM99.71 12.4286C99.0846 11.9755 98.2908 11.8109 97.2129 12.1425C95.3168 12.7259 94.7866 14.1386 95.2412 15.6161C95.6959 17.0935 96.9283 17.964 98.8242 17.3808C100.004 17.0179 100.615 16.3428 100.808 15.4784C100.347 15.4467 99.567 15.2356 99.166 15.0605C99.1558 15.5912 98.9614 15.9776 98.4414 16.1376C97.725 16.3578 97.1393 15.9199 96.8896 15.1083C96.64 14.2968 96.8783 13.6052 97.5947 13.3847C98.0513 13.2442 98.3758 13.3948 98.6895 13.7148C98.9275 13.3153 99.3564 12.7457 99.71 12.4286ZM101.973 9.74212C102.026 11.1243 101.647 13.963 101.227 15.2011L103.291 14.7978C103.267 14.4646 103.256 13.9935 103.265 13.4511L104.782 13.1552C105.001 13.6532 105.168 14.0941 105.271 14.412L107.335 14.0087C106.479 13.0197 105.061 10.5322 104.591 9.23138L101.973 9.74212ZM107.98 9.64837C108.137 10.8931 108.189 13.6061 108.081 14.8622L112.639 14.7734C112.549 14.251 112.538 13.6807 112.607 13.1552C112.185 13.2497 111.469 13.3092 110.753 13.3232C110.435 13.3294 110.122 13.3296 109.83 13.3154C109.765 12.0226 109.768 10.4689 109.851 9.61126L107.98 9.64837ZM103.516 10.6845C103.882 11.282 104.227 11.9382 104.517 12.5575L103.293 12.7968C103.329 12.1138 103.401 11.3762 103.516 10.6845Z" fill="#FFD4D4"/>
</g>
<defs>
<clipPath id="clip0_391_81">
<rect width="332.365" height="295" fill="white"/>
</clipPath>
</defs>
</svg>
