<svg width="414" height="414" viewBox="0 0 414 414" fill="none" xmlns="http://www.w3.org/2000/svg">
<path d="M112.763 230.55C128.738 261.559 160.722 256.855 188.319 278.19C201.681 288.52 205.369 300.518 221.277 306.193C249.785 316.364 273.651 302.233 294.24 280.046C329.759 241.771 306.932 186.713 271.596 148.271C238.165 111.901 193.772 88.7156 150.338 112.248C107.717 135.34 90.5645 187.458 112.763 230.55Z" fill="white"/>
<path d="M119.315 219.599C126.249 209.105 133.184 198.611 140.114 188.113C140.265 187.889 140.416 187.666 140.728 187.537C139.673 190.679 138.48 193.779 137.607 196.972C136.769 200.038 136.028 203.176 135.661 206.328C134.754 214.093 138.678 219.939 146.129 222.369C150.555 223.815 155.146 224.216 159.728 224.053C165.754 223.84 171.766 223.22 177.781 222.768C178.504 222.715 179.227 222.589 180.288 222.453C174.436 231.401 168.768 240.054 163.046 248.8C160.904 247.496 158.962 246.312 157.021 245.129L119.308 219.609L119.315 219.599Z" fill="#EA3E4A"/>
<path d="M205.953 221.749C207.494 223.204 209.491 224.005 211.421 224.66C213.355 225.31 215.485 225.37 217.416 225.67C216.533 226.976 213.491 227.782 211.111 226.99C209.221 226.362 207.408 225.512 205.547 224.788C205.038 224.588 204.49 224.478 203.964 224.325C203.885 224.517 203.811 224.712 203.734 224.9C205.875 225.928 208.02 226.96 210.16 227.989C210.146 228.138 210.133 228.296 210.119 228.446C208.888 228.372 207.609 228.477 206.428 228.191C203.029 227.353 200.078 225.588 197.352 223.425C196.1 222.432 194.8 221.487 193.654 220.379C192.252 219.018 190.734 218.867 188.866 219.115C181.245 220.123 173.631 221.228 165.971 221.791C161.078 222.147 156.099 221.839 151.199 221.381C148.686 221.15 146.114 220.234 143.835 219.09C139.658 216.987 137.636 213.325 137.517 208.636C137.386 203.482 139.055 198.707 140.66 193.94C143.644 185.157 147.587 176.806 152.627 169.037C154.755 165.753 157.306 162.689 159.987 159.829C164.003 155.55 168.878 150.977 168.878 150.977C168.878 150.977 174.357 146.718 176.903 145.351C180.775 143.276 181.32 143.71 185.504 137.612C186.936 135.528 187.939 133.725 189.442 131.674C191.857 128.395 192.641 127.877 195.363 125.095C200.358 120.003 206.365 118.706 213.094 120.973C217.856 122.575 221.816 125.363 224.714 129.516C227.521 133.536 228.484 138.058 226.703 142.605C224.752 147.594 224.316 152.762 223.693 157.948C223.579 158.876 223.438 159.801 223.262 161.035C221.876 160.409 220.628 159.954 219.489 159.307C218.166 158.556 217.288 158.657 216.408 160.022C215.165 161.945 213.731 163.753 212.329 165.568C210.855 167.479 208.85 167.866 206.772 166.605C205.203 165.652 203.72 164.561 202.003 163.399C200.381 165.507 199.884 166.691 199.684 168.248C199.594 168.969 199.357 169.886 199.461 170.695C200.207 176.735 200.609 182.824 198.553 188.632C196.883 193.355 194.562 197.855 192.466 202.428C192.299 202.792 191.627 203.177 191.223 203.142C182.483 202.351 173.74 201.499 165.004 200.66C164.916 200.651 164.831 200.572 164.566 200.429C165.411 198.989 166.242 197.547 167.096 196.113C170.514 190.366 173.941 184.618 177.355 178.867C177.557 178.527 177.828 178.146 177.824 177.789C177.815 177.406 177.596 176.918 177.305 176.707C177.125 176.577 176.604 176.833 176.292 177.005C176.097 177.112 175.992 177.396 175.864 177.606C171.328 185.187 166.782 192.761 162.265 200.355C161.278 202.017 161.434 202.289 163.304 202.476C172.489 203.38 181.67 204.311 190.864 205.084C192.377 205.211 194.063 204.89 195.473 204.303C198.19 203.175 200.885 202.785 203.798 203.207C206.506 203.6 209.259 203.669 211.983 203.964C212.543 204.024 213.451 204.392 213.515 204.747C213.617 205.301 213.314 206.21 212.866 206.529C212.093 207.084 211.108 207.438 210.159 207.621C209.044 207.836 207.865 207.696 206.732 207.863C206.145 207.95 205.215 208.276 205.14 208.645C205.028 209.184 205.367 210.072 205.819 210.421C208.028 212.118 210.315 213.731 212.629 215.283C214.85 216.771 217.371 217.312 220.016 217.38C220.662 217.398 221.407 217.345 221.919 217.647C222.513 217.999 222.907 218.7 223.389 219.25C222.864 219.683 222.365 220.453 221.811 220.49C218.466 220.73 215.123 220.762 212.026 219.093C211.194 218.645 210.297 218.313 209.413 217.983C209.135 217.882 208.788 217.966 208.248 217.962C208.483 218.352 208.548 218.621 208.717 218.713C211.857 220.477 214.981 222.308 218.819 221.779C219.408 221.7 220.053 221.602 220.601 221.755C221.13 221.903 221.576 222.357 222.055 222.674C221.682 223.13 221.355 223.923 220.924 223.993C217.873 224.46 214.793 225.003 211.802 223.637C210.349 222.972 208.888 222.331 207.421 221.707C207.004 221.533 206.547 221.47 206.106 221.353C206.05 221.489 205.994 221.624 205.938 221.76L205.953 221.749Z" fill="#EA3E4A"/>
<path d="M228.959 166.804C228.26 166.577 227.539 166.401 226.87 166.107C226.63 166.002 226.518 165.601 226.347 165.34C226.623 165.253 226.942 165.027 227.171 165.095C228.583 165.5 229.986 165.951 231.368 166.452C231.596 166.533 231.708 166.913 231.875 167.157C231.599 167.266 231.301 167.514 231.062 167.46C230.347 167.309 229.656 167.037 228.956 166.809L228.959 166.804Z" fill="#EA3E4A"/>
<path d="M224.42 172.113C223.978 171.525 223.493 170.958 223.122 170.331C222.987 170.102 223.128 169.713 223.142 169.403C223.422 169.492 223.806 169.491 223.956 169.687C224.869 170.84 225.751 172.016 226.589 173.227C226.726 173.42 226.597 173.803 226.593 174.098C226.308 174.027 225.92 174.055 225.755 173.871C225.262 173.327 224.854 172.711 224.416 172.118L224.42 172.113Z" fill="#EA3E4A"/>
<path d="M226.126 168.812C225.669 168.503 225.174 168.241 224.763 167.876C224.616 167.74 224.663 167.36 224.62 167.092C224.863 167.054 225.177 166.89 225.337 166.984C226.281 167.557 227.197 168.17 228.087 168.823C228.232 168.928 228.191 169.299 228.238 169.54C227.995 169.6 227.681 169.785 227.514 169.701C227.019 169.46 226.581 169.113 226.124 168.804L226.126 168.812Z" fill="#EA3E4A"/>
<path d="M233.357 276.999C233.316 277.014 233.282 277.028 233.242 277.042C231.351 277.577 228.437 278.711 226.54 279.079C223.079 279.751 219.954 278.831 217.225 276.626C216.685 276.189 216.335 275.522 215.836 275.025C210.059 269.22 207.103 261.886 204.576 254.319C204.14 253.003 203.622 251.708 203.288 250.366C202.735 248.137 201.505 246.451 199.663 245.109C198.622 244.353 197.663 243.49 196.667 242.678C194.992 241.309 193.624 239.606 192.687 237.656C191.053 234.259 190.143 230.786 190.983 226.981C191.144 226.251 191.133 225.479 191.199 224.723C191.266 223.959 191.457 223.256 192.372 223.198C193.327 223.139 194.038 223.585 194.198 224.56C194.378 225.676 194.544 226.817 194.522 227.943C194.431 232.294 197.167 234.697 200.462 236.714C200.506 236.743 200.557 236.766 200.606 236.785C201.212 237.01 201.825 236.389 201.638 235.77C201.608 235.678 201.577 235.585 201.534 235.503C200.885 234.232 200.127 233.019 199.464 231.754C198.833 230.56 199.017 229.653 199.917 229.102C200.806 228.561 201.638 228.853 202.418 230.029C203.796 232.091 205.215 234.092 207.196 235.673C208.721 236.885 209.591 238.596 209.791 240.566C209.918 241.792 210.451 242.766 211.254 243.686C215.776 248.887 220.263 254.125 224.762 259.345C225.768 260.509 225.905 260.54 227.06 259.483C232.491 254.527 237.916 249.556 243.335 244.585C243.581 244.36 243.852 244.102 243.948 243.807C244.034 243.532 244.008 243.082 243.835 242.904C243.661 242.727 243.187 242.662 242.944 242.772C242.537 242.952 242.19 243.293 241.85 243.602C236.953 248.088 232.062 252.581 227.165 257.068C226.974 257.24 226.779 257.408 226.566 257.578C226.221 257.865 225.702 257.817 225.415 257.478C221.096 252.482 216.828 247.548 212.511 242.563C212.22 242.228 212.245 241.722 212.568 241.415C212.642 241.346 212.712 241.281 212.793 241.221C218.975 236.513 224.884 231.437 231.729 227.647C237.216 224.606 243.093 223.069 249.333 223.035C251.222 223.027 252.625 222.491 253.909 221.13C254.651 220.343 254.504 219.928 254.504 219.928C254.504 219.928 254.421 219.616 253.982 219.142C253.243 218.339 252.505 217.529 251.813 216.681C250.171 214.648 250.3 212.915 252.197 211.149C253.616 209.834 254.995 208.479 256.478 207.24C257.332 206.531 257.292 205.955 256.718 205.12C256.232 204.409 255.811 203.65 255.344 202.819C255.067 202.327 255.357 201.706 255.909 201.596C257.868 201.215 259.666 200.902 261.426 200.431C263.678 199.826 265.988 199.245 268.077 198.239C274.469 195.166 280.702 196.206 285.418 201.568C286.895 203.253 288.196 205.182 289.181 207.19C292.058 213.063 290.273 218.826 285.909 223.716C282.412 227.63 274.908 235.657 272.698 241.728C269.954 248.137 274.294 264.63 233.348 276.974L233.357 276.999Z" fill="#EA3E4A"/>
<path d="M214.551 292.174C214.052 291.605 213.545 291.049 213.061 290.467C205.147 280.936 197.241 271.391 189.33 261.857C189.062 261.534 188.798 261.216 188.482 260.836L201.39 250.118C201.966 251.822 202.476 253.36 203.008 254.885C204.94 260.441 206.917 265.972 210.179 270.935C211.837 273.453 213.539 275.921 215.948 277.835C219.197 280.422 222.82 281.413 226.908 280.792C227.442 280.709 227.981 280.648 228.518 280.576L214.547 292.177L214.551 292.174Z" fill="#EA3E4A"/>
<path d="M270.707 188.532C270.848 189.136 271.036 189.734 271.109 190.342C271.135 190.563 270.9 190.817 270.781 191.053C270.595 190.893 270.3 190.758 270.243 190.563C269.924 189.366 269.638 188.16 269.392 186.948C269.353 186.751 269.577 186.5 269.68 186.277C269.877 186.427 270.186 186.538 270.254 186.731C270.454 187.312 270.559 187.927 270.7 188.531L270.707 188.532Z" fill="#EA3E4A"/>
<path d="M273.4 189.713C273.378 190.177 273.403 190.648 273.314 191.102C273.281 191.267 272.989 191.398 272.815 191.543C272.683 191.384 272.428 191.228 272.428 191.077C272.432 190.15 272.471 189.219 272.557 188.295C272.571 188.146 272.852 188.011 273.012 187.872C273.163 188.022 273.428 188.168 273.443 188.32C273.482 188.786 273.425 189.246 273.404 189.71L273.4 189.713Z" fill="#EA3E4A"/>
</svg>
