<svg width="353" height="353" viewBox="0 0 353 353" fill="none" xmlns="http://www.w3.org/2000/svg">
<path d="M124.629 266.255C160.3 277.081 180.497 249.049 217.398 243.761C235.265 241.2 247.212 247.301 263.404 239.324C292.421 225.028 299.346 196.208 297.652 163.904C294.73 108.177 235.514 84.7083 179.731 83.2C126.957 81.7731 76.1354 98.5657 61.8589 149.392C47.8499 199.266 75.0571 251.21 124.629 266.255Z" fill="white"/>
<path d="M118.08 228.862C109.019 223.738 99.958 218.614 90.8968 213.49C90.5037 213.268 90.0966 213.06 89.7314 212.794C88.2843 211.744 88.1509 210.372 89.4813 209.196C90.1484 208.608 90.9699 208.166 91.7714 207.76C94.5161 206.366 97.251 204.95 100.048 203.672C101.774 202.886 102.966 201.757 103.88 200.062C108.099 192.254 112.403 184.492 116.739 176.747C118.907 172.874 119.504 172.836 123.283 174.961C135.75 181.964 148.261 188.894 160.752 195.855C161.7 196.384 162.636 196.939 163.581 197.473C164.725 198.119 164.984 199.091 164.522 200.246C164.153 201.165 163.712 202.065 163.221 202.928C158.556 211.105 153.852 219.26 149.234 227.464C148.842 228.158 148.856 229.178 148.931 230.023C149.241 233.536 149.652 237.043 150.009 240.551C150.071 241.18 150.137 241.827 150.058 242.447C149.825 244.263 148.909 244.788 147.259 243.965C143.941 242.307 140.656 240.584 137.373 238.858C130.965 235.485 124.568 232.093 118.167 228.708C118.138 228.76 118.109 228.812 118.079 228.864L118.08 228.862ZM140.777 188.569C140.801 188.526 140.824 188.486 140.848 188.443C134.615 185.131 128.391 181.805 122.146 178.514C120.533 177.664 120.294 177.777 119.232 179.185C114.396 185.6 111.558 193.126 107.603 200.032C107.06 200.982 107.315 201.779 108.221 202.354C108.832 202.743 109.473 203.08 110.093 203.453C115.836 206.891 121.568 210.348 127.325 213.762C128.722 214.59 130.183 215.316 131.641 216.037C135.938 218.164 140.272 220.221 144.547 222.392C147.335 223.805 147.54 223.834 149.169 221.031C151.67 216.724 154.124 212.39 156.588 208.061C157.754 206.015 158.87 203.942 160.065 201.912C160.755 200.74 160.548 199.864 159.419 199.169C158.802 198.789 158.185 198.412 157.555 198.056C151.964 194.891 146.37 191.731 140.777 188.569Z" fill="#EA3E4A"/>
<path d="M253.87 133.038C258.739 141.389 263.624 149.733 268.455 158.107C269.071 159.177 269.527 160.373 269.86 161.563C270.432 163.604 269.845 165.388 268.262 166.803C267.413 167.561 266.587 168.377 265.63 168.969C258.673 173.286 251.697 177.57 244.692 181.808C243.834 182.328 242.79 182.552 241.817 182.853C238.416 183.909 235.527 183.338 233.459 180.18C232.774 179.135 232.01 178.137 231.337 177.085C225.863 168.569 220.311 160.1 214.966 151.506C211.723 146.295 208.796 140.888 205.737 135.565C204.322 133.103 202.817 130.678 201.545 128.141C199.687 124.438 200.226 121.888 203.68 119.6C210.981 114.767 218.412 110.131 225.793 105.425C226.269 105.121 226.791 104.873 227.311 104.65C232.214 102.569 234.481 103.048 237.561 107.414C240.446 111.498 243.061 115.778 245.713 120.024C248.422 124.366 251.027 128.773 253.678 133.15C253.739 133.113 253.804 133.074 253.865 133.037L253.87 133.038ZM248.923 133.758C248.946 133.744 248.972 133.728 248.996 133.714C245.455 127.867 241.958 121.994 238.359 116.182C235.24 111.144 235.068 111.184 229.974 114.429C223.925 118.284 217.884 122.158 211.736 125.849C206.874 128.765 206.66 128.735 209.523 133.528C215.068 142.817 220.792 151.998 226.439 161.225C228.283 164.236 230.064 167.289 231.98 170.256C233.874 173.185 234.634 173.449 237.511 171.734C244.746 167.421 251.944 163.034 259.075 158.548C262.227 156.567 262.32 156.007 260.409 152.772C256.644 146.397 252.758 140.091 248.923 133.758ZM253.338 173.273C254.959 172.291 255.484 170.133 254.482 168.572C253.46 166.975 251.395 166.558 249.758 167.613C248.19 168.623 247.817 170.669 248.889 172.347C249.83 173.821 251.771 174.226 253.341 173.271L253.338 173.273ZM214.439 118.596C217.967 117.956 221.701 115.51 222.65 113.332C219.613 114.591 216.673 116.004 214.439 118.596Z" fill="#EA3E4A"/>
<path d="M201.471 192.929C202.794 193.059 203.399 193.006 203.924 193.185C206.38 194.032 208.525 193.335 210.491 191.894C214.248 189.144 217.953 186.324 221.711 183.578C222.774 182.801 223.943 182.164 225.531 181.171C225.724 182.832 225.93 183.833 225.941 184.837C226.074 195.553 226.091 206.27 226.336 216.982C226.406 220.128 225.255 222.132 222.732 223.952C219.059 226.6 215.665 229.64 212.223 232.593C210.27 234.269 208.171 235.319 205.544 234.899C203.049 234.503 202.136 233.562 201.986 231.005C201.832 228.447 201.797 225.883 201.758 223.322C201.65 216.216 201.555 209.114 201.475 202.008C201.443 199.119 201.471 196.225 201.471 192.926L201.471 192.929ZM221.938 191.366C220.584 192.321 219.664 192.975 218.741 193.626C217.789 194.294 216.848 194.98 215.879 195.627C212.167 198.097 211.474 200.273 213.167 205.056C214.833 203.919 216.354 202.719 218.023 201.77C221.354 199.878 222.648 197.072 222.18 193.349C222.124 192.891 222.068 192.436 221.935 191.369L221.938 191.366Z" fill="#EA3E4A"/>
<path d="M208.445 172.966C206.927 175.296 204.156 175.891 202.011 177.347C199.895 178.778 197.662 180.033 195.497 181.398C193.258 182.808 191.043 184.253 188.405 185.95C190.742 188.031 193.016 189.014 195.605 188.353C197.704 187.818 199.793 186.936 201.651 185.82C206.136 183.133 210.481 180.208 214.897 177.403C215.852 176.794 216.87 176.286 217.867 175.73C219.298 178.487 219.21 178.987 217.108 180.471C212.262 183.889 207.459 187.37 202.529 190.659C200.377 192.093 199.405 193.741 199.457 196.389C199.664 206.857 199.685 217.332 199.772 227.803C199.779 228.619 199.786 229.434 199.776 230.246C199.737 233.401 198.635 234.682 195.479 234.776C192.649 234.86 189.952 234.111 187.496 232.656C186.086 231.82 185.435 230.567 185.417 228.892C185.288 215.163 185.144 201.434 184.945 187.709C184.921 185.992 185.54 184.816 186.953 183.962C193.216 180.17 199.464 176.349 205.755 172.602C206.423 172.204 207.329 172.207 208.123 172.022L208.442 172.973L208.445 172.966Z" fill="#EA3E4A"/>
<path d="M188.724 136.968C188.343 148.326 181.814 159.34 169.404 166.65C160.544 171.87 150.947 171.727 141.329 168.981C138.363 168.133 135.494 166.841 132.699 165.508C114.722 156.949 107.749 133.101 117.337 115.722C123.198 105.099 131.757 97.3811 144.361 95.521C150.232 94.6527 156.1 94.6227 161.773 96.8234C162.602 97.144 163.427 97.468 164.265 97.7652C182.088 104.09 188.517 118.951 188.727 136.968L188.724 136.968ZM137.568 133.312C137.578 140.351 143.673 146.439 150.796 146.519C158.387 146.606 164.722 140.425 164.769 132.887C164.816 125.317 158.611 119.155 150.957 119.165C143.593 119.175 137.558 125.55 137.568 133.312Z" fill="#EA3E4A"/>
<path d="M151.135 129.922C152.664 129.852 153.86 131.018 153.86 132.577C153.86 134.08 152.718 135.376 151.275 135.506C149.776 135.643 148.54 134.558 148.396 132.978C148.246 131.358 149.465 130.003 151.135 129.926L151.135 129.922Z" fill="#EA3E4A"/>
</svg>
