<svg width="406" height="406" viewBox="0 0 406 406" fill="none" xmlns="http://www.w3.org/2000/svg">
<path d="M253.448 291.421C280.373 266.43 266.538 235.322 280.356 201.285C287.046 184.804 298.171 177.663 299.418 159.92C301.655 128.122 280.559 107.92 252.22 93.3249C203.333 68.1467 153.958 106.903 124.98 153.638C97.5662 197.853 86.6304 249.451 122.808 286.836C158.308 323.521 216.032 326.149 253.448 291.421Z" fill="white"/>
<path d="M139.727 233.113L126.924 227.752C127.281 226.504 127.668 225.161 128.048 223.815C129.192 219.768 130.58 215.833 132.618 212.122C134.987 207.813 138.481 205.159 143.262 204.079C147.417 203.141 147.275 203.265 150.62 205.926C154.154 208.74 157.978 211.189 161.678 213.797C161.942 213.982 162.216 214.152 162.468 214.32C162.383 214.522 162.368 214.701 162.279 214.75C160.134 215.961 159.945 216.765 161.447 218.675C163.876 221.764 167.129 223.823 170.41 225.867C176.195 229.466 182.482 231.98 188.814 234.349C193.117 235.959 197.605 237.069 202.176 237.67C203.77 237.879 205.423 237.89 207.024 237.736C209.619 237.487 210.111 236.549 209.085 233.888C210.945 234.319 212.682 234.687 214.402 235.128C218.81 236.255 223.277 236.946 227.836 236.867C228.901 236.848 229.573 237.244 230.213 238.052C234.048 242.881 235.387 248.163 233.608 254.211C232.046 259.521 229.377 264.278 226.741 269.235L212.275 263.178C212.958 261.189 213.604 259.22 214.313 257.275C215.007 255.369 216.152 253.531 216.382 251.58C216.602 249.702 215.89 247.717 215.62 245.774C215.412 244.301 215.227 242.822 215.082 241.342C214.994 240.441 214.626 239.857 213.731 239.542C212.588 239.138 211.487 238.62 210.398 238.163C210.149 238.383 209.916 238.486 209.866 238.648C209.152 240.917 207.45 241.476 205.29 241.497C201.596 241.538 198.008 240.89 194.505 239.849C190.294 238.599 186.054 237.372 181.979 235.75C177.082 233.8 172.343 231.442 167.91 228.549C165.988 227.295 164.127 225.944 162.267 224.601C161.668 224.168 161.135 223.636 160.61 223.11C158.984 221.477 157.361 219.831 159.235 217.229C157.461 216.486 155.89 215.786 154.279 215.195C154.012 215.096 153.528 215.41 153.217 215.632C150.458 217.589 147.696 219.542 144.984 221.565C144.48 221.941 144.099 222.577 143.844 223.171C142.697 225.847 141.618 228.551 140.512 231.244C140.286 231.794 140.053 232.34 139.726 233.12L139.727 233.113Z" fill="#EA3E4A"/>
<path d="M201.826 214.222C198.765 215.336 198.218 216.469 199.251 219.004C198.775 220.141 198.088 221.096 198.047 222.078C198.011 222.971 198.675 223.89 199.158 225.126C199.042 225.508 198.634 226.267 198.634 227.025C198.634 227.783 199.042 228.54 199.296 229.376C197.131 231.24 194.646 231.732 191.718 231.024C186.128 229.672 180.972 227.432 176.175 224.27C174.048 222.868 173.211 220.862 172.952 218.254C174.656 218.08 175.857 217.174 176.032 215.436C177.1 214.979 178.252 214.776 178.957 214.104C179.603 213.488 179.767 212.364 180.318 211.048C180.962 210.837 182.326 210.517 182.469 209.096C182.576 208.024 182.293 206.911 182.147 205.444C183.485 203.238 183.308 201.823 180.925 199.913C179.082 198.436 177.107 197.126 175.195 195.733C174.599 195.298 174.025 194.833 173.262 194.242C173.572 193.634 173.818 193.031 174.164 192.493C175.302 190.73 176.493 189.018 176.918 186.886C177.169 185.622 178.266 184.999 179.382 184.717C180.474 184.441 181.662 184.299 182.781 184.397C195.353 185.507 206.467 190.196 216.137 198.275C217.245 199.199 218.099 200.485 218.873 201.726C219.462 202.669 219.439 203.744 218.711 204.772C217.588 206.359 217.253 208.237 216.925 210.115C216.581 212.084 216.324 212.268 214.367 211.986C212.495 211.716 210.635 211.362 208.769 211.05C208.169 210.949 207.569 210.836 206.965 210.778C203.862 210.481 202.845 211.148 201.821 214.218L201.826 214.222ZM214.154 204.669C214.165 204.473 214.178 204.28 214.189 204.085C213.507 204.019 212.822 203.933 212.138 203.893C209.92 203.769 207.643 203.942 205.491 203.502C196.5 201.661 188.491 197.846 182.008 191.173C181.577 190.73 181.059 190.372 180.582 189.974C180.448 190.083 180.314 190.193 180.18 190.302C180.495 190.934 180.698 191.665 181.149 192.178C182.213 193.39 183.326 194.579 184.542 195.635C189.384 199.836 195.173 202.287 201.164 204.244C204.373 205.293 207.73 205.823 211.15 205.532C212.208 205.442 213.286 205.373 214.155 204.667L214.154 204.669ZM202.506 209.283C202.569 209.102 202.631 208.921 202.694 208.738C202.428 208.589 202.174 208.333 201.895 208.306C198.151 207.933 194.695 206.719 191.437 204.87C191.243 204.76 190.895 204.919 190.618 204.953C194.171 207.781 198.067 209.351 202.505 209.28L202.506 209.283ZM186.586 222.604C188.409 224.619 190.85 224.916 193.267 225.251C193.796 225.325 194.444 225.471 194.772 224.685C191.981 223.974 189.284 223.288 186.586 222.604ZM191.984 210.213C193.438 212.248 197.449 213.348 198.992 212.248C196.685 211.578 194.46 210.932 191.984 210.213ZM192.549 215.453C192.502 215.623 192.454 215.79 192.407 215.96C193.376 216.659 194.394 217.006 195.605 216.087C194.587 215.877 193.569 215.666 192.549 215.455L192.549 215.453ZM191.89 220.511C191.834 220.699 191.78 220.886 191.723 221.074C192.775 221.556 193.83 222.007 195.066 221.05C194.008 220.871 192.95 220.693 191.891 220.514L191.89 220.511Z" fill="#EA3E4A"/>
<path d="M145.69 223.341C168.836 232.833 191.714 242.215 214.783 251.677C212.454 258.193 209.905 264.406 207.148 270.715C204.214 269.621 201.456 268.591 198.486 267.484C199.814 262.949 201.82 258.759 203.44 254.485C202.309 253.553 154.753 234.013 152.796 233.679L147.665 245.932C144.35 244.932 141.411 243.492 138.249 242.205C140.382 235.765 143.216 229.793 145.692 223.342L145.69 223.341Z" fill="#EA3E4A"/>
<path d="M263.118 212.134C264.429 207.589 264.92 202.978 264.676 198.296C264.37 192.426 262.299 187.045 259.469 181.992C253.081 170.592 243.85 162.244 231.929 156.884C231.333 156.616 230.756 156.304 230.124 155.991C230.239 155.524 230.301 155.197 230.397 154.882C231.017 152.88 231.728 150.903 232.248 148.877C233.193 145.211 232.801 141.72 230.292 138.73C226.316 133.993 221.089 132.247 215.073 132.862C212.671 133.108 210.637 134.328 208.947 136.158C207.162 138.088 206.021 140.366 204.923 142.692C204.614 143.347 204.284 143.994 203.964 144.64C203.513 144.555 203.249 144.517 202.991 144.453C198.733 143.391 194.512 142.115 190.207 141.302C179.109 139.207 168.248 140.147 157.816 144.629C155.532 145.61 153.229 146.779 151.302 148.321C143.577 154.509 138.11 162.108 136.518 172.209C135.37 179.5 136.553 186.259 140.326 192.492C142.852 196.667 146.088 200.323 149.84 203.496C154.085 207.088 158.601 210.319 163.441 213.02C166.192 214.556 169.233 215.611 172.212 216.689C173.638 217.204 174.494 216.723 174.698 215.762C174.966 214.496 173.861 214.424 173.118 214.055C172.938 213.964 172.736 213.915 172.558 213.82C170.584 212.785 168.605 211.758 166.651 210.688C166.382 210.54 166.238 210.169 165.764 209.541C167.193 210.139 168.186 210.526 169.155 210.967C170.879 211.749 172.567 212.614 174.315 213.34C175.112 213.669 176.006 213.829 176.87 213.912C177.681 213.991 178.334 213.548 178.582 212.75C178.836 211.938 178.48 211.273 177.77 210.863C177.246 210.562 176.646 210.399 176.102 210.131C173.797 209.003 171.479 207.896 169.212 206.693C168.66 206.4 167.806 206.15 167.934 204.996C168.775 205.395 169.498 205.742 170.227 206.08C172.679 207.219 175.123 208.377 177.591 209.479C178.196 209.75 178.9 210.018 179.528 209.959C180.12 209.903 180.912 209.549 181.171 209.08C181.422 208.621 181.33 207.679 180.995 207.261C180.48 206.618 179.69 206.093 178.912 205.782C175.883 204.569 173.021 203.06 170.334 201.218C169.993 200.985 169.724 200.643 169.421 200.351C169.487 200.229 169.554 200.107 169.62 199.985C170.083 200.132 170.581 200.213 170.999 200.441C172.72 201.378 174.404 202.389 176.129 203.317C177.08 203.827 178.065 204.301 179.083 204.653C179.925 204.943 180.866 205.044 181.43 204.086C181.951 203.2 181.699 202.36 181.007 201.691C180.329 201.037 179.601 200.428 178.845 199.863C176.682 198.243 174.49 196.661 172.326 195.045C171.914 194.739 171.573 194.338 171.149 193.933C171.928 192.974 172.632 192.163 173.273 191.305C174.287 189.946 175.258 188.554 175.5 186.808C175.669 185.588 175.159 184.475 174.248 184.06C173.359 183.657 172.546 183.96 171.59 184.94C170.555 186.001 169.557 187.126 168.384 188.016C166.602 189.371 164.561 189.206 163.089 187.554C159.297 183.301 157.722 177.358 160.823 171.769C163.194 167.496 166.929 164.771 171.722 163.648C175.121 162.852 178.563 162.88 181.998 163.452C182.425 163.523 182.831 163.733 183.344 163.912C182.605 165.677 181.88 167.271 181.267 168.908C180.653 170.555 180.153 172.243 179.603 173.915C179.03 175.65 178.349 177.357 177.915 179.124C177.519 180.744 176.513 182.251 176.624 184.328C180.585 182.255 184.405 182.827 188.196 183.507C197.253 185.128 205.538 188.655 213.118 193.846C216.327 196.042 219.264 198.507 220.678 202.321C220.712 202.413 220.901 202.446 221.022 202.51C221.149 202.496 221.366 202.526 221.399 202.462C224.549 196.435 227.685 190.399 230.861 184.288C231.518 184.687 232.182 185.024 232.776 185.458C238.358 189.535 241.744 194.823 241.447 201.948C241.156 208.913 235.68 214.301 228.839 214.734C225.694 214.933 224.373 213.503 223.917 210.623C223.719 209.376 223.834 208.06 223.954 206.788C224.052 205.753 224.011 204.888 222.934 204.419C221.896 203.966 220.803 204.181 220.062 205.244C219.46 206.109 218.942 207.12 218.709 208.14C218.32 209.835 218.189 211.59 217.926 213.494C217.24 213.457 216.576 213.476 215.928 213.379C213.324 212.982 210.727 212.519 208.121 212.144C207.125 212 206.101 211.946 205.098 211.993C204.205 212.036 203.62 212.602 203.419 213.503C203.236 214.319 203.73 214.833 204.331 215.146C205.285 215.642 206.285 216.085 207.31 216.406C209.309 217.032 211.345 217.545 213.357 218.13C213.819 218.264 214.253 218.496 214.701 218.684C214.646 218.874 214.59 219.065 214.534 219.255C214.154 219.248 213.761 219.297 213.394 219.221C210.141 218.54 206.954 217.635 203.947 216.193C202.982 215.729 202.034 215.515 201.021 215.918C199.808 216.399 199.477 217.526 200.337 218.514C200.763 219.003 201.362 219.42 201.964 219.665C204.344 220.631 206.755 221.521 209.157 222.433C210.178 222.821 211.208 223.188 212.631 223.711C211.371 224.341 210.578 224.013 209.88 223.78C207.381 222.947 204.915 222.016 202.436 221.124C201.992 220.964 201.519 220.625 201.109 220.691C200.503 220.788 199.803 221.042 199.395 221.468C198.888 221.996 198.996 222.813 199.551 223.303C200.25 223.918 201.019 224.529 201.866 224.879C203.928 225.731 206.053 226.425 208.146 227.2C208.795 227.441 209.425 227.731 210.064 227.999C210.008 228.185 209.953 228.371 209.897 228.557C209.03 228.39 208.129 228.319 207.301 228.039C205.446 227.411 203.619 226.693 201.793 225.981C201.044 225.69 200.354 225.484 199.866 226.362C199.43 227.145 199.648 227.829 200.313 228.33C200.901 228.775 201.537 229.176 202.201 229.496C205.691 231.173 209.337 232.352 213.125 233.195C221.616 235.084 230.093 236.542 238.829 234.82C243.427 233.913 247.708 232.355 251.412 229.487C257.204 225.005 261.075 219.209 263.113 212.136L263.118 212.134Z" fill="#EA3E4A"/>
</svg>
