<svg width="329" height="329" viewBox="0 0 329 329" fill="none" xmlns="http://www.w3.org/2000/svg">
<path d="M145.028 244.28C174.579 244.555 183.685 218.724 210.575 206.466C223.595 200.531 234.044 202.505 244.58 192.824C263.463 175.474 262.298 152.005 253.8 127.811C239.141 86.0732 188.859 81.4364 146.09 92.7384C105.628 103.431 70.7169 127.546 71.2003 169.395C71.6748 210.459 103.963 243.899 145.028 244.28Z" fill="white"/>
<path d="M105.257 166.016C104.311 165.865 103.496 165.735 102.639 165.598C102.578 166.792 103.555 166.512 104.036 167.034C103.914 167.55 103.693 168.146 103.65 168.753C103.591 169.548 103.491 170.41 103.725 171.145C104.327 173.049 106.968 173.466 108.232 171.858C108.712 171.245 108.938 170.422 109.228 169.674C109.457 169.092 109.607 168.479 109.81 167.828C110.859 167.87 111.831 167.909 113.006 167.955C113.486 169.059 114.034 170.192 114.481 171.365C115.78 174.775 117.025 178.206 118.322 181.617C118.573 182.277 118.968 182.882 119.373 183.661C120.179 182.819 119.89 182.17 119.659 181.548C119.251 180.464 118.883 179.357 118.368 178.327C117.698 176.985 117.738 175.678 118.17 174.293C119.996 168.431 121.687 162.524 123.64 156.704C124.971 152.737 126.822 148.981 129.885 145.993C131.835 144.089 133.963 142.408 136.37 141.097C137.431 140.52 138.463 139.891 139.657 139.2C138.814 137.69 138.041 136.305 137.265 134.915C135.66 134.946 134.548 136.369 132.816 136.193C132.78 135.725 132.691 135.289 132.721 134.862C132.857 132.956 133.067 131.055 133.167 129.147C133.231 127.939 133.218 126.719 133.117 125.516C132.828 122.077 133.822 119.116 136.259 116.662C138.319 114.589 140.82 113.301 143.664 112.733C145.473 112.371 147.227 112.732 148.913 113.479C152.758 115.182 155.093 118.234 156.601 122.028C157.518 124.339 158.411 126.66 159.375 129.131C160.786 128.557 162.112 128.027 163.429 127.478C167.815 125.649 172.357 124.433 177.119 125.13C180.308 125.597 183.494 126.375 186.553 127.398C191.328 128.996 195.978 130.966 200.714 132.686C202.498 133.333 203.849 134.301 204.656 136.067C205.085 137.006 205.74 137.846 206.322 138.71C206.633 139.171 206.955 139.693 207.874 139.404C206.733 136.791 205.077 134.577 203.632 132.244C202.17 129.885 200.73 127.512 199.222 125.049C199.824 124.17 200.404 123.324 201.143 122.244C202.145 122.64 203.131 123.148 204.178 123.416C206.431 123.991 208.202 122.315 207.763 120.127C207.56 119.112 206.857 118.529 206.008 118.108C205.345 117.779 204.63 117.55 203.95 117.28C204.039 116.647 204.12 116.068 204.252 115.13C202.99 115.83 202.944 116.825 202.411 117.685C202.983 117.954 203.487 118.193 203.991 118.43C204.567 118.701 205.178 118.916 205.711 119.253C206.483 119.741 206.763 120.632 206.476 121.362C206.182 122.107 205.394 122.595 204.486 122.353C203.209 122.013 201.977 121.505 200.655 121.043C200.321 121.521 200.037 121.942 199.738 122.353C199.363 122.866 199.015 123.408 198.586 123.873C197.847 124.67 196.903 124.886 196.256 124.481C195.562 124.047 195.345 122.994 195.845 121.984C196.64 120.375 197.512 118.804 198.329 117.204C198.57 116.73 198.731 116.216 198.928 115.72C198.782 115.635 198.636 115.552 198.491 115.467C198.215 115.838 197.879 116.178 197.67 116.583C196.931 118.026 196.278 119.514 195.51 120.939C195.046 121.8 194.482 122.619 193.872 123.385C193.222 124.203 192.459 124.388 191.734 124.065C190.977 123.727 190.605 122.874 190.857 121.839C190.993 121.283 191.239 120.747 191.489 120.226C192.411 118.291 193.364 116.371 194.286 114.436C194.488 114.013 194.616 113.555 194.777 113.111L194.339 112.882C194.008 113.37 193.623 113.83 193.353 114.349C192.233 116.508 191.185 118.705 190.022 120.841C189.684 121.462 189.149 122.102 188.54 122.423C187.331 123.06 185.995 122.099 186.108 120.728C186.157 120.112 186.391 119.485 186.658 118.916C187.669 116.769 188.733 114.647 189.764 112.509C189.952 112.117 190.077 111.697 190.232 111.29C190.13 111.224 190.028 111.156 189.925 111.091C189.662 111.399 189.327 111.67 189.15 112.021C188.254 113.775 187.4 115.549 186.529 117.314C186.299 117.781 186.085 118.258 185.826 118.71C185.452 119.363 184.926 119.771 184.116 119.593C183.304 119.414 182.686 118.942 182.634 118.104C182.586 117.316 182.582 116.437 182.874 115.728C183.87 113.324 184.901 110.921 186.112 108.62C188.143 104.759 191.669 103.61 195.75 103.773C198.597 103.885 201.217 104.857 203.531 106.481C205.609 107.943 207.558 109.561 209.227 111.532C213.228 116.258 217.353 120.879 221.383 125.581C224.635 129.373 227.493 133.457 229.786 137.896C231.062 140.365 231.972 142.986 232.339 145.792C232.883 149.943 231.388 153.683 227.095 156.055C223.778 157.888 220.187 158.656 216.383 158.331C212.444 157.994 208.578 157.271 204.799 156.112C199.262 154.411 193.724 152.715 188.211 150.938C186.35 150.339 184.565 149.499 182.354 148.614C182.939 150.523 183.848 151.905 184.468 153.4C185.09 154.899 185.703 156.403 186.384 157.874C187.086 159.388 187.864 160.869 188.695 162.539C175.815 169.487 163.017 176.066 149.859 182.449C147.365 177.947 144.909 173.513 142.331 168.858C142.078 169.35 141.854 169.65 141.763 169.985C139.436 178.555 136.357 186.862 132.841 195.003C131.79 197.437 130.498 199.8 129.05 202.022C126.745 205.56 123.565 208.138 119.482 209.4C116.119 210.438 113.06 209.665 110.404 207.401C107.569 204.981 105.697 201.858 104.201 198.498C102.499 194.676 101.288 190.676 100.35 186.618C98.8145 179.965 97.4029 173.283 96.0606 166.588C95.2999 162.796 95.368 159.005 96.7037 155.284C97.8149 152.19 99.8259 149.9 102.61 148.262C104.064 147.406 105.725 147.242 107.331 147.507C110.068 147.964 112.786 148.567 115.481 149.229C116.223 149.412 116.917 149.951 117.532 150.451C118.195 150.99 118.19 151.766 117.863 152.522C117.535 153.282 116.894 153.492 116.145 153.383C115.173 153.241 114.206 153.048 113.24 152.864C111.874 152.603 110.516 152.307 109.146 152.072C108.624 151.982 108.08 152.018 107.544 151.996C107.522 152.159 107.501 152.319 107.479 152.482C107.995 152.61 108.507 152.759 109.029 152.859C111.248 153.286 113.47 153.685 115.685 154.125C116.247 154.236 116.813 154.407 117.331 154.651C118.094 155.009 118.423 155.67 118.289 156.51C118.157 157.342 117.629 157.885 116.831 158.043C116.337 158.141 115.793 158.078 115.286 157.993C112.942 157.611 110.607 157.188 108.265 156.802C107.67 156.704 107.061 156.687 106.458 156.633C106.416 156.778 106.372 156.924 106.33 157.07C106.699 157.21 107.056 157.408 107.438 157.484C109.654 157.928 111.876 158.328 114.09 158.777C114.709 158.903 115.331 159.083 115.905 159.343C116.671 159.689 117.027 160.33 116.856 161.189C116.691 162.019 116.177 162.594 115.341 162.633C114.306 162.682 113.253 162.637 112.228 162.49C110.681 162.269 109.154 161.915 107.616 161.637C107.084 161.54 106.54 161.506 105.9 161.43C105.966 162.289 106.424 162.355 106.877 162.421C108.653 162.681 110.431 162.934 112.205 163.205C113.705 163.434 114.539 164.146 114.485 165.123C114.435 166.076 113.528 166.671 111.956 166.709C111.037 166.731 110.116 166.663 108.853 166.625C108.781 167.073 108.744 167.589 108.609 168.08C108.397 168.86 108.172 169.645 107.858 170.388C107.397 171.481 106.76 171.838 105.87 171.632C105.097 171.453 104.487 170.637 104.588 169.615C104.702 168.474 105 167.35 105.257 166.011L105.257 166.016Z" fill="#EA3E4A"/>
<path d="M196.325 197.392C196.838 198.423 197.298 199.295 197.71 200.186C198.315 201.496 198.284 201.69 197.058 202.429C194.878 203.743 192.734 205.141 190.454 206.254C186.086 208.388 181.639 210.365 177.207 212.369C175.527 213.128 175.244 213.095 174.507 211.443C173.707 209.648 172.632 209.082 170.583 208.964C163.785 208.572 158.064 205.839 154.108 200.047C153.197 198.712 152.416 197.288 151.536 195.93C150.656 194.573 150.859 193.267 151.719 192.042C152.747 190.578 153.798 189.12 154.954 187.755C157.823 184.366 161.393 181.788 165.058 179.355C171.598 175.011 178.787 172.159 186.439 170.548C188.846 170.042 191.383 169.904 193.849 169.967C198.09 170.076 197.989 170.505 199.325 174.247C200.369 177.171 200.941 180.3 200.942 183.445C200.944 187.994 199.942 192.291 197.272 196.081C196.975 196.503 196.667 196.916 196.323 197.391L196.325 197.392ZM196.066 172.8C195.438 172.687 194.883 172.563 194.321 172.488C190.703 172.007 187.153 172.502 183.682 173.444C176.762 175.325 170.33 178.328 164.38 182.322C160.512 184.919 157.167 188.094 154.494 191.932C153.989 192.658 153.609 193.473 153.133 194.312C156.029 195.359 158.772 195.309 161.548 194.922C166.696 194.206 171.543 192.505 176.21 190.304C178.558 189.197 180.791 187.843 183.055 186.56C186.549 184.58 189.673 182.113 192.38 179.146C194.026 177.342 195.271 175.271 196.068 172.799L196.066 172.8Z" fill="#EA3E4A"/>
<path d="M183.717 110.794C183.361 111.68 183.021 112.53 182.614 113.541C181.56 113.15 180.591 112.792 179.622 112.432C178.552 112.034 177.615 111.905 176.587 112.788C175.306 113.889 173.626 114.041 171.984 113.902C169.119 113.66 166.608 112.566 164.605 110.476C163.238 109.05 162.226 107.381 162.853 105.325C163.462 103.331 165.211 102.486 167.063 102.131C169.793 101.608 172.48 101.899 174.922 103.389C176.553 104.383 177.795 105.732 178.349 107.59C178.683 108.713 179.381 109.308 180.475 109.626C181.522 109.931 182.534 110.362 183.716 110.796L183.717 110.794Z" fill="#EA3E4A"/>
<path d="M113.2 147.667C112.175 147.396 111.301 147.166 110.37 146.922C110.778 145.362 111.125 143.963 111.512 142.575C111.749 141.726 111.641 140.983 111.042 140.315C109.829 138.963 109.407 137.335 109.819 135.623C110.509 132.757 111.353 129.928 112.179 127.097C112.307 126.658 112.679 126.29 113.149 125.965C113.634 129.063 111.927 131.847 111.974 134.896C112.781 134.862 112.844 134.269 112.981 133.814C113.529 131.984 114.019 130.137 114.579 128.309C114.767 127.692 115.099 127.121 115.391 126.474C116.343 127.061 116.059 127.722 115.933 128.307C115.529 130.176 115.082 132.033 114.676 133.901C114.563 134.424 114.537 134.964 114.447 135.687C115.453 135.414 115.45 134.783 115.582 134.265C116.041 132.469 116.462 130.664 116.944 128.875C117.113 128.246 117.215 127.513 118.034 127.183C118.608 127.778 118.409 128.421 118.292 129.005C117.947 130.706 117.536 132.396 117.182 134.096C117.044 134.756 116.98 135.433 116.881 136.116C117.805 136.223 117.841 135.577 117.974 135.126C118.531 133.238 119.019 131.329 119.576 129.442C119.758 128.831 119.785 128.049 120.902 127.793C120.948 128.359 121.103 128.853 121.009 129.297C120.366 132.352 119.733 135.411 118.965 138.437C118.609 139.841 117.606 140.875 116.226 141.388C114.939 141.866 114.312 142.756 114.072 144.065C113.855 145.246 113.511 146.402 113.198 147.666L113.2 147.667Z" fill="#EA3E4A"/>
<path d="M196.06 172.807C195.265 175.281 194.02 177.349 192.372 179.154C189.666 182.121 186.544 184.588 183.047 186.568C180.785 187.85 178.552 189.205 176.203 190.312C171.535 192.511 166.689 194.214 161.541 194.93C158.767 195.316 156.022 195.367 153.126 194.32C153.601 193.479 153.981 192.666 154.487 191.94C157.159 188.1 160.505 184.926 164.373 182.33C170.324 178.338 176.754 175.333 183.675 173.452C187.146 172.51 190.696 172.015 194.314 172.496C194.876 172.571 195.431 172.694 196.059 172.808L196.06 172.807ZM168.779 188.163C168.174 186.236 166.776 185.443 165.019 185.218C163.189 184.982 161.723 185.722 160.748 187.278C159.765 188.848 159.54 190.482 160.637 192.216L168.779 188.163ZM182.121 182.802C184.733 184.086 187.949 182.186 188.754 179.945C189.542 177.753 188.446 175.344 186.123 174.465C184.676 177.185 183.151 179.877 182.121 182.802ZM178.128 187.002C176.981 184.822 174.448 184.089 172.521 185.281C170.598 186.472 170.025 188.693 171.25 190.425L178.128 187.002ZM180.552 178.912C178.987 178.286 177.571 177.719 176.025 177.099C175.301 178.774 174.675 180.226 174.048 181.677C175.695 182.232 177.103 182.705 178.613 183.213C179.21 181.889 179.819 180.536 180.552 178.912Z" fill="white"/>
<path d="M168.773 188.162L160.63 192.215C159.534 190.481 159.758 188.847 160.742 187.277C161.716 185.721 163.183 184.981 165.013 185.217C166.77 185.442 168.168 186.235 168.773 188.162Z" fill="#EA3E4A"/>
<path d="M182.123 182.805C183.153 179.88 184.68 177.188 186.125 174.468C188.448 175.347 189.544 177.756 188.756 179.948C187.95 182.188 184.735 184.09 182.123 182.805Z" fill="#EA3E4A"/>
<path d="M178.12 186.999L171.242 190.423C170.017 188.693 170.59 186.47 172.513 185.279C174.44 184.086 176.972 184.82 178.12 186.999Z" fill="#EA3E4A"/>
<path d="M180.553 178.905C179.821 180.529 179.211 181.882 178.614 183.205C177.104 182.698 175.696 182.223 174.05 181.67C174.676 180.219 175.303 178.768 176.026 177.092C177.573 177.712 178.987 178.277 180.553 178.905Z" fill="#EA3E4A"/>
</svg>
