<svg width="368" height="370" viewBox="0 0 368 370" fill="none" xmlns="http://www.w3.org/2000/svg">
<path d="M82.5317 139.267C74.8876 178.467 106.969 196.932 116.634 235.684C121.314 254.447 116.116 267.846 126.385 284.232C144.79 313.598 176.263 317.831 210.507 312.499C269.581 303.301 288.129 237.627 283.647 178.009C279.406 121.607 255.96 69.2748 200.23 59.6081C145.545 50.1225 93.1545 84.7908 82.5317 139.267Z" fill="white"/>
<path d="M269.285 146.625C266.281 140.507 261.959 135.444 256.625 131.226C251.982 127.554 247.03 124.375 241.784 121.623C230.321 115.61 218.19 112.008 205.245 111.222C202.273 111.041 199.308 110.716 196.155 110.44C195.765 108.85 195.396 107.232 194.973 105.627C192.944 97.9328 189.01 94.5394 181.659 94.4273C177.469 94.3637 173.387 95.0231 170.003 97.8483C166.272 100.962 165.166 105.282 164.624 109.828C164.459 111.215 164.483 112.623 164.416 114.132C163.411 114.415 162.494 114.667 161.58 114.932C158.961 115.698 156.34 116.446 153.73 117.242C146.1 119.571 139.039 123.061 132.302 127.342C121.738 134.055 112.766 142.417 105.919 152.872C101.048 160.315 99.1173 168.546 100.26 177.578C101.19 184.938 107.829 192.2 115.459 193.549C120.688 194.473 125.636 193.868 130.517 192.189C135.295 190.548 139.649 188.043 143.686 185C145.091 183.941 146.547 183.036 148.563 182.869C149.41 186.917 150.236 190.861 151.067 194.831C154.82 195.967 158.428 197.058 161.851 198.095C162.136 200.703 162.539 203.141 162.647 205.592C163.088 215.54 163.42 225.491 163.826 235.44C164.102 242.219 164.409 248.999 164.754 255.775C164.825 257.179 164.396 258.179 163.105 258.767C161.427 259.537 159.763 260.342 158.063 261.063C154.559 262.549 154.068 263.369 154.595 267.119C154.918 269.411 155.038 269.587 157.467 269.444C160.012 269.294 162.557 269.047 165.084 268.707C171.975 267.78 178.867 266.832 185.74 265.787C188.236 265.408 188.21 265.272 188.19 262.681C188.168 259.77 188.161 256.861 188.149 253.952C188.118 246.635 187.978 239.314 188.086 231.999C188.224 222.837 188.55 213.676 188.845 204.516C188.882 203.364 188.928 202.105 190.197 200.981C190.762 202.03 191.366 202.808 191.625 203.687C192.966 208.251 194.362 212.809 195.469 217.433C197.051 224.031 198.391 230.688 199.854 237.318C200.726 241.278 201.635 245.231 202.526 249.187C203.473 253.391 204.431 257.595 205.357 261.802C205.61 262.943 206.292 263.441 207.414 263.42C207.943 263.41 208.471 263.397 208.996 263.356C216.717 262.732 224.439 262.127 232.154 261.457C233.903 261.305 235.644 260.979 237.361 260.61C237.873 260.501 238.558 260.064 238.719 259.618C239.732 256.801 237.667 253.451 234.663 252.861C232.85 252.506 231.037 252.145 229.226 251.776C227.576 251.439 226.578 250.521 226.451 248.745C226.368 247.604 226.233 246.461 226.014 245.34C224.599 238.073 223.072 230.827 221.74 223.546C220.073 214.441 218.555 205.309 216.987 196.184C216.886 195.594 216.922 194.98 216.89 194.273C219.483 192.682 222.004 191.069 224.588 189.572C226.076 188.712 226.929 187.772 226.815 185.833C226.587 181.972 226.675 178.097 226.63 174.129C228.823 173.926 230.785 174.747 232.668 175.628C237.189 177.748 241.957 179.008 246.867 179.563C252.092 180.152 257.242 179.719 262.038 177.187C268.392 173.832 271.931 168.631 272.471 161.441C272.864 156.195 271.565 151.281 269.277 146.626L269.285 146.625ZM138.735 164.418C138.32 164.977 137.903 165.579 137.36 165.993C135.409 167.484 133.5 169.07 131.384 170.295C129.834 171.191 128.031 171.897 126.269 172.121C123.139 172.52 121.367 170.49 122.156 167.406C122.598 165.677 123.485 163.929 124.6 162.537C127.691 158.684 131.357 155.394 135.534 152.724C137.288 151.603 139.136 150.629 141.08 149.508C141.31 150.245 141.479 150.647 141.559 151.064C142.066 153.733 142.551 156.409 142.956 158.602C141.383 160.773 140.073 162.605 138.732 164.418L138.735 164.418ZM164.919 196.862C161.564 195.81 158.251 194.591 154.847 193.728C153.094 193.283 152.377 192.472 152.141 190.748C151.75 187.881 151.152 185.041 150.604 181.978C152.435 181.242 154.228 180.567 155.979 179.805C157.105 179.315 158.216 178.762 159.255 178.11C160.135 177.559 160.645 176.694 160.139 175.625C159.609 174.504 158.687 174.567 157.663 174.921C156.031 175.486 154.376 175.986 152.732 176.512C152.657 176.313 152.582 176.111 152.507 175.911C153.83 175.421 155.16 174.942 156.478 174.439C157.465 174.062 158.467 173.707 159.409 173.234C160.335 172.768 160.974 172.011 160.645 170.881C160.289 169.647 159.251 169.595 158.279 169.84C156.405 170.314 154.565 170.915 152.713 171.466C152.411 171.555 152.121 171.675 151.823 171.779C151.763 171.618 151.703 171.459 151.643 171.298C153.326 170.645 155.045 170.071 156.676 169.31C157.682 168.84 158.731 168.233 159.441 167.412C160.464 166.227 159.787 164.88 158.216 164.905C157.094 164.924 155.967 165.257 154.868 165.553C153.44 165.938 152.039 166.425 150.628 166.866L150.424 166.364C151.566 165.874 152.715 165.395 153.85 164.89C154.812 164.462 155.854 164.13 156.684 163.515C157.13 163.184 157.54 162.204 157.359 161.769C157.116 161.18 156.312 160.504 155.708 160.458C154.793 160.39 153.828 160.797 152.905 161.071C150.726 161.719 148.559 162.409 146.259 163.121C144.265 153.29 142.314 143.68 140.309 133.789C147.056 136.098 153.501 138.303 159.891 140.491C161.806 151.593 163.631 162.632 165.646 173.636C166.453 178.037 167.068 182.47 168.355 186.81C169.418 190.395 169.591 194.245 170.23 198.452C168.201 197.846 166.554 197.373 164.922 196.859L164.919 196.862ZM184.726 169.528L184.911 171.441L186.788 188.599C181.91 191.646 176.805 194.836 171.514 198.141C167.985 178.588 164.521 159.38 161.037 140.062C167.559 136.387 173.899 132.816 180.315 129.198L184.726 169.528ZM206.636 182.999C206.919 187.465 207.208 191.984 207.507 196.686C207.063 196.617 206.637 196.64 206.287 196.487C200.741 194.01 195.21 191.499 189.66 189.033C188.664 188.591 188.181 187.946 188.077 186.847C187.347 179.131 186.625 171.413 185.801 163.704C185.333 159.327 184.62 154.977 184.107 150.602C183.298 143.69 182.563 136.773 181.809 129.855C181.792 129.705 181.921 129.542 182.114 129.044C182.992 129.257 183.78 129.354 184.493 129.639C189.475 131.637 194.437 133.69 199.423 135.677C200.3 136.026 201.273 136.135 202.199 136.372C203.399 136.68 204.131 137.215 204.171 138.699C204.329 144.596 204.585 150.493 204.902 156.383C205.21 162.1 205.632 167.811 206.02 173.526C206.138 175.283 206.633 182.999 206.633 182.999L206.636 182.999ZM223.736 154.661C222.036 154.482 220.319 154.289 218.602 154.123C217.553 154.022 216.498 153.924 215.445 153.885C214.351 153.842 213.513 154.285 213.355 155.453C213.197 156.631 213.916 157.266 214.972 157.502C216.348 157.807 217.74 158.025 219.125 158.294C219.712 158.408 220.294 158.563 220.83 159.159C219.504 159.057 218.178 158.911 216.849 158.86C215.624 158.81 214.368 158.694 213.176 158.905C211.656 159.172 211.275 160.684 212.504 161.617C213.305 162.224 214.373 162.568 215.373 162.8C217.149 163.21 218.966 163.442 220.713 164.197C218.79 164.05 216.867 163.872 214.944 163.768C212.889 163.657 212.081 164.081 212.004 165.176C211.921 166.317 212.6 167.025 214.475 167.419C216.593 167.867 218.743 168.169 220.823 169.002C219.404 168.882 217.986 168.723 216.567 168.655C215.459 168.6 214.163 168.268 213.703 169.802C213.349 170.98 214.122 171.953 216.033 172.412C218.084 172.904 220.187 173.169 222.267 173.533C222.867 173.638 223.469 173.742 224.308 173.887C224.567 178.354 224.826 182.815 225.089 187.334C219.767 190.51 214.43 193.692 209.001 196.93C208.722 194.378 208.411 191.898 208.194 189.411C208.073 188.007 208.123 186.591 208.078 185.182L206.684 150.085L205.312 137.541C211.075 133.212 216.951 128.797 222.868 124.352C223.599 126.334 224.296 150.848 223.739 154.666L223.736 154.661ZM246.497 158.916C245.322 159.133 243.968 159.238 242.875 158.865C239.723 157.796 236.659 156.464 233.566 155.215C233.252 155.087 232.936 154.858 232.724 154.597C231.039 152.512 229.099 150.77 226.382 150.029C226.259 146.759 226.145 143.696 226.015 140.27C226.921 140.392 227.672 140.395 228.362 140.599C234.577 142.446 240.276 145.327 245.431 149.271C247.137 150.576 248.558 152.125 249.224 154.219C250.003 156.666 249.023 158.451 246.497 158.914L246.497 158.916Z" fill="#EA3E4A"/>
<path d="M195.46 149.754C195.22 151.29 195.009 152.623 194.712 154.528C194.025 152.702 193.544 151.42 192.92 149.755C191.655 150.684 190.593 151.466 188.998 152.636C189.737 150.891 190.228 149.733 190.863 148.233C189.394 147.904 188.092 147.61 186.369 147.223C187.876 146.589 189.05 146.094 190.542 145.467C189.624 144.135 188.854 143.016 187.778 141.453C189.339 142.121 190.529 142.627 192.057 143.28C192.359 141.778 192.625 140.46 192.997 138.608C193.715 140.301 194.253 141.568 194.924 143.153C196.205 142.084 197.242 141.214 198.281 140.347C198.392 140.409 198.503 140.474 198.614 140.537C198.056 141.815 197.495 143.093 196.792 144.701C198.423 144.957 199.754 145.165 201.579 145.45C199.868 146.165 198.636 146.678 197.08 147.327C198.046 148.686 198.835 149.795 199.899 151.292C198.244 150.72 196.932 150.264 195.449 149.753L195.46 149.754Z" fill="#EA3E4A"/>
<path d="M202.205 136.373C201.28 136.136 200.309 136.026 199.429 135.678C194.443 133.691 189.481 131.635 184.499 129.639C183.787 129.355 182.998 129.257 182.12 129.045C181.927 129.542 181.799 129.706 181.815 129.856C182.572 136.773 183.304 143.693 184.113 150.603C184.626 154.975 185.339 159.325 185.807 163.705C186.634 171.411 187.356 179.131 188.083 186.848C188.187 187.947 188.667 188.589 189.667 189.034C195.216 191.5 200.748 194.013 206.293 196.487C206.64 196.644 207.066 196.618 207.513 196.687C207.215 191.985 206.925 187.466 206.642 183C206.642 183 206.147 175.286 206.029 173.526C205.642 167.814 205.219 162.101 204.911 156.383C204.594 150.493 204.338 144.596 204.18 138.7C204.14 137.215 203.405 136.681 202.208 136.372L202.205 136.373ZM197.094 147.311C198.06 148.67 198.849 149.779 199.913 151.276C198.258 150.704 196.946 150.248 195.463 149.737C195.224 151.273 195.013 152.606 194.715 154.51C194.028 152.684 193.547 151.403 192.923 149.738C191.659 150.667 190.596 151.449 189.002 152.619C189.74 150.874 190.231 149.715 190.866 148.216C189.397 147.887 188.095 147.592 186.373 147.206C187.88 146.572 189.053 146.076 190.545 145.45C189.627 144.118 188.857 142.998 187.781 141.436C189.343 142.104 190.532 142.61 192.06 143.263C192.362 141.76 192.628 140.442 193.001 138.591C193.718 140.283 194.256 141.55 194.928 143.136C196.209 142.066 197.245 141.197 198.285 140.33C198.395 140.392 198.506 140.457 198.617 140.52C198.059 141.797 197.499 143.076 196.796 144.684C198.427 144.939 199.757 145.148 201.583 145.433C199.871 146.147 198.639 146.66 197.083 147.31L197.094 147.311Z" fill="white"/>
<path d="M161.033 140.058C164.518 159.376 167.985 178.586 171.51 198.137C176.802 194.832 181.906 191.642 186.784 188.595C186.141 182.72 181.79 142.719 180.311 129.192C173.893 132.809 167.554 136.381 161.033 140.055L161.033 140.058Z" fill="white"/>
<path d="M215.441 153.887C216.494 153.926 217.549 154.024 218.598 154.125C220.318 154.291 222.035 154.484 223.732 154.663C224.289 150.842 223.589 126.331 222.861 124.35C216.944 128.797 211.065 133.21 205.305 137.539L206.677 150.082L208.071 185.179C208.116 186.588 208.066 188.007 208.187 189.408C208.401 191.896 208.714 194.375 208.994 196.927C214.423 193.689 219.76 190.504 225.082 187.331C224.819 182.812 224.56 178.351 224.301 173.885C223.462 173.739 222.86 173.637 222.259 173.53C220.18 173.166 218.074 172.901 216.026 172.409C214.114 171.95 213.342 170.974 213.695 169.799C214.156 168.265 215.452 168.598 216.56 168.652C217.982 168.723 219.397 168.88 220.816 168.999C218.736 168.166 216.586 167.864 214.468 167.416C212.593 167.022 211.916 166.314 211.996 165.173C212.076 164.075 212.885 163.654 214.937 163.765C216.862 163.869 218.783 164.047 220.706 164.194C218.959 163.442 217.142 163.207 215.366 162.797C214.363 162.566 213.298 162.222 212.497 161.614C211.268 160.683 211.649 159.172 213.169 158.902C214.36 158.692 215.617 158.807 216.842 158.857C218.171 158.909 219.497 159.054 220.823 159.156C220.287 158.56 219.708 158.405 219.118 158.291C217.735 158.022 216.34 157.804 214.965 157.499C213.909 157.266 213.19 156.628 213.348 155.45C213.505 154.282 214.347 153.842 215.437 153.882L215.441 153.887Z" fill="white"/>
<path d="M168.353 186.811C167.066 182.471 166.451 178.041 165.644 173.637C163.629 162.634 161.804 151.594 159.889 140.492C153.499 138.304 147.054 136.099 140.307 133.79C142.312 143.682 144.263 153.291 146.257 163.122C148.557 162.41 150.724 161.72 152.903 161.072C153.826 160.798 154.791 160.392 155.706 160.459C156.313 160.505 157.114 161.181 157.357 161.77C157.538 162.205 157.128 163.185 156.682 163.516C155.855 164.131 154.81 164.463 153.848 164.891C152.713 165.396 151.564 165.876 150.422 166.365L150.626 166.868C152.037 166.426 153.438 165.94 154.866 165.554C155.962 165.259 157.092 164.925 158.214 164.906C159.784 164.878 160.462 166.229 159.439 167.414C158.73 168.237 157.68 168.841 156.674 169.311C155.043 170.075 153.322 170.647 151.641 171.299C151.701 171.46 151.761 171.619 151.821 171.78C152.119 171.676 152.409 171.556 152.711 171.467C154.565 170.913 156.406 170.312 158.277 169.841C159.249 169.596 160.287 169.648 160.643 170.882C160.969 172.012 160.333 172.769 159.407 173.235C158.465 173.708 157.463 174.06 156.477 174.44C155.158 174.943 153.831 175.424 152.505 175.912C152.58 176.112 152.655 176.314 152.73 176.514C154.374 175.988 156.029 175.487 157.661 174.923C158.685 174.568 159.607 174.505 160.137 175.626C160.64 176.695 160.133 177.56 159.253 178.111C158.214 178.763 157.103 179.316 155.977 179.806C154.226 180.57 152.433 181.243 150.602 181.979C151.15 185.042 151.748 187.882 152.139 190.749C152.375 192.47 153.092 193.284 154.845 193.729C158.249 194.592 161.562 195.811 164.918 196.864C166.55 197.375 168.196 197.847 170.225 198.456C169.587 194.249 169.414 190.399 168.35 186.814L168.353 186.811Z" fill="white"/>
<path d="M149.591 148.201C149.394 148.222 149.188 148.17 149.019 148.04C148.476 147.62 147.911 147.202 147.342 146.799C146.984 146.545 146.9 146.048 147.154 145.69C147.408 145.332 147.905 145.248 148.263 145.502C148.849 145.917 149.428 146.349 149.989 146.781C150.336 147.049 150.401 147.548 150.132 147.894C149.995 148.071 149.796 148.176 149.591 148.198L149.591 148.201Z" fill="#EA3E4A"/>
<path d="M215.34 182.006C214.085 182.143 212.794 182.146 211.499 182.016C211.063 181.973 210.743 181.582 210.788 181.146C210.831 180.71 211.223 180.393 211.659 180.435C212.973 180.569 214.278 180.551 215.548 180.38C215.985 180.327 216.382 180.627 216.44 181.063C216.499 181.498 216.193 181.897 215.758 181.955C215.619 181.973 215.479 181.991 215.34 182.006ZM207.68 181.161C207.57 181.173 207.454 181.162 207.34 181.123C205.945 180.656 204.649 180.036 203.486 179.284C203.116 179.045 203.012 178.553 203.251 178.186C203.491 177.817 203.982 177.712 204.349 177.952C205.401 178.63 206.578 179.191 207.847 179.617C208.261 179.755 208.486 180.207 208.348 180.622C208.245 180.926 207.98 181.125 207.68 181.158L207.68 181.161ZM171.897 180.223C170.559 180.358 169.709 179.091 169.055 177.831C168.853 177.443 169.002 176.963 169.393 176.761C169.781 176.559 170.261 176.708 170.463 177.099C171.232 178.575 171.621 178.655 171.721 178.644C171.748 178.641 171.842 178.631 171.992 178.418C172.243 178.057 172.736 177.969 173.097 178.22C173.457 178.47 173.546 178.964 173.295 179.324C172.922 179.86 172.452 180.162 171.894 180.223L171.897 180.223ZM200.983 176.701C200.72 176.73 200.447 176.626 200.271 176.403C199.42 175.319 198.772 174.112 198.234 172.6C198.087 172.187 198.301 171.733 198.714 171.586C199.127 171.44 199.581 171.654 199.728 172.066C200.208 173.412 200.777 174.479 201.519 175.423C201.791 175.768 201.731 176.267 201.385 176.537C201.265 176.633 201.125 176.685 200.983 176.701ZM173.877 175.762C173.801 175.77 173.723 175.768 173.642 175.753C173.212 175.672 172.927 175.256 173.01 174.826L173.108 174.307C173.31 173.23 173.539 172.012 173.841 170.778C173.946 170.352 174.375 170.092 174.802 170.197C175.229 170.302 175.489 170.731 175.384 171.158C175.093 172.348 174.867 173.545 174.669 174.599L174.571 175.121C174.506 175.472 174.217 175.727 173.877 175.764L173.877 175.762ZM168.197 174.519C167.855 174.556 167.515 174.367 167.377 174.031L167.276 173.786C166.841 172.734 166.351 171.539 165.801 170.281C165.624 169.88 165.809 169.412 166.211 169.235C166.612 169.058 167.08 169.244 167.257 169.645C167.814 170.918 168.308 172.121 168.746 173.184L168.847 173.428C169.014 173.833 168.82 174.296 168.415 174.466C168.344 174.495 168.271 174.514 168.198 174.522L168.197 174.519ZM197.911 169.208C197.537 169.249 197.176 169.02 197.064 168.646C196.739 167.552 196.299 166.285 195.522 165.164C195.272 164.802 195.362 164.308 195.72 164.058C196.082 163.809 196.576 163.898 196.826 164.257C197.733 165.564 198.223 166.98 198.585 168.192C198.711 168.612 198.471 169.054 198.051 169.18C198.005 169.193 197.958 169.203 197.911 169.208ZM175.976 167.882C175.842 167.897 175.701 167.878 175.57 167.817C175.17 167.64 174.988 167.17 175.165 166.77C175.805 165.323 176.565 164.132 177.48 163.127C177.774 162.802 178.278 162.779 178.601 163.076C178.926 163.371 178.949 163.874 178.651 164.197C177.853 165.075 177.185 166.126 176.615 167.415C176.495 167.684 176.247 167.852 175.974 167.882L175.976 167.882ZM164.891 167.052C164.57 167.087 164.246 166.923 164.095 166.617C163.481 165.385 162.839 164.19 162.184 163.066C161.964 162.688 162.092 162.201 162.472 161.98C162.85 161.761 163.338 161.888 163.558 162.269C164.228 163.423 164.889 164.648 165.517 165.911C165.712 166.302 165.553 166.78 165.159 166.975C165.074 167.019 164.983 167.045 164.891 167.055L164.891 167.052ZM193.26 162.796C193.097 162.814 192.929 162.782 192.778 162.695C191.715 162.081 190.513 161.635 189.205 161.363C188.775 161.274 188.5 160.854 188.589 160.424C188.677 159.993 189.097 159.718 189.528 159.807C191.002 160.112 192.365 160.62 193.573 161.316C193.953 161.536 194.084 162.022 193.864 162.4C193.732 162.628 193.505 162.767 193.263 162.793L193.26 162.796ZM181.443 162.092C181.109 162.128 180.772 161.947 180.63 161.622C180.453 161.22 180.636 160.75 181.038 160.576C182.311 160.016 183.737 159.665 185.239 159.544C185.677 159.509 186.059 159.835 186.096 160.27C186.13 160.708 185.806 161.079 185.369 161.127C184.044 161.235 182.789 161.542 181.679 162.031C181.603 162.064 181.525 162.085 181.446 162.094L181.443 162.092ZM160.778 160.004C160.497 160.034 160.206 159.912 160.035 159.661C159.465 158.827 158.866 158.005 158.258 157.22C158.054 156.954 157.847 156.692 157.637 156.436C157.363 156.095 157.415 155.594 157.758 155.32C158.098 155.043 158.599 155.098 158.873 155.44C159.086 155.705 159.299 155.974 159.513 156.249C160.139 157.059 160.756 157.905 161.346 158.767C161.593 159.129 161.501 159.624 161.139 159.871C161.028 159.947 160.905 159.99 160.778 160.004ZM155.656 153.657C155.416 153.683 155.17 153.601 154.993 153.415C154.078 152.45 153.11 151.507 152.114 150.609C151.789 150.314 151.763 149.814 152.055 149.486C152.35 149.161 152.85 149.136 153.178 149.428C154.203 150.351 155.201 151.326 156.146 152.32C156.447 152.638 156.436 153.14 156.117 153.441C155.987 153.565 155.824 153.636 155.658 153.654L155.656 153.657Z" fill="#EA3E4A"/>
<path d="M219.733 180.877C219.394 180.914 219.057 180.727 218.917 180.396C218.745 179.992 218.933 179.526 219.338 179.354C219.949 179.096 220.552 178.79 221.129 178.447C221.507 178.225 221.994 178.348 222.217 178.725C222.442 179.103 222.317 179.59 221.939 179.813C221.299 180.192 220.633 180.531 219.956 180.815C219.882 180.847 219.807 180.866 219.733 180.874L219.733 180.877Z" fill="#EA3E4A"/>
</svg>
