<svg preserveAspectRatio="none" width="100%" height="100%" overflow="visible" style="display: block;" viewBox="0 0 16.3022 25.1638" fill="none" xmlns="http://www.w3.org/2000/svg">
<g id="Group 1430103254">
<path id="Vector" d="M0.136677 25.1613C0.111021 22.82 0.0853652 20.4786 0.0585938 18.1372C0.0585938 18.087 0.0585938 18.0368 0.0931735 17.9844C0.258264 18.5789 0.397699 19.1813 0.596253 19.7647C0.787 20.3246 1.00006 20.8857 1.27223 21.41C1.94263 22.7017 3.15739 23.1936 4.55954 22.791C5.3928 22.5522 6.1424 22.1351 6.83177 21.632C7.73865 20.9705 8.60091 20.2477 9.48102 19.5505C9.58699 19.4668 9.68515 19.372 9.83463 19.2404C9.86586 21.2304 9.89486 23.1557 9.92498 25.1011C9.45871 25.1234 9.03595 25.1435 8.61318 25.1636H0.136677V25.1613Z" fill="var(--fill-0, #2B1A12)"/>
<path id="Vector_2" d="M13.723 16.4529C14.1124 16.5165 14.5039 16.4317 14.8698 16.3313C15.2357 16.2298 15.5704 16.0167 15.8995 15.8617C15.8995 16.1551 15.5146 16.5968 15.065 16.7229C14.7081 16.8233 14.3399 16.8813 13.9774 16.9638C13.8781 16.9861 13.7822 17.0263 13.6851 17.0575C13.6929 17.0955 13.7018 17.1334 13.7096 17.1702C14.1469 17.1055 14.5854 17.0408 15.0226 16.9761C15.036 17.0006 15.0505 17.0263 15.0639 17.0508C14.8665 17.168 14.6802 17.3175 14.4682 17.3967C13.8569 17.622 13.2177 17.6577 12.5718 17.6086C12.2751 17.5863 11.9761 17.5763 11.6838 17.5249C11.3257 17.4614 11.0758 17.5963 10.8137 17.8295C9.74388 18.7799 8.68523 19.7449 7.56299 20.6306C6.84569 21.1962 6.04585 21.6681 5.24265 22.1087C4.83102 22.3352 4.33906 22.4624 3.8683 22.5237C3.00487 22.6353 2.311 22.2816 1.80342 21.571C1.24565 20.7901 1.00469 19.8799 0.75481 18.9774C0.298552 17.3119 0.0352832 15.6129 0.00181681 13.8894C-0.0126853 13.1609 0.0609408 12.4224 0.175842 11.7018C0.348752 10.6231 0.623176 9.40935 0.623176 9.40935C0.623176 9.40935 1.02366 8.18113 1.27354 7.70479C1.65394 6.9808 1.78334 6.99084 1.79227 5.61426C1.79561 5.1435 1.76215 4.76087 1.78 4.28787C1.81012 3.53042 1.87705 3.36866 2.00645 2.65583C2.24518 1.34953 3.0361 0.522907 4.31006 0.170394C5.21142 -0.0794878 6.11278 -0.0627546 6.99294 0.275256C7.84522 0.602111 8.46546 1.19893 8.66515 2.08579C8.88491 3.05854 9.35679 3.90078 9.80189 4.76533C9.88109 4.92039 9.95583 5.07768 10.0573 5.28629C9.77846 5.33426 9.53862 5.3945 9.29543 5.41346C9.0132 5.43577 8.88826 5.54286 8.89495 5.84518C8.90387 6.27132 8.87152 6.69969 8.84475 7.12582C8.81686 7.57427 8.54802 7.84312 8.09622 7.86543C7.75486 7.88216 7.41239 7.86878 7.02641 7.86878C6.99629 8.36296 7.04314 8.59723 7.17478 8.85827C7.23613 8.97875 7.29526 9.14496 7.39566 9.25875C8.14084 10.1121 8.83806 11.009 9.12698 12.119C9.36236 13.0215 9.47392 13.9574 9.62786 14.8811C9.64013 14.9547 9.57655 15.0841 9.51073 15.1209C8.0806 15.9107 6.64378 16.6916 5.20919 17.4736C5.19468 17.4814 5.17349 17.4781 5.11771 17.4837C5.09763 17.1735 5.07532 16.8645 5.05747 16.5544C4.98496 15.3117 4.91357 14.0679 4.83994 12.8251C4.83548 12.7515 4.83771 12.6645 4.79978 12.6098C4.7585 12.5518 4.67372 12.4994 4.60679 12.4972C4.56552 12.4961 4.51197 12.5898 4.48185 12.6489C4.46289 12.6857 4.47627 12.7404 4.4785 12.7861C4.56998 14.4282 4.65922 16.0703 4.75516 17.7124C4.77635 18.0716 4.82878 18.0972 5.13668 17.931C6.64712 17.1122 8.15981 16.2978 9.65798 15.4578C9.90452 15.3195 10.131 15.0942 10.2872 14.8566C10.5883 14.3992 10.9632 14.0578 11.4562 13.8191C11.9147 13.5971 12.3464 13.3205 12.7971 13.0817C12.8897 13.0326 13.0682 12.9947 13.1151 13.0427C13.1887 13.1174 13.2367 13.2892 13.201 13.3852C13.1396 13.5514 13.0247 13.7087 12.8975 13.8358C12.748 13.9853 12.5517 14.0868 12.3944 14.2307C12.313 14.3055 12.2037 14.4527 12.2304 14.5174C12.2695 14.6123 12.4145 14.7138 12.5205 14.7205C13.0381 14.7517 13.559 14.7617 14.0778 14.7595C14.5753 14.7573 15.0204 14.5777 15.4354 14.3122C15.5369 14.2475 15.6462 14.1616 15.7567 14.1549C15.885 14.1471 16.0188 14.214 16.1505 14.2486C16.1148 14.3702 16.1181 14.5409 16.0367 14.6044C15.5458 14.9904 15.0338 15.3441 14.3823 15.4099C14.2072 15.4277 14.0343 15.4701 13.8636 15.5114C13.81 15.5248 13.7654 15.5739 13.6818 15.6296C13.7587 15.6653 13.7967 15.6999 13.8324 15.6966C14.5006 15.6408 15.1732 15.5973 15.7098 15.1154C15.7924 15.0417 15.8816 14.9592 15.982 14.9257C16.0791 14.8934 16.1951 14.9168 16.3022 14.9157C16.2921 15.025 16.3245 15.1812 16.2654 15.237C15.8437 15.6274 15.4254 16.0323 14.8218 16.1339C14.5285 16.1829 14.2362 16.2365 13.945 16.2934C13.8625 16.3101 13.7855 16.348 13.7052 16.3759C13.7108 16.4027 13.7163 16.4295 13.7219 16.4563L13.723 16.4529Z" fill="var(--fill-0, #2B1A12)"/>
</g>
</svg>
