<svg preserveAspectRatio="none" width="100%" height="100%" overflow="visible" style="display: block;" viewBox="0 0 14.0366 20.9367" fill="none" xmlns="http://www.w3.org/2000/svg">
<g id="Group 1430103255">
<g id="Group 1430103339">
<path id="Vector" d="M12.6264 16.4287C12.6236 16.4363 12.6217 16.4428 12.6189 16.4503C12.4705 16.7847 12.2865 17.3368 12.1137 17.6523C11.7982 18.228 11.2948 18.5661 10.6544 18.6947C10.5276 18.7201 10.3905 18.6909 10.26 18.7032C8.74152 18.8403 7.3395 18.3914 5.95533 17.8533C5.71493 17.7594 5.46796 17.6796 5.23601 17.5678C4.85099 17.3819 4.46316 17.3575 4.05185 17.4617C3.8199 17.5209 3.58232 17.5556 3.34756 17.6016C2.95221 17.6786 2.5456 17.6721 2.15495 17.5744C1.47413 17.4044 0.868432 17.1218 0.423317 16.5489C0.337863 16.4391 0.226115 16.3489 0.125635 16.2494C0.0242164 16.1489 -0.053726 16.0381 0.0467536 15.9001C0.151928 15.7564 0.3003 15.7075 0.459001 15.8005C0.64024 15.9076 0.823358 16.0193 0.982059 16.1564C1.59433 16.687 2.26388 16.5809 2.9447 16.3489C2.95409 16.3461 2.96348 16.3414 2.97193 16.3367C3.07617 16.2766 3.0602 16.1151 2.94939 16.0681C2.93249 16.0616 2.91559 16.055 2.89868 16.0512C2.6395 15.993 2.37563 15.9573 2.11551 15.9019C1.86947 15.8503 1.76148 15.716 1.78965 15.5216C1.81782 15.33 1.95868 15.2455 2.21974 15.2737C2.67894 15.3216 3.13439 15.3563 3.59641 15.2606C3.95137 15.1864 4.29976 15.2653 4.6059 15.4709C4.79653 15.5986 4.99936 15.6381 5.22662 15.6324C6.50937 15.6033 7.79307 15.5836 9.07583 15.5601C9.36224 15.5545 9.3829 15.5385 9.36882 15.2474C9.30496 13.8801 9.23829 12.5119 9.17067 11.1447C9.16786 11.0827 9.16316 11.0132 9.13217 10.9644C9.10306 10.9193 9.03545 10.8695 8.98944 10.8733C8.94342 10.877 8.87769 10.9371 8.86454 10.985C8.842 11.0648 8.84952 11.155 8.85327 11.2404C8.91337 12.4753 8.97535 13.7102 9.03545 14.945C9.03733 14.9929 9.03827 15.0408 9.03733 15.0915C9.03733 15.1751 8.96878 15.2437 8.88614 15.2446C7.65691 15.269 6.4427 15.2934 5.21535 15.3188C5.13271 15.3207 5.06322 15.2568 5.05759 15.1742C5.05665 15.1554 5.05571 15.1375 5.05665 15.1188C5.11769 13.6735 5.09327 12.2236 5.36466 10.7925C5.58158 9.64497 6.0605 8.62045 6.79767 7.72271C7.02116 7.45132 7.11131 7.18651 7.06906 6.84093C7.04464 6.64091 6.96764 6.61274 6.96764 6.61274C6.96764 6.61274 6.91317 6.58739 6.79297 6.59396C6.59013 6.60429 6.38636 6.61368 6.18258 6.6118C5.69615 6.60523 5.46326 6.38079 5.43603 5.89905C5.41631 5.53939 5.38626 5.18067 5.38532 4.82101C5.38532 4.61442 5.29798 4.5515 5.11017 4.5346C4.95053 4.51957 4.79183 4.48952 4.61717 4.45759C4.51387 4.43881 4.4594 4.32331 4.50917 4.23128C4.6876 3.90543 4.85663 3.61056 4.99842 3.30255C5.17966 2.90814 5.37123 2.5081 5.47547 2.08928C5.79569 0.808402 6.68592 0.0393111 8.01469 0.0017486C8.43163 -0.00952014 8.86266 0.0336767 9.2674 0.131339C10.4506 0.417753 11.0638 1.35869 11.2451 2.56539C11.3897 3.53168 11.647 5.56099 12.2536 6.59959C12.8452 7.75464 15.7234 9.09468 12.6217 16.4269L12.6264 16.4287Z" fill="var(--fill-0, #2B1A12)"/>
</g>
<path id="Vector_2" d="M12.5646 20.9263C12.4238 20.9301 12.2839 20.9367 12.143 20.9367C9.83684 20.9367 7.52971 20.9339 5.22352 20.9329C5.14558 20.9329 5.06858 20.9329 4.97656 20.9329V17.8098C5.28925 17.93 5.57001 18.0398 5.85171 18.145C6.8771 18.5291 7.90437 18.9037 9.003 19.0267C9.56077 19.0887 10.1167 19.1385 10.6772 19.0211C11.4341 18.8634 12.0069 18.4624 12.4041 17.8032C12.4557 17.7168 12.5111 17.6323 12.5646 17.5469V20.9273V20.9263Z" fill="var(--fill-0, #2B1A12)"/>
</g>
</svg>
