<svg preserveAspectRatio="none" width="100%" height="100%" overflow="visible" style="display: block;" viewBox="0 0 39.1295 19.0448" fill="none" xmlns="http://www.w3.org/2000/svg">
<g id="Group 1430103266">
<path id="Vector" d="M4.85932 15.6333C3.40429 14.8105 1.94926 13.9877 0.494227 13.165C0.431113 13.1293 0.365735 13.0958 0.307087 13.0531C0.0747244 12.8846 0.0533057 12.6642 0.266938 12.4755C0.374052 12.381 0.505975 12.3101 0.634674 12.2448C1.07542 12.0209 1.51457 11.7935 1.96375 11.5884C2.24088 11.4621 2.43223 11.2808 2.57912 11.0086C3.25646 9.75485 3.94772 8.50845 4.64391 7.26484C4.99211 6.64285 5.08786 6.63679 5.69477 6.97796C7.69671 8.10246 9.7057 9.21539 11.7115 10.3331C11.8636 10.4181 12.014 10.5071 12.1657 10.5929C12.3493 10.6967 12.3911 10.8528 12.3169 11.0381C12.2575 11.1857 12.1867 11.3304 12.1079 11.4689C11.3589 12.782 10.6034 14.0914 9.86195 15.4088C9.79896 15.5202 9.80116 15.684 9.81321 15.8198C9.86305 16.3839 9.92897 16.947 9.98628 17.5103C9.99638 17.6113 10.0069 17.7151 9.9942 17.8148C9.95684 18.1063 9.80975 18.1907 9.54483 18.0585C9.01195 17.7923 8.48449 17.5156 7.95724 17.2385C6.92833 16.6968 5.90113 16.1521 4.87329 15.6086C4.86856 15.6169 4.86405 15.6249 4.85932 15.6333ZM8.50395 9.16306C8.50782 9.15622 8.51147 9.14975 8.51534 9.14291C7.51448 8.61108 6.51491 8.07696 5.51211 7.54855C5.25308 7.41211 5.2148 7.43011 5.04425 7.65631C4.26761 8.68633 3.81202 9.89489 3.17687 11.0039C3.08969 11.1563 3.13068 11.2844 3.27618 11.3767C3.37431 11.4392 3.47716 11.4933 3.57679 11.5532C4.49897 12.1053 5.41943 12.6604 6.34376 13.2086C6.56816 13.3416 6.80278 13.4582 7.03685 13.574C7.72686 13.9155 8.42273 14.2457 9.10925 14.5943C9.5569 14.8213 9.58991 14.826 9.8515 14.3758C10.2531 13.6841 10.6472 12.9882 11.0427 12.2931C11.23 11.9645 11.4092 11.6318 11.601 11.3057C11.712 11.1176 11.6787 10.9768 11.4974 10.8653C11.3984 10.8043 11.2992 10.7437 11.1981 10.6865C10.3002 10.1783 9.40198 9.67087 8.50395 9.16306Z" fill="var(--fill-0, #2B1A12)"/>
<path id="Vector_2" d="M36.0551 8.17751C36.8369 9.51841 37.6214 10.8584 38.3971 12.2029C38.4961 12.3749 38.5693 12.5669 38.6228 12.758C38.7147 13.0858 38.6203 13.3722 38.3661 13.5994C38.2298 13.7211 38.0972 13.8521 37.9434 13.9472C36.8263 14.6404 35.7061 15.3284 34.5813 16.0089C34.4436 16.0923 34.2759 16.1283 34.1196 16.1767C33.5736 16.3462 33.1097 16.2546 32.7775 15.7474C32.6675 15.5796 32.5448 15.4194 32.4367 15.2505C31.5578 13.8829 30.6662 12.5231 29.808 11.143C29.2872 10.3062 28.8172 9.43798 28.326 8.58328C28.0987 8.18784 27.8571 7.79849 27.6528 7.39108C27.3544 6.79657 27.441 6.38703 27.9957 6.01967C29.168 5.24361 30.3613 4.49913 31.5466 3.74347C31.623 3.69463 31.7067 3.65481 31.7904 3.61895C32.5777 3.28474 32.9416 3.36173 33.4362 4.06285C33.8995 4.71868 34.3195 5.40587 34.7452 6.08768C35.1803 6.78498 35.5985 7.49254 36.0243 8.19554C36.0341 8.18956 36.0445 8.1833 36.0543 8.17732L36.0551 8.17751ZM35.2607 8.29316C35.2644 8.29089 35.2686 8.28833 35.2724 8.28605C34.7038 7.34715 34.1423 6.40398 33.5643 5.47077C33.0634 4.66171 33.0359 4.66814 32.2178 5.18921C31.2465 5.80823 30.2765 6.43035 29.2893 7.02306C28.5086 7.49131 28.4742 7.48646 28.9339 8.25621C29.8244 9.74779 30.7434 11.222 31.6503 12.7036C31.9463 13.1872 32.2323 13.6774 32.5401 14.1538C32.8442 14.6242 32.9662 14.6665 33.4282 14.3912C34.59 13.6986 35.7459 12.9941 36.8909 12.2737C37.397 11.9557 37.4119 11.8657 37.1051 11.3463C36.5006 10.3226 35.8765 9.31007 35.2607 8.29316ZM35.9696 14.6383C36.2299 14.4807 36.3143 14.1342 36.1534 13.8834C35.9892 13.6271 35.6577 13.5601 35.3948 13.7295C35.143 13.8916 35.0831 14.2201 35.2553 14.4896C35.4064 14.7263 35.718 14.7913 35.9701 14.638L35.9696 14.6383ZM29.7234 5.85846C30.2898 5.75561 30.8895 5.36291 31.0419 5.01312C30.5542 5.21533 30.082 5.44216 29.7234 5.85846Z" fill="var(--fill-0, #2B1A12)"/>
<g id="Group">
<path id="Vector_3" d="M24.6521 12.2906C24.8645 12.3113 24.9617 12.3029 25.046 12.3316C25.4403 12.4675 25.7847 12.3557 26.1005 12.1243C26.7038 11.6827 27.2988 11.2299 27.9022 10.7889C28.0729 10.6641 28.2606 10.5619 28.5156 10.4023C28.5465 10.6692 28.5797 10.8299 28.5814 10.9911C28.6027 12.7119 28.6055 14.4327 28.6448 16.1529C28.6561 16.658 28.4713 16.9799 28.0662 17.272C27.4763 17.6973 26.9314 18.1855 26.3785 18.6597C26.0651 18.9288 25.728 19.0973 25.3061 19.0299C24.9055 18.9664 24.7589 18.8153 24.7347 18.4046C24.71 17.9939 24.7044 17.5821 24.6982 17.1709C24.6808 16.0299 24.6656 14.8894 24.6527 13.7484C24.6476 13.2844 24.6521 12.8198 24.6521 12.29L24.6521 12.2906ZM27.9387 12.0394C27.7212 12.1928 27.5735 12.2979 27.4252 12.4024C27.2724 12.5097 27.1212 12.6198 26.9656 12.7237C26.3696 13.1203 26.2583 13.4698 26.5302 14.2378C26.7977 14.0552 27.042 13.8625 27.31 13.7102C27.8448 13.4063 28.0527 12.9557 27.9774 12.358C27.9684 12.2844 27.9595 12.2113 27.9381 12.04L27.9387 12.0394Z" fill="var(--fill-0, #2B1A12)"/>
<path id="Vector_4" d="M25.7717 9.08528C25.5279 9.45944 25.0829 9.55494 24.7385 9.78865C24.3986 10.0184 24.0402 10.2201 23.6925 10.4392C23.3329 10.6656 22.9773 10.8976 22.5537 11.1701C22.929 11.5044 23.2941 11.6623 23.7099 11.5561C24.047 11.4701 24.3823 11.3285 24.6807 11.1493C25.4009 10.7179 26.0986 10.2482 26.8076 9.79764C26.961 9.69989 27.1245 9.61843 27.2846 9.5291C27.5144 9.9718 27.5003 10.0521 27.1627 10.2903C26.3846 10.8392 25.6132 11.3982 24.8217 11.9263C24.4762 12.1566 24.32 12.4212 24.3284 12.8465C24.3616 14.5274 24.3649 16.2095 24.379 17.8909C24.3801 18.0218 24.3812 18.1527 24.3795 18.2831C24.3734 18.7898 24.1964 18.9954 23.6896 19.0106C23.2352 19.0241 22.802 18.9038 22.4076 18.6701C22.1812 18.5359 22.0767 18.3347 22.0739 18.0656C22.0531 15.8611 22.0301 13.6566 21.9981 11.4527C21.9941 11.1769 22.0936 10.9881 22.3205 10.851C23.3262 10.242 24.3295 9.62853 25.3397 9.02685C25.447 8.9628 25.5925 8.96337 25.72 8.93359L25.7711 9.0864L25.7717 9.08528Z" fill="var(--fill-0, #2B1A12)"/>
</g>
<g id="Group_2">
<path id="Vector_5" d="M23.4499 6.74398C23.3887 8.5678 22.3403 10.3364 20.3476 11.5103C18.9249 12.3484 17.3837 12.3254 15.8392 11.8846C15.363 11.7484 14.9024 11.5408 14.4535 11.3269C11.5669 9.95243 10.4471 6.12299 11.9867 3.33229C12.9279 1.62644 14.3023 0.387145 16.3262 0.0884478C17.2689 -0.05098 18.2111 -0.055805 19.1222 0.297591C19.2552 0.349072 19.3877 0.401086 19.5223 0.448814C22.3843 1.46449 23.4166 3.85085 23.4504 6.74398L23.4499 6.74398ZM15.2354 6.15678C15.237 7.28722 16.2157 8.26481 17.3595 8.27769C18.5785 8.29163 19.5958 7.29901 19.6033 6.08867C19.6108 4.87297 18.6144 3.88357 17.3853 3.88518C16.2028 3.88679 15.2338 4.91051 15.2354 6.15678Z" fill="var(--fill-0, #2B1A12)"/>
<path id="Vector_6" d="M17.4124 5.61376C17.658 5.6025 17.85 5.78966 17.85 6.04009C17.85 6.28141 17.6666 6.48948 17.4349 6.51039C17.1941 6.53238 16.9957 6.3581 16.9726 6.10444C16.9485 5.84436 17.1442 5.62664 17.4124 5.6143L17.4124 5.61376Z" fill="var(--fill-0, #2B1A12)"/>
</g>
</g>
</svg>
