<svg preserveAspectRatio="none" width="100%" height="100%" overflow="visible" style="display: block;" viewBox="0 0 30.5526 23.4829" fill="none" xmlns="http://www.w3.org/2000/svg">
<g id="Group">
<path id="Vector" d="M11.127 14.4277C13.8496 13.5601 16.5794 13.5673 19.3066 14.4092C19.5962 14.4984 19.8727 14.6809 20.1465 14.875C20.2813 14.9706 20.352 15.1091 20.334 15.293L20.3203 15.375C20.2149 15.8479 20.3205 16.3077 20.416 16.7275C20.4413 16.8388 20.4549 16.9156 20.458 16.9717C20.461 17.0265 20.4528 17.0449 20.4492 17.0508C20.4456 17.0566 20.4333 17.0718 20.3848 17.0938C20.3343 17.1165 20.2615 17.1397 20.1523 17.168C19.735 17.2759 19.3168 17.3637 18.8906 17.4639C18.7592 17.4946 18.6147 17.5254 18.4756 17.5684L18.4746 17.5693C18.1299 17.6765 17.8742 17.7997 17.7256 18.0234C17.5874 18.2316 17.563 18.4976 17.583 18.8359C17.3383 19.0704 17.1776 19.2882 17.1563 19.5244C17.1345 19.7676 17.2644 19.9781 17.4629 20.1885C17.4599 20.3045 17.4506 20.4075 17.4453 20.5322C17.4398 20.6637 17.4431 20.8073 17.4932 20.9424C17.542 21.0738 17.6384 21.1764 17.7314 21.2637C17.8206 21.3473 17.9016 21.4168 17.9902 21.5039C17.9904 21.5099 17.9911 21.5165 17.9912 21.5234C17.9918 21.5565 17.9925 21.5977 17.9951 21.6416C18.0003 21.7285 18.0133 21.8379 18.0566 21.9414C18.1002 22.0454 18.1698 22.1315 18.2354 22.2051C18.2811 22.2564 18.3187 22.2988 18.3574 22.3408C18.0869 22.8195 17.6681 23.0908 17.0664 23.1875C15.7841 23.3936 14.5151 23.3768 13.2402 23.1367C12.7713 23.0483 12.4627 22.7818 12.2051 22.3516C12.3355 22.2588 12.4421 22.1449 12.5098 22.0078C12.5874 21.8504 12.6055 21.6744 12.5674 21.4863C12.6391 21.418 12.7088 21.3569 12.791 21.2793C12.8848 21.1907 12.9825 21.0864 13.04 20.9551C13.0962 20.8268 13.0979 20.6856 13.0918 20.5557C13.0861 20.4345 13.0766 20.3243 13.0732 20.1943C13.1296 20.1459 13.2054 20.0773 13.2637 19.9922C13.3512 19.8643 13.4089 19.6918 13.3447 19.4814C13.3035 19.3465 13.2391 19.2222 13.1689 19.1006C13.1025 18.9854 13.0355 18.8774 12.9639 18.748C12.9995 18.4674 12.9827 18.2227 12.8457 18.0205C12.7013 17.8074 12.4494 17.6754 12.1035 17.5762C11.5796 17.4261 11.0342 17.3212 10.5166 17.1982C10.3862 17.1672 10.2592 17.1303 10.1006 17.0869C10.1062 16.9747 10.1104 16.8805 10.1279 16.7813C10.2001 16.3761 10.2921 15.943 10.2432 15.4912L10.2129 15.2959L10.2041 15.2217C10.2019 15.0516 10.313 14.9004 10.4834 14.7725C10.6793 14.6252 10.9023 14.4995 11.127 14.4277Z" fill="var(--fill-0, #81D5F1)" stroke="var(--stroke-0, #2B1A12)" stroke-width="0.305526"/>
<path id="Vector_2" d="M17.7398 18.8965C17.192 19.4024 17.1766 19.69 17.6188 20.1341C17.6188 20.4161 17.5583 20.6786 17.6364 20.8895C17.7077 21.0812 17.9292 21.2167 18.1405 21.435C18.1498 21.5257 18.1307 21.7221 18.1978 21.8822C18.2648 22.0423 18.4179 22.1662 18.5454 22.3202C18.2532 22.9053 17.7719 23.2287 17.091 23.3381C15.791 23.5471 14.5041 23.5299 13.2116 23.2865C12.6386 23.1785 12.2844 22.8289 11.9991 22.3011C12.3435 22.1136 12.5171 21.8161 12.4003 21.4336C12.5855 21.2427 12.8108 21.098 12.9002 20.8937C12.9821 20.7066 12.9174 20.4547 12.9174 20.128C13.0347 20.0265 13.2944 19.8385 13.199 19.5257C13.1268 19.2898 12.9686 19.0798 12.808 18.7829C12.8955 18.1988 12.7331 17.9158 12.061 17.7231C11.5411 17.5742 11.0082 17.4722 10.4813 17.347C10.317 17.3079 10.1546 17.2605 9.94141 17.2032C9.95304 17.0473 9.95165 16.8984 9.97725 16.7541C10.0615 16.2812 10.1616 15.8144 10.0629 15.3266C10.0042 15.0375 10.1806 14.809 10.3915 14.6508C10.5977 14.4958 10.836 14.3608 11.0808 14.2826C13.8338 13.4053 16.5953 13.4127 19.3516 14.2635C19.6671 14.3608 19.9613 14.5568 20.2345 14.7504C20.4421 14.8974 20.5324 15.1264 20.4696 15.408C20.3727 15.8423 20.4682 16.2686 20.565 16.694C20.6664 17.1404 20.6283 17.2018 20.1903 17.3154C19.7709 17.4238 19.3469 17.5137 18.9252 17.6128C18.7898 17.6444 18.653 17.6738 18.5203 17.7147C17.8389 17.9265 17.683 18.1574 17.7384 18.896L17.7398 18.8965ZM19.4982 15.7892C19.4833 15.7469 19.4689 15.705 19.454 15.6626C19.3041 15.7092 19.1519 15.7515 19.0039 15.8037C18.5245 15.9735 18.0591 16.2114 17.5657 16.3086C15.5043 16.715 13.4759 16.6177 11.5169 15.7818C11.3866 15.7264 11.2456 15.6966 11.1096 15.6547C11.091 15.6896 11.0724 15.7245 11.0538 15.7594C11.1762 15.8651 11.2837 16.0015 11.4243 16.0699C11.7561 16.2319 12.0964 16.3845 12.4464 16.4999C13.8404 16.9589 15.2795 16.9644 16.7177 16.8481C17.488 16.7857 18.2438 16.6009 18.9401 16.237C19.1556 16.1243 19.3772 16.015 19.4982 15.7892ZM17.4466 17.7934C17.4438 17.7496 17.441 17.7059 17.4382 17.6617C17.3688 17.6538 17.2925 17.6221 17.2311 17.6412C16.4077 17.8935 15.5704 17.9428 14.7191 17.8404C14.6684 17.8343 14.6088 17.8986 14.5534 17.9302C15.5536 18.2132 16.5157 18.2006 17.4466 17.7934ZM15.2627 22.014C15.8259 22.2783 16.3677 22.1252 16.9076 21.9823C17.0258 21.9511 17.1757 21.9246 17.1752 21.7296C16.5231 21.8264 15.8929 21.9199 15.2627 22.014ZM15.3069 18.9202C15.7938 19.2213 16.7382 19.0989 16.9667 18.7303C16.4203 18.7927 15.8934 18.8532 15.3069 18.9202ZM15.8897 19.9767C15.8948 20.0168 15.8994 20.0563 15.9046 20.0964C16.1708 20.1583 16.4165 20.1415 16.5911 19.8404C16.3574 19.886 16.1238 19.9311 15.8897 19.9767ZM16.1978 21.1031C16.2024 21.1478 16.2076 21.192 16.2122 21.2367C16.477 21.2455 16.7396 21.2474 16.916 20.936C16.6767 20.9919 16.437 21.0472 16.1978 21.1031Z" fill="var(--fill-0, #2B1A12)"/>
<path id="Vector_3" d="M30.4967 13.0385C30.3715 11.9629 30.0675 10.9459 29.6021 9.97876C29.0184 8.76631 28.1053 7.81309 27.0608 6.99625C24.7039 5.15406 22.0164 4.20736 19.0251 4.12964C18.8757 4.12591 18.7263 4.11102 18.5652 4.10078C18.548 3.99187 18.5322 3.9174 18.5247 3.84246C18.4787 3.36493 18.454 2.8846 18.3846 2.41078C18.2599 1.55299 17.8685 0.850645 17.0744 0.441062C15.8159 -0.207755 14.5578 -0.114201 13.3416 0.547649C12.8562 0.812016 12.5346 1.24952 12.3396 1.78524C12.1334 2.35074 12.0938 2.93254 12.0677 3.52085C12.0603 3.68654 12.0477 3.85224 12.0375 4.017C11.9346 4.03888 11.8755 4.05424 11.8155 4.06355C10.8222 4.21574 9.8183 4.31953 8.83716 4.52852C6.30845 5.06749 4.0981 6.22642 2.29175 8.09515C1.89613 8.50426 1.51307 8.95481 1.24265 9.45096C0.158654 11.4407 -0.324003 13.5286 0.233123 15.8023C0.635259 17.4434 1.48282 18.7662 2.83072 19.7487C3.7332 20.4068 4.73993 20.8928 5.81276 21.2311C7.02662 21.6142 8.26607 21.8972 9.52694 22.0396C10.2437 22.1206 10.9791 22.0745 11.7033 22.0387C12.0501 22.0214 12.1883 21.8441 12.1464 21.623C12.091 21.3321 11.8513 21.4145 11.6619 21.4024C11.6158 21.3992 11.5688 21.4066 11.5227 21.4024C11.0145 21.3582 10.5057 21.3163 9.99842 21.2632C9.92861 21.2558 9.86531 21.1902 9.70985 21.0994C10.0645 21.0994 10.3084 21.0934 10.5518 21.1008C10.9851 21.1134 11.418 21.1469 11.8513 21.1455C12.0487 21.1446 12.2516 21.0994 12.4415 21.0403C12.6198 20.9854 12.7184 20.8341 12.7003 20.6437C12.6821 20.4497 12.5481 20.3407 12.3619 20.317C12.2246 20.2998 12.0836 20.3184 11.9449 20.31C11.3584 20.2756 10.771 20.2467 10.186 20.1932C10.0436 20.1802 9.84111 20.203 9.76617 19.9479C9.97888 19.9577 10.1623 19.967 10.3461 19.974C10.9647 19.9977 11.5832 20.0261 12.2018 20.0405C12.3535 20.0443 12.5257 20.0387 12.6533 19.9707C12.7733 19.9065 12.9093 19.7617 12.9223 19.6398C12.9349 19.5207 12.832 19.3298 12.7245 19.2712C12.5588 19.1809 12.3456 19.1399 12.1539 19.1432C11.4068 19.1548 10.6691 19.0892 9.93885 18.9379C9.84623 18.9188 9.75919 18.8704 9.66936 18.8355C9.67262 18.8039 9.67588 18.7722 9.67914 18.7406C9.78991 18.7308 9.90208 18.7038 10.0105 18.715C10.4569 18.7606 10.9018 18.8253 11.3482 18.8686C11.5939 18.8923 11.8439 18.9053 12.0901 18.8895C12.2935 18.8765 12.5011 18.8146 12.5355 18.5623C12.5672 18.3291 12.4396 18.1741 12.2344 18.0941C12.0333 18.0159 11.8257 17.9517 11.6163 17.8991C11.0163 17.7483 10.4136 17.6082 9.81364 17.4583C9.69961 17.4299 9.5921 17.3755 9.4669 17.3275C9.54648 17.0562 9.62328 16.8225 9.68286 16.5847C9.77688 16.2081 9.85879 15.8284 9.75546 15.4383C9.68332 15.1656 9.47714 14.9757 9.24814 14.9687C9.02473 14.9622 8.87998 15.0981 8.76455 15.3894C8.63982 15.705 8.52858 16.0308 8.35962 16.3226C8.10317 16.7662 7.65775 16.9119 7.20069 16.6931C6.02407 16.1304 5.16581 15.0148 5.32638 13.5603C5.44926 12.4484 5.99707 11.5426 6.90979 10.8817C7.55721 10.413 8.28655 10.1147 9.06243 9.93176C9.15878 9.90895 9.26304 9.91733 9.38731 9.90988C9.38731 10.3479 9.3752 10.7486 9.39056 11.1484C9.40639 11.5505 9.45014 11.9513 9.48179 12.3529C9.51437 12.77 9.52135 13.1907 9.58605 13.6022C9.64562 13.9792 9.5665 14.3864 9.77362 14.8151C10.4266 14.0271 11.284 13.8102 12.1445 13.6185C14.2004 13.16 16.2618 13.1721 18.3213 13.598C19.1931 13.7781 20.0313 14.0388 20.6671 14.7192C20.6825 14.7355 20.7253 14.7257 20.7565 14.7285C20.7821 14.7146 20.8305 14.7015 20.8319 14.6852C20.9641 13.1339 21.0925 11.5822 21.2229 10.0109C21.3969 10.0369 21.5668 10.0495 21.7307 10.0886C23.2698 10.4558 24.4525 11.2731 25.0199 12.804C25.5742 14.3003 24.8942 15.9224 23.4881 16.6187C22.8416 16.9389 22.4362 16.7536 22.0853 16.1858C21.9331 15.9401 21.841 15.652 21.7539 15.3727C21.6832 15.1456 21.598 14.9664 21.329 14.9626C21.0697 14.9589 20.858 15.1009 20.7956 15.3908C20.7449 15.6268 20.7248 15.8861 20.7658 16.122C20.8338 16.5144 20.9613 16.8965 21.0739 17.3219C20.9259 17.3745 20.7872 17.4374 20.642 17.4741C20.0569 17.6207 19.4677 17.7525 18.884 17.9037C18.6611 17.9614 18.44 18.0406 18.2324 18.1392C18.0477 18.2272 17.9741 18.3985 18.0114 18.6065C18.0449 18.795 18.1947 18.8597 18.3493 18.8728C18.5945 18.8932 18.845 18.8984 19.0898 18.8756C19.5673 18.8309 20.0425 18.7592 20.5191 18.7047C20.6285 18.6922 20.7407 18.7029 20.8519 18.7029C20.857 18.748 20.8622 18.7932 20.8673 18.8383C20.7863 18.8704 20.7076 18.9156 20.6234 18.9319C19.8764 19.0757 19.1233 19.1665 18.3609 19.1278C18.1161 19.1153 17.8969 19.1539 17.7186 19.3284C17.505 19.5374 17.5348 19.8046 17.8038 19.9372C17.9369 20.0028 18.1003 20.0378 18.2492 20.0364C18.837 20.0298 19.4249 20.0047 20.0127 19.9847C20.2627 19.9763 20.5126 19.9628 20.8594 19.9475C20.649 20.1918 20.4526 20.1927 20.2845 20.2053C19.6832 20.2505 19.08 20.2719 18.4777 20.3026C18.3697 20.3082 18.2399 20.2784 18.1594 20.3286C18.0397 20.4026 17.9145 20.5181 17.8661 20.6442C17.8056 20.8006 17.9006 20.9635 18.0612 21.018C18.2632 21.0859 18.4796 21.1469 18.6895 21.146C19.2001 21.1436 19.7102 21.1022 20.2208 21.0808C20.379 21.0743 20.5377 21.0799 20.6965 21.0799C20.7011 21.1241 20.7058 21.1683 20.7104 21.2125C20.5126 21.2539 20.3162 21.3186 20.1165 21.3326C19.6692 21.3642 19.2201 21.374 18.7714 21.3852C18.5876 21.3898 18.4237 21.4075 18.3981 21.6361C18.3753 21.8399 18.4819 21.9651 18.6667 22.0121C18.8301 22.054 18.9999 22.0824 19.1684 22.0912C20.0537 22.1369 20.9278 22.0633 21.8023 21.9065C23.7623 21.5546 25.6813 21.1129 27.3736 19.9768C28.2644 19.3787 29.0305 18.6712 29.5593 17.738C30.3859 16.2794 30.6907 14.7132 30.4957 13.0395L30.4967 13.0385Z" fill="var(--fill-0, #2B1A12)"/>
</g>
</svg>
