<svg preserveAspectRatio="none" width="100%" height="100%" overflow="visible" style="display: block;" viewBox="0 0 34.8133 26.5412" fill="none" xmlns="http://www.w3.org/2000/svg">
<g id="Group">
<path id="Vector" d="M3.85882 8.07501C3.66423 7.93602 3.49658 7.81614 3.32024 7.69019C3.17387 7.95035 3.42318 7.99639 3.47269 8.16665C3.388 8.26828 3.27246 8.37687 3.19515 8.50761C3.09352 8.67873 2.97538 8.86029 2.94585 9.05052C2.86853 9.54306 3.41232 9.93005 3.87358 9.71114C4.04905 9.62775 4.19108 9.46878 4.33919 9.33414C4.45516 9.22947 4.55679 9.10916 4.67449 8.98624C4.90426 9.1122 5.11708 9.22903 5.37464 9.37019C5.359 9.67032 5.35553 9.98434 5.32469 10.2962C5.23565 11.2026 5.13228 12.1078 5.04281 13.0143C5.02544 13.1897 5.04628 13.3687 5.05019 13.588C5.32382 13.4894 5.33164 13.3122 5.34901 13.1476C5.37855 12.8601 5.41938 12.5717 5.41894 12.2841C5.41851 11.9097 5.5727 11.6222 5.82331 11.3607C6.88352 10.2541 7.91853 9.12219 9.0022 8.03896C9.741 7.30059 10.5723 6.66733 11.5891 6.34028C12.2367 6.1318 12.899 5.99281 13.5827 5.96762C13.8841 5.95676 14.1847 5.93114 14.5282 5.90942C14.5078 5.47813 14.4891 5.08288 14.4705 4.6859C14.1082 4.51434 13.7017 4.70849 13.3342 4.47655C13.3781 4.36797 13.4068 4.26069 13.4611 4.16861C13.7034 3.75773 13.9619 3.35641 14.1964 2.94118C14.3449 2.67841 14.4778 2.40434 14.589 2.1242C14.907 1.32372 15.4586 0.772552 16.276 0.495447C16.967 0.261341 17.6689 0.251785 18.3677 0.441155C18.8121 0.561465 19.1639 0.837269 19.4575 1.19169C20.1272 1.99998 20.3096 2.94162 20.2245 3.95709C20.1724 4.57558 20.1138 5.19363 20.0543 5.85295C20.4334 5.88162 20.7887 5.91072 21.144 5.93461C22.3276 6.01366 23.4777 6.24733 24.464 6.93271C25.1247 7.3918 25.7501 7.91995 26.32 8.48893C27.209 9.37714 28.0291 10.3344 28.896 11.2456C29.2226 11.5888 29.4168 11.9553 29.4007 12.4396C29.392 12.6972 29.445 12.9578 29.4789 13.2153C29.4971 13.353 29.511 13.5055 29.7486 13.5433C29.7842 12.8323 29.6604 12.1534 29.597 11.4715C29.5327 10.7818 29.475 10.0912 29.412 9.37323C29.6443 9.2438 29.868 9.11915 30.1534 8.96018C30.3332 9.15997 30.4969 9.38322 30.7011 9.55956C31.1406 9.93874 31.7226 9.76109 31.8681 9.22339C31.9355 8.97408 31.8434 8.7656 31.7005 8.5771C31.5889 8.42986 31.4546 8.29912 31.3326 8.16318C31.4229 8.03157 31.5055 7.91126 31.6392 7.71625C31.2796 7.73232 31.1584 7.94949 30.9439 8.08239C31.0416 8.20618 31.1276 8.31563 31.214 8.42465C31.3126 8.5493 31.4251 8.66527 31.5068 8.79991C31.6249 8.99493 31.5884 9.22512 31.4429 9.35629C31.2944 9.49007 31.0642 9.51135 30.8883 9.35629C30.6407 9.13826 30.4218 8.88765 30.1777 8.63747C30.05 8.70697 29.9397 8.76951 29.8272 8.82814C29.6865 8.90111 29.5484 8.98364 29.4007 9.03967C29.147 9.13565 28.9121 9.07875 28.8126 8.91631C28.7058 8.74214 28.7744 8.48285 28.9985 8.31259C29.3551 8.04156 29.7247 7.78748 30.0852 7.5208C30.1916 7.44175 30.285 7.34489 30.384 7.25585C30.361 7.22067 30.3375 7.18592 30.3145 7.15074C30.2116 7.20286 30.0987 7.24152 30.007 7.30884C29.6813 7.54903 29.3698 7.80876 29.0398 8.042C28.8404 8.18272 28.6232 8.30303 28.4017 8.4064C28.1654 8.51672 27.9743 8.47329 27.8484 8.32041C27.7168 8.16057 27.7285 7.92864 27.9001 7.72537C27.9921 7.61635 28.1068 7.52384 28.2206 7.43523C28.6419 7.10557 29.0684 6.78243 29.4897 6.45277C29.5818 6.38067 29.6613 6.2925 29.7468 6.21128L29.6743 6.11139C29.5462 6.18348 29.4089 6.24342 29.2908 6.32942C28.8004 6.68731 28.3218 7.06171 27.8245 7.40961C27.6799 7.51081 27.4892 7.5942 27.3172 7.59811C26.9762 7.60593 26.7847 7.24283 26.9623 6.94878C27.0418 6.81674 27.1639 6.70251 27.2868 6.60522C27.7515 6.23778 28.2254 5.88206 28.6936 5.51895C28.7792 5.4525 28.8539 5.37259 28.9338 5.29875C28.9181 5.27269 28.9029 5.24619 28.8873 5.22013C28.7944 5.25966 28.6892 5.28311 28.6106 5.34175C28.2154 5.63405 27.8271 5.93548 27.4362 6.233C27.3328 6.31161 27.2321 6.39457 27.1239 6.46667C26.9675 6.57091 26.8047 6.60348 26.6435 6.47362C26.482 6.34332 26.3964 6.16915 26.4781 5.97631C26.5549 5.79476 26.6518 5.598 26.796 5.47205C27.2859 5.04553 27.7837 4.62336 28.3101 4.24375C29.1935 3.60702 30.1091 3.74253 31.0029 4.23289C31.6266 4.57471 32.104 5.08332 32.4402 5.70355C32.742 6.26123 32.9974 6.83976 33.1512 7.46564C33.5195 8.96669 33.9273 10.4582 34.3047 11.9571C34.6097 13.1663 34.7938 14.3967 34.8125 15.6437C34.8229 16.3373 34.7347 17.024 34.5045 17.692C34.1645 18.6801 33.4144 19.3494 32.1913 19.402C31.2462 19.4424 30.3584 19.2148 29.5444 18.7188C28.7018 18.2054 27.9183 17.6138 27.203 16.9345C26.1549 15.9386 25.106 14.9436 24.0718 13.9333C23.7226 13.5923 23.4173 13.2062 23.0216 12.7623C22.94 13.254 22.9895 13.664 22.9617 14.0671C22.9339 14.471 22.9035 14.8754 22.8922 15.2797C22.8805 15.6963 22.8896 16.1137 22.8896 16.5793C19.2386 16.6991 15.6471 16.7456 11.9969 16.7083C11.9405 15.4248 11.8849 14.1609 11.8267 12.834C11.7155 12.9157 11.6321 12.9578 11.5743 13.0225C10.1011 14.6786 8.48925 16.1923 6.79795 17.6204C6.29239 18.0473 5.74078 18.4317 5.17007 18.767C4.26144 19.3012 3.26421 19.5236 2.21139 19.3512C1.34446 19.2092 0.746814 18.6962 0.405428 17.8949C0.0410215 17.0388 -0.0297749 16.1328 0.0097495 15.2155C0.0544859 14.1722 0.228654 13.1437 0.470578 12.1326C0.867559 10.4751 1.29538 8.8251 1.74014 7.17985C1.99205 6.24777 2.42899 5.4082 3.1413 4.72542C3.73373 4.15775 4.43778 3.86979 5.24217 3.81332C5.66217 3.78379 6.05177 3.9319 6.38099 4.16991C6.94172 4.57645 7.48203 5.01339 8.01061 5.46119C8.15611 5.58454 8.25123 5.78216 8.33289 5.96241C8.42106 6.15655 8.33376 6.32942 8.17653 6.46189C8.01886 6.59523 7.85208 6.57091 7.69702 6.46319C7.49549 6.32334 7.30091 6.17263 7.10546 6.02408C6.82922 5.81387 6.55863 5.5967 6.27892 5.39169C6.17208 5.31351 6.04655 5.26096 5.92928 5.19668C5.90626 5.23055 5.88368 5.264 5.86066 5.29788C5.96186 5.38388 6.05959 5.47421 6.16513 5.55457C6.61336 5.89682 7.0655 6.233 7.51156 6.57786C7.62492 6.66516 7.7322 6.76636 7.82081 6.87842C7.95154 7.04347 7.95154 7.22762 7.82819 7.40049C7.70614 7.57161 7.52763 7.63416 7.33175 7.58073C7.21057 7.54773 7.09591 7.47302 6.9921 7.39788C6.51086 7.05172 6.03613 6.6973 5.55576 6.3507C5.43371 6.26253 5.2995 6.19087 5.17094 6.11182C5.14531 6.13962 5.11925 6.16741 5.09363 6.19521C5.16051 6.26774 5.21828 6.35157 5.29516 6.41108C5.74078 6.75681 6.19293 7.09341 6.63768 7.44001C6.7619 7.53687 6.88091 7.64632 6.98037 7.76837C7.11284 7.93081 7.1211 8.11366 6.98732 8.28653C6.85832 8.45375 6.67938 8.52498 6.48827 8.44072C6.25156 8.33648 6.02136 8.20922 5.80854 8.06241C5.48757 7.8409 5.18571 7.59203 4.87298 7.35879C4.76484 7.278 4.64713 7.20982 4.51249 7.12165C4.4317 7.32101 4.52682 7.38659 4.62064 7.45174C4.98852 7.70756 5.3577 7.96165 5.72384 8.21964C6.03352 8.43768 6.1408 8.68959 6.02006 8.90198C5.90279 9.10916 5.63394 9.1413 5.27865 8.97495C5.07061 8.87765 4.87255 8.75995 4.59458 8.61097C4.52856 8.70305 4.46297 8.81425 4.37828 8.90893C4.24407 9.05964 4.10639 9.20992 3.9535 9.34109C3.72895 9.53394 3.54696 9.54306 3.37106 9.39799C3.21817 9.27203 3.17257 9.02186 3.30895 8.80469C3.4614 8.56233 3.65294 8.34429 3.85925 8.0737L3.85882 8.07501Z" fill="var(--fill-0, #2B1A12)"/>
<path id="Vector_2" d="M20.7155 25.2136C20.7155 25.5011 20.7211 25.747 20.7142 25.9919C20.7037 26.352 20.6751 26.392 20.3189 26.4206C19.6856 26.4719 19.0511 26.5457 18.4178 26.5409C17.2043 26.5318 15.9908 26.4788 14.7777 26.4337C14.3177 26.4163 14.2582 26.3776 14.2773 25.9264C14.2982 25.4364 14.121 25.1902 13.6762 24.9361C12.2008 24.0922 11.2266 22.8452 10.9868 21.1109C10.9316 20.7113 10.9156 20.3061 10.87 19.9048C10.8244 19.5039 11.015 19.2346 11.3434 19.0565C11.736 18.8437 12.133 18.6348 12.543 18.4584C13.5611 18.0202 14.6456 17.8412 15.7354 17.7053C17.6799 17.4621 19.6036 17.6245 21.4925 18.1157C22.0866 18.2704 22.6687 18.5218 23.2129 18.8102C24.1484 19.3062 24.0781 19.3909 23.9604 20.3756C23.8683 21.1452 23.6481 21.9079 23.2984 22.6107C22.7929 23.6274 22.091 24.4761 21.0729 25.026C20.9595 25.0872 20.8449 25.1454 20.715 25.2132L20.7155 25.2136ZM23.3931 19.6898C23.2654 19.5946 23.1551 19.5052 23.0378 19.4261C22.283 18.9162 21.4347 18.6317 20.5543 18.4563C18.7987 18.1066 17.0275 18.0623 15.2537 18.2929C14.1005 18.4428 12.9999 18.7803 11.9758 19.3406C11.7821 19.4465 11.6066 19.5864 11.4068 19.721C11.9376 20.277 12.5561 20.571 13.2193 20.7934C14.4493 21.206 15.7215 21.365 17.0093 21.3923C17.6569 21.4062 18.3066 21.352 18.9551 21.3172C19.9562 21.2634 20.9287 21.0596 21.8634 20.6978C22.4319 20.4776 22.9405 20.1536 23.3936 19.6898H23.3931Z" fill="var(--fill-0, #2B1A12)"/>
<path id="Vector_3" d="M27.5329 4.45973C27.3548 4.61827 27.1841 4.77028 26.9808 4.95096C26.7889 4.74639 26.6121 4.55833 26.4358 4.37026C26.2407 4.16221 26.0457 4.02931 25.7178 4.11227C25.3091 4.21564 24.9169 4.06275 24.5655 3.84906C23.9522 3.4764 23.5127 2.95259 23.2977 2.26287C23.1509 1.79205 23.1105 1.30647 23.4792 0.916871C23.8371 0.539 24.3218 0.544651 24.7753 0.671476C25.4433 0.85824 26.0114 1.22221 26.3914 1.8268C26.6451 2.2303 26.7728 2.66985 26.6898 3.14674C26.6395 3.43471 26.7294 3.64536 26.9383 3.8382C27.1385 4.02279 27.3166 4.23171 27.5324 4.46017L27.5329 4.45973Z" fill="var(--fill-0, #2B1A12)"/>
<path id="Vector_4" d="M7.67053 4.85498C7.4716 4.68038 7.30178 4.53184 7.12109 4.37374C7.3856 4.07058 7.61884 3.79651 7.8599 3.5294C8.00714 3.36609 8.06577 3.18801 8.00627 2.97215C7.88552 2.53521 7.97239 2.12433 8.25471 1.78772C8.7277 1.22395 9.23109 0.685817 9.73057 0.145071C9.80788 0.0612449 9.9321 0.0204137 10.0733 0C9.83698 0.746185 9.14596 1.17835 8.81717 1.86503C9.00133 1.94712 9.08124 1.8216 9.16246 1.73517C9.48865 1.38727 9.80354 1.02894 10.1319 0.682777C10.2427 0.565941 10.3803 0.475166 10.5176 0.363108C10.6648 0.600254 10.528 0.716219 10.4346 0.833054C10.1367 1.20571 9.83003 1.57099 9.53165 1.94321C9.44825 2.04745 9.38224 2.16516 9.2819 2.31674C9.53686 2.36756 9.60635 2.2264 9.69365 2.1252C9.99595 1.77512 10.2909 1.41854 10.5975 1.07237C10.7052 0.950759 10.8095 0.798307 11.0292 0.81568C11.0913 1.01243 10.9754 1.13405 10.8842 1.25132C10.6179 1.59314 10.3382 1.92497 10.0698 2.26549C9.96555 2.39752 9.87607 2.54172 9.77791 2.68332C9.9725 2.81014 10.0524 2.66985 10.1323 2.58386C10.4668 2.22379 10.7882 1.85157 11.1226 1.49194C11.2312 1.37554 11.3241 1.20397 11.6021 1.27086C11.5496 1.40246 11.5291 1.53016 11.4588 1.61876C10.9754 2.22987 10.4937 2.84315 9.98553 3.43385C9.74968 3.70791 9.41047 3.82735 9.04519 3.7887C8.70424 3.75221 8.46536 3.88121 8.266 4.14702C8.08618 4.38678 7.88074 4.60698 7.67009 4.85455L7.67053 4.85498Z" fill="var(--fill-0, #2B1A12)"/>
<path id="Vector_5" d="M23.393 19.688C22.94 20.1523 22.4318 20.4759 21.8628 20.6961C20.9281 21.0579 19.9561 21.262 18.9545 21.3154C18.3065 21.3502 17.6567 21.4045 17.0087 21.3906C15.7209 21.3628 14.4488 21.2043 13.2187 20.7916C12.5559 20.5693 11.937 20.2752 11.4062 19.7193C11.606 19.5842 11.7815 19.4448 11.9752 19.3388C12.9994 18.7781 14.1 18.441 15.2531 18.2912C17.027 18.061 18.7982 18.1049 20.5538 18.4545C21.4341 18.63 22.2824 18.9145 23.0373 19.4244C23.1545 19.5034 23.2649 19.5929 23.3926 19.688H23.393ZM15.5889 20.0845C15.6679 19.5868 15.4438 19.2541 15.0764 19.0083C14.6937 18.752 14.2837 18.7542 13.8928 18.9935C13.4984 19.235 13.2665 19.5751 13.3186 20.0845H15.5889ZM19.1665 20.3708C19.6073 20.9484 20.5373 20.8816 20.9664 20.4702C21.3864 20.068 21.4094 19.4079 20.9881 18.9531C20.3622 19.4 19.722 19.8318 19.1665 20.3708ZM17.807 20.865C17.7931 20.2505 17.3088 19.8048 16.7455 19.857C16.1835 19.9091 15.8082 20.3417 15.8894 20.865H17.807ZM19.2486 19.3271C18.9684 19.013 18.7152 18.729 18.4385 18.4184C18.0906 18.7121 17.7892 18.967 17.4878 19.2215C17.794 19.5286 18.0559 19.7909 18.3369 20.0724C18.6175 19.8431 18.9042 19.6085 19.2486 19.3271Z" fill="var(--fill-0, #81D5F1)"/>
<path id="Vector_6" d="M15.5861 20.0859H13.3159C13.2637 19.5765 13.4957 19.2364 13.8901 18.9949C14.281 18.7556 14.691 18.7534 15.0736 19.0097C15.4411 19.2555 15.6652 19.5882 15.5861 20.0859Z" fill="var(--fill-0, #2B1A12)"/>
<path id="Vector_7" d="M19.168 20.3747C19.7235 19.8357 20.3641 19.404 20.9896 18.957C21.4109 19.4118 21.3878 20.072 20.9678 20.4742C20.5387 20.885 19.6088 20.9524 19.168 20.3747Z" fill="var(--fill-0, #2B1A12)"/>
<path id="Vector_8" d="M17.8036 20.8638H15.886C15.8048 20.3409 16.1801 19.9078 16.7421 19.8557C17.3054 19.8036 17.7897 20.2492 17.8036 20.8638Z" fill="var(--fill-0, #2B1A12)"/>
<path id="Vector_9" d="M19.2491 19.3266C18.9046 19.608 18.618 19.8426 18.3374 20.0719C18.0564 19.7905 17.7945 19.5277 17.4883 19.2211C17.7897 18.9665 18.0911 18.712 18.439 18.418C18.7157 18.7285 18.9689 19.0121 19.2491 19.3266Z" fill="var(--fill-0, #2B1A12)"/>
</g>
</svg>
