<svg preserveAspectRatio="none" width="100%" height="100%" overflow="visible" style="display: block;" viewBox="0 0 42.0099 22.1507" fill="none" xmlns="http://www.w3.org/2000/svg">
<g id="Mask group">
<mask id="mask0_673_376" style="mask-type:alpha" maskUnits="userSpaceOnUse" x="0" y="0" width="43" height="23">
<path id="Vector 69" d="M18.7035 21.7467L14.3929 19.9962H0V0H42.0099V20.3328H30.6855L26.3018 22.1507L22.4296 19.9962L18.7035 21.7467Z" fill="var(--fill-0, #D9D9D9)"/>
</mask>
<g mask="url(#mask0_673_376)">
<g id="Group 1430103215">
<path id="Vector" d="M39.9127 13.1166C39.4354 11.799 38.6653 10.6675 37.6693 9.68619C36.8023 8.83172 35.8613 8.0714 34.8506 7.39164C32.6421 5.90638 30.243 4.89898 27.6148 4.44888C27.0113 4.34547 26.4126 4.21268 25.7742 4.08587C25.7301 3.75224 25.6909 3.41318 25.6403 3.07574C25.3976 1.45769 24.6693 0.676149 23.1694 0.488927C22.3144 0.382254 21.4654 0.425794 20.7105 0.927592C19.8783 1.48055 19.5556 2.33883 19.3433 3.25589C19.2786 3.53563 19.2519 3.82408 19.2045 4.13104C18.9928 4.16642 18.7996 4.19744 18.607 4.23118C18.0545 4.32915 17.5021 4.4233 16.9508 4.5278C15.3393 4.83312 13.8181 5.3888 12.3454 6.11319C10.0361 7.24904 8.01533 8.7577 6.38204 10.7415C5.22007 12.1538 4.64153 13.7931 4.6731 15.6648C4.69868 17.1897 5.89331 18.8225 7.42265 19.2688C8.47087 19.5746 9.49569 19.5616 10.5309 19.3276C11.5442 19.099 12.4901 18.6843 13.3833 18.1525C13.694 17.9675 14.0119 17.8151 14.4277 17.826C14.5104 18.6723 14.5909 19.4968 14.672 20.3268C15.4139 20.643 16.1268 20.9467 16.8033 21.2351C16.8033 21.7745 16.8311 22.2817 16.7984 22.7852C16.6662 24.8283 16.5116 26.8698 16.3723 28.9123C16.277 30.304 16.1883 31.6967 16.1072 33.0894C16.0904 33.3779 15.9804 33.5727 15.7034 33.6642C15.3431 33.7839 14.985 33.9112 14.6214 34.0206C13.872 34.246 13.7533 34.4027 13.7773 35.181C13.792 35.6567 13.8127 35.6953 14.3123 35.7203C14.8359 35.7465 15.3616 35.753 15.8857 35.7399C17.3149 35.7045 18.7447 35.6648 20.1728 35.605C20.6914 35.5832 20.6893 35.5549 20.7431 35.0248C20.8035 34.4294 20.8672 33.8345 20.9298 33.2396C21.0871 31.7435 21.2221 30.2441 21.4077 28.7512C21.6406 26.8817 21.9122 25.0166 22.1772 23.1509C22.2104 22.9163 22.248 22.66 22.5326 22.4586C22.6246 22.6856 22.7307 22.8581 22.7639 23.0437C22.9359 24.0065 23.1193 24.9692 23.2423 25.9391C23.4181 27.3231 23.5433 28.7137 23.6941 30.1015C23.7839 30.9304 23.8813 31.7587 23.9749 32.5871C24.0745 33.4677 24.1763 34.3483 24.2715 35.2289C24.2976 35.4678 24.4261 35.5848 24.6557 35.6055C24.764 35.6153 24.8724 35.6245 24.9807 35.6278C26.5726 35.673 28.1645 35.722 29.7564 35.7573C30.1173 35.7655 30.4803 35.7377 30.8395 35.7007C30.9467 35.6899 31.0964 35.6158 31.1394 35.5282C31.4093 34.9753 31.0621 34.2443 30.4612 34.0566C30.0988 33.9434 29.7363 33.8291 29.3744 33.7131C29.0446 33.6076 28.8612 33.3975 28.8748 33.0317C28.8835 32.7966 28.8813 32.5599 28.8617 32.3259C28.7349 30.809 28.5847 29.2938 28.4753 27.7759C28.3381 25.8776 28.232 23.9771 28.1155 22.0771C28.1079 21.9541 28.1291 21.8295 28.1384 21.6842C28.7039 21.4169 29.2552 21.1437 29.8169 20.8955C30.1401 20.7529 30.3355 20.5799 30.3557 20.1809C30.3954 19.3869 30.4999 18.5966 30.5793 17.7846C31.0322 17.7922 31.4148 18.0039 31.78 18.226C32.6567 18.7605 33.6032 19.1246 34.5943 19.3477C35.649 19.585 36.7114 19.6117 37.7482 19.2013C39.1219 18.6576 39.9617 17.6736 40.2327 16.2161C40.4303 15.1526 40.2746 14.1191 39.911 13.1166H39.9127ZM12.8314 13.835C12.734 13.94 12.6355 14.0538 12.5152 14.1262C12.083 14.3874 11.6574 14.6688 11.1976 14.8718C10.8607 15.0204 10.4764 15.1243 10.1112 15.1309C9.46249 15.1423 9.14574 14.6878 9.37596 14.075C9.50494 13.7316 9.72536 13.3942 9.98443 13.1345C10.7023 12.4161 11.5252 11.8256 12.4384 11.3734C12.8221 11.1834 13.2216 11.0256 13.644 10.84C13.6744 10.9957 13.7 11.0816 13.7071 11.1687C13.7512 11.7255 13.7904 12.2833 13.8241 12.7405C13.454 13.1492 13.146 13.4943 12.8314 13.835ZM17.4581 21.0517C16.7957 20.7617 16.1459 20.4384 15.4694 20.1858C15.121 20.0558 14.9926 19.874 14.9828 19.5164C14.967 18.9215 14.9082 18.3278 14.8647 17.6894C15.2555 17.58 15.637 17.482 16.012 17.3655C16.2531 17.2904 16.4926 17.2023 16.7195 17.0923C16.9116 16.9993 17.0352 16.8338 16.9557 16.6041C16.8724 16.363 16.6825 16.3554 16.4653 16.4049C16.1192 16.4839 15.7698 16.5492 15.422 16.6199C15.4111 16.5775 15.4002 16.5345 15.3894 16.492C15.6707 16.4213 15.9532 16.3532 16.234 16.2798C16.4441 16.2248 16.6569 16.1747 16.8599 16.0991C17.0597 16.0245 17.2072 15.8841 17.1652 15.6457C17.1201 15.3856 16.9089 15.3518 16.7048 15.3801C16.3113 15.4351 15.9216 15.5167 15.5309 15.588C15.4672 15.5995 15.4051 15.6174 15.342 15.6321C15.3333 15.5978 15.3246 15.5641 15.3159 15.5298C15.6745 15.434 16.0386 15.3551 16.3891 15.2359C16.6052 15.1624 16.8333 15.0617 16.9965 14.9099C17.2322 14.6906 17.1239 14.3999 16.8022 14.37C16.5726 14.3488 16.3347 14.3918 16.1034 14.4277C15.803 14.4745 15.5058 14.5425 15.2076 14.6013L15.1771 14.4941C15.4215 14.4195 15.6669 14.3471 15.9102 14.2693C16.1165 14.2035 16.3369 14.1588 16.5203 14.0516C16.6188 13.9939 16.7244 13.8029 16.6972 13.7098C16.6607 13.5841 16.5116 13.4279 16.3891 13.405C16.2036 13.3708 15.9973 13.4323 15.8024 13.4676C15.3426 13.5514 14.8843 13.644 14.3983 13.7381C14.2105 11.6841 14.0266 9.67639 13.8377 7.60988C15.1651 8.2325 16.4332 8.82736 17.6904 9.41733C17.8336 11.7293 17.9598 14.0266 18.1258 16.3206C18.1922 17.2382 18.2189 18.158 18.3849 19.0739C18.5221 19.8304 18.4714 20.6212 18.5079 21.4953C18.1068 21.326 17.7808 21.1927 17.4586 21.0512L17.4581 21.0517ZM22.1174 15.9075L22.1125 16.3026V19.8517C21.0474 20.3654 19.9328 20.9032 18.7773 21.4605C18.4932 17.3851 18.2146 13.3816 17.9343 9.35529C19.3493 8.75008 20.7252 8.16175 22.1174 7.5658V15.9075ZM26.2945 19.1507C26.2526 20.0699 26.2107 21 26.1666 21.9677C26.0773 21.9438 25.9897 21.9389 25.9217 21.8997C24.8435 21.2694 23.7692 20.6327 22.6899 20.0046C22.4962 19.8919 22.4118 19.7493 22.4151 19.5224C22.4385 17.9288 22.4635 16.3353 22.4673 14.7412C22.4695 13.8361 22.4211 12.931 22.414 12.0254C22.4031 10.5945 22.4074 9.16425 22.408 7.73342C22.408 7.7024 22.4379 7.67192 22.4885 7.5745C22.6632 7.63764 22.8222 7.67519 22.9615 7.74921C23.9352 8.26896 24.9034 8.79961 25.8781 9.31719C26.0496 9.40808 26.246 9.45216 26.43 9.52128C26.6684 9.61108 26.8061 9.7368 26.781 10.041C26.6814 11.2498 26.602 12.4608 26.535 13.6717C26.4703 14.8473 26.4289 16.024 26.3805 17.2006C26.3652 17.5626 26.2945 19.1507 26.2945 19.1507ZM30.4231 13.7408C30.0797 13.6663 29.733 13.5885 29.3858 13.5161C29.1736 13.472 28.9602 13.4284 28.7458 13.3969C28.5232 13.3637 28.3419 13.4355 28.2837 13.6706C28.2249 13.9079 28.3577 14.0538 28.5683 14.1256C28.8426 14.2187 29.1224 14.2943 29.3994 14.3803C29.517 14.4168 29.6324 14.4614 29.7287 14.5953C29.4598 14.5447 29.1921 14.4854 28.9216 14.4451C28.6723 14.4075 28.4181 14.3558 28.17 14.3722C27.8532 14.3929 27.7416 14.6933 27.9718 14.9115C28.1221 15.0536 28.3327 15.1477 28.5319 15.2174C28.8856 15.3409 29.2519 15.4291 29.5921 15.6223C29.2024 15.5494 28.8133 15.4699 28.4225 15.4057C28.0051 15.3371 27.8303 15.4057 27.7901 15.6278C27.7476 15.8591 27.8706 16.0191 28.2451 16.1415C28.6679 16.2803 29.1006 16.3902 29.5072 16.6069C29.2198 16.5508 28.9335 16.4866 28.6451 16.4409C28.4198 16.4049 28.1623 16.3081 28.0339 16.6112C27.9354 16.8441 28.0714 17.0602 28.4519 17.1968C28.8601 17.3432 29.284 17.4445 29.7009 17.5653C29.8212 17.6001 29.942 17.6349 30.1102 17.6834C30.0634 18.6021 30.0166 19.5197 29.9692 20.4493C28.8105 20.9794 27.6486 21.5105 26.4665 22.051C26.4665 21.5231 26.4583 21.0093 26.4697 20.4961C26.4763 20.2065 26.5182 19.9181 26.5405 19.6291L27.0401 12.4243V9.82987C28.3147 9.07391 29.6144 8.30271 30.9233 7.52661C31.0284 7.94786 30.6229 12.974 30.4237 13.7419L30.4231 13.7408ZM34.9801 15.1194C34.7352 15.1374 34.456 15.1287 34.2411 15.028C33.6206 14.739 33.0241 14.3983 32.42 14.0739C32.3585 14.0407 32.2992 13.9868 32.2616 13.9286C31.9639 13.4649 31.6063 13.0654 31.0675 12.8532C31.1154 12.1821 31.1606 11.5535 31.2107 10.8503C31.393 10.8955 31.5465 10.9129 31.6831 10.9701C32.912 11.4866 34.0125 12.2028 34.978 13.1242C35.2974 13.429 35.5532 13.7773 35.6425 14.2203C35.747 14.7379 35.507 15.0813 34.9801 15.1194Z" fill="var(--fill-0, #2B1A12)"/>
<path id="Vector_2" d="M24.7546 12.1027C24.6713 12.4113 24.5984 12.6791 24.495 13.0617C24.3954 12.6731 24.3257 12.4004 24.2354 12.0461C23.9562 12.2078 23.7216 12.3438 23.3695 12.5474C23.5594 12.2072 23.6857 11.9814 23.849 11.6891C23.5562 11.589 23.2965 11.4997 22.9531 11.3821C23.2753 11.2864 23.5262 11.2112 23.8451 11.1165C23.6873 10.8237 23.5551 10.5777 23.37 10.2343C23.6743 10.4058 23.9061 10.5358 24.2038 10.7035C24.2991 10.403 24.3829 10.1396 24.5004 9.76953C24.6093 10.1315 24.6909 10.4025 24.7927 10.7416C25.0784 10.5516 25.3097 10.3971 25.5416 10.243C25.5628 10.2583 25.584 10.274 25.6052 10.2893C25.4627 10.538 25.3195 10.7867 25.1399 11.0997C25.4676 11.1884 25.7348 11.2608 26.1016 11.3598C25.7359 11.4676 25.4725 11.5449 25.1399 11.6428C25.307 11.9422 25.4436 12.1865 25.6276 12.5164C25.3021 12.3623 25.0441 12.2399 24.7524 12.1022L24.7546 12.1027Z" fill="var(--fill-0, #2B1A12)"/>
<path id="Vector_3" d="M26.4293 9.5249C26.2454 9.45578 26.0495 9.4117 25.8775 9.32081C24.9027 8.80323 23.9345 8.27204 22.9608 7.75283C22.8215 7.67881 22.6626 7.64126 22.4879 7.57812C22.4373 7.67555 22.4073 7.70602 22.4073 7.73705C22.4073 9.16788 22.4025 10.5987 22.4133 12.029C22.4204 12.9341 22.4688 13.8392 22.4667 14.7448C22.4634 16.3384 22.4384 17.9325 22.4144 19.526C22.4112 19.753 22.495 19.895 22.6893 20.0082C23.7685 20.6363 24.8429 21.2736 25.921 21.9033C25.9885 21.943 26.0761 21.9474 26.1659 21.9713C26.21 21.0037 26.2519 20.0735 26.2938 19.1543C26.2938 19.1543 26.3651 17.5667 26.3804 17.2043C26.4288 16.0281 26.4702 14.8509 26.5349 13.6753C26.6019 12.4644 26.6813 11.2534 26.7809 10.0447C26.806 9.74043 26.6672 9.6147 26.4293 9.5249ZM25.14 11.6464C25.3071 11.9457 25.4437 12.1901 25.6277 12.5199C25.3022 12.3659 25.0442 12.2434 24.7525 12.1057C24.6692 12.4143 24.5963 12.6821 24.4929 13.0647C24.3933 12.6761 24.3236 12.4034 24.2333 12.0491C23.9541 12.2108 23.7195 12.3468 23.3674 12.5504C23.5573 12.2102 23.6836 11.9844 23.8469 11.6921C23.5541 11.592 23.2945 11.5027 22.9511 11.3851C23.2732 11.2894 23.5241 11.2143 23.8431 11.1196C23.6852 10.8267 23.553 10.5807 23.3679 10.2373C23.6722 10.4088 23.904 10.5388 24.2017 10.7065C24.297 10.406 24.3808 10.1426 24.4984 9.77254C24.6072 10.1345 24.6888 10.4055 24.7906 10.7446C25.0763 10.5546 25.3077 10.4001 25.5395 10.246C25.5607 10.2613 25.582 10.2771 25.6032 10.2923C25.4606 10.541 25.3174 10.7897 25.1378 11.1027C25.4655 11.1914 25.7327 11.2638 26.0995 11.3628C25.7338 11.4706 25.4704 11.5479 25.1378 11.6458L25.14 11.6464Z" fill="var(--fill-0, #81D5F1)"/>
<path id="Vector_4" d="M17.9336 9.35644C18.2139 13.3828 18.4931 17.3868 18.7766 21.4616C19.9321 20.9043 21.0467 20.3666 22.1118 19.8528C22.1118 18.6375 22.1167 10.3644 22.1167 7.56641C20.724 8.16236 19.3486 8.75069 17.9336 9.3559V9.35644Z" fill="var(--fill-0, #81D5F1)"/>
<path id="Vector_5" d="M28.7439 13.3987C28.9583 13.4303 29.1716 13.4738 29.3839 13.5179C29.7317 13.5903 30.0784 13.6681 30.4212 13.7427C30.6204 12.9742 31.0253 7.94859 30.9209 7.52734C29.6119 8.30399 28.3117 9.07464 27.0376 9.83061V12.425L26.538 19.6298C26.5157 19.9188 26.4738 20.2078 26.4673 20.4968C26.4553 21.01 26.464 21.5238 26.464 22.0517C27.6461 21.5113 28.8081 20.9795 29.9668 20.45C30.0141 19.5204 30.0609 18.6028 30.1077 17.6841C29.9396 17.6357 29.8187 17.6014 29.6985 17.566C29.2816 17.4452 28.8571 17.344 28.4494 17.1976C28.069 17.061 27.9329 16.8443 28.0314 16.6119C28.1599 16.3088 28.4173 16.4057 28.6426 16.4416C28.9316 16.4879 29.2174 16.5515 29.5047 16.6076C29.0982 16.391 28.6655 16.281 28.2426 16.1423C27.8682 16.0198 27.7457 15.8598 27.7876 15.6285C27.8284 15.4059 28.0031 15.3379 28.42 15.4064C28.8113 15.4707 29.1999 15.5501 29.5896 15.623C29.2495 15.4304 28.8832 15.3417 28.5294 15.2181C28.3297 15.1485 28.1196 15.0543 27.9694 14.9123C27.7392 14.6946 27.8507 14.3941 28.1675 14.3729C28.4157 14.3566 28.6698 14.4083 28.9191 14.4458C29.1896 14.4861 29.4574 14.5454 29.7262 14.596C29.6299 14.4622 29.5151 14.4175 29.397 14.3811C29.1205 14.2951 28.8402 14.2194 28.5659 14.1264C28.3553 14.0551 28.2225 13.9087 28.2812 13.6714C28.3395 13.4363 28.5213 13.365 28.7433 13.3976L28.7439 13.3987Z" fill="var(--fill-0, #81D5F1)"/>
<path id="Vector_6" d="M18.387 19.0773C18.221 18.1614 18.1944 17.2421 18.128 16.324C17.962 14.03 17.8357 11.7327 17.6926 9.42073C16.4354 8.83077 15.1673 8.2359 13.8398 7.61328C14.0287 9.67979 14.2127 11.6875 14.4004 13.7415C14.8864 13.6474 15.3447 13.5548 15.8046 13.471C15.9994 13.4357 16.2057 13.3742 16.3913 13.4084C16.5143 13.4313 16.6629 13.5875 16.6993 13.7132C16.7265 13.8063 16.621 13.9973 16.5224 14.055C16.3396 14.1622 16.1186 14.2069 15.9123 14.2727C15.6691 14.3505 15.4236 14.4229 15.1792 14.4975L15.2097 14.6047C15.508 14.5459 15.8051 14.4779 16.1056 14.4311C16.3363 14.3952 16.5747 14.3522 16.8044 14.3734C17.126 14.4028 17.2343 14.694 16.9987 14.9133C16.8354 15.0657 16.6073 15.1658 16.3913 15.2393C16.0408 15.359 15.6761 15.4374 15.318 15.5332C15.3267 15.5675 15.3354 15.6012 15.3441 15.6355C15.4073 15.6208 15.4693 15.6029 15.533 15.5914C15.9243 15.5196 16.314 15.4379 16.7069 15.3835C16.911 15.3552 17.1222 15.389 17.1674 15.6491C17.2087 15.8875 17.0618 16.0279 16.8621 16.1025C16.6591 16.1781 16.4463 16.2277 16.2362 16.2832C15.9553 16.3566 15.6734 16.4252 15.3915 16.4954C15.4024 16.5379 15.4133 16.5809 15.4242 16.6233C15.7719 16.5526 16.1213 16.4873 16.4675 16.4083C16.6846 16.3588 16.8746 16.3664 16.9578 16.6075C17.0368 16.8372 16.9138 17.0027 16.7216 17.0957C16.4947 17.2057 16.2552 17.2938 16.0141 17.3689C15.6391 17.486 15.2576 17.5834 14.8668 17.6928C14.9104 18.3312 14.9692 18.9249 14.9849 19.5198C14.9947 19.8768 15.1232 20.0592 15.4715 20.1892C16.148 20.4418 16.7978 20.7651 17.4602 21.0551C17.7824 21.1961 18.1084 21.3294 18.5095 21.4992C18.473 20.6252 18.5236 19.8344 18.3865 19.0779L18.387 19.0773Z" fill="var(--fill-0, #81D5F1)"/>
<g id="Group">
<path id="Vector_7" d="M15.4089 10.7631C15.3681 10.7631 15.3273 10.7479 15.2957 10.7174C15.194 10.6194 15.0878 10.5215 14.9806 10.4262C14.9131 10.3664 14.9072 10.263 14.967 10.1955C15.0269 10.128 15.1303 10.122 15.1978 10.1819C15.3083 10.2798 15.4171 10.3811 15.5222 10.4817C15.5869 10.5443 15.5891 10.6477 15.5265 10.7125C15.4944 10.7457 15.4514 10.7626 15.4089 10.7626V10.7631Z" fill="var(--fill-0, #2B1A12)"/>
<path id="Vector_8" d="M28.0944 19.1457C27.8348 19.1457 27.5709 19.1174 27.3091 19.0619C27.2209 19.0434 27.1643 18.9563 27.1834 18.8681C27.2019 18.7799 27.2889 18.7239 27.3771 18.7424C27.6427 18.799 27.9099 18.8246 28.1733 18.818C28.2637 18.8169 28.3383 18.8872 28.3404 18.9775C28.3426 19.0678 28.2713 19.1424 28.181 19.1446C28.1521 19.1451 28.1233 19.1457 28.0944 19.1457ZM26.5477 18.8017C26.5248 18.8017 26.5014 18.7968 26.4791 18.7865C26.2043 18.6597 25.9534 18.504 25.7324 18.3244C25.6622 18.2673 25.6518 18.1644 25.709 18.0947C25.7661 18.0245 25.869 18.0142 25.9387 18.0713C26.1384 18.2335 26.3664 18.3745 26.6162 18.4899C26.6979 18.5274 26.7338 18.6248 26.6963 18.7065C26.6685 18.7663 26.6097 18.8012 26.5477 18.8012V18.8017ZM19.2547 17.8101C18.9783 17.8079 18.8329 17.5298 18.7274 17.2577C18.6947 17.1739 18.7361 17.0792 18.8204 17.0465C18.9042 17.0139 18.9989 17.0552 19.0316 17.1396C19.1557 17.4585 19.2335 17.4835 19.2542 17.4835C19.2596 17.4835 19.2792 17.4835 19.3146 17.4433C19.3739 17.3752 19.4768 17.3682 19.5448 17.4275C19.6129 17.4868 19.6199 17.5897 19.5606 17.6577C19.4724 17.7589 19.3696 17.8101 19.2542 17.8101H19.2547ZM25.2785 17.7404C25.2241 17.7404 25.1707 17.7132 25.1397 17.6637C24.99 17.4231 24.8844 17.1619 24.8083 16.8408C24.7876 16.7532 24.8415 16.665 24.9291 16.6443C25.0167 16.6236 25.1049 16.6775 25.1256 16.7651C25.1936 17.0509 25.2861 17.2816 25.4167 17.4912C25.4646 17.5679 25.4412 17.6686 25.3645 17.7159C25.3378 17.7328 25.3079 17.7404 25.2785 17.7404ZM19.7593 16.9426C19.7435 16.9426 19.7277 16.9404 19.7114 16.9355C19.6254 16.9094 19.5764 16.8179 19.6031 16.7319L19.6346 16.628C19.6999 16.4125 19.774 16.1686 19.8632 15.9232C19.8942 15.8383 19.9878 15.7947 20.0727 15.8258C20.1576 15.8568 20.2012 15.9504 20.1702 16.0353C20.0842 16.272 20.0112 16.5115 19.947 16.7227L19.9155 16.8272C19.8942 16.8974 19.8295 16.9431 19.7593 16.9431V16.9426ZM18.6261 16.5616C18.5554 16.5616 18.4901 16.5153 18.4694 16.4435L18.4541 16.3912C18.3888 16.1665 18.3154 15.9112 18.231 15.6418C18.2038 15.5558 18.2522 15.4644 18.3382 15.4372C18.4242 15.4099 18.5157 15.4584 18.5429 15.5444C18.6283 15.817 18.7023 16.0739 18.7682 16.3009L18.7834 16.3531C18.8085 16.4397 18.7584 16.53 18.6718 16.5556C18.6566 16.5599 18.6414 16.5621 18.6261 16.5621V16.5616ZM24.8181 16.1403C24.7408 16.1403 24.6722 16.0854 24.6575 16.0064C24.6156 15.7757 24.5541 15.5068 24.4202 15.2603C24.3772 15.1808 24.4066 15.0818 24.4855 15.0388C24.565 14.9958 24.664 15.0252 24.707 15.1041C24.8632 15.3914 24.9318 15.6919 24.9786 15.9477C24.9949 16.0364 24.9362 16.1213 24.8474 16.1376C24.8376 16.1392 24.8278 16.1403 24.8181 16.1403ZM20.3645 15.3789C20.3367 15.3789 20.3084 15.3719 20.2828 15.3566C20.205 15.3114 20.1783 15.2113 20.2235 15.1335C20.3868 14.8521 20.5686 14.6257 20.7781 14.4406C20.8456 14.3808 20.949 14.3873 21.0083 14.4553C21.0682 14.5228 21.0616 14.6262 20.9936 14.6856C20.8107 14.8472 20.6507 15.0469 20.5054 15.2978C20.4749 15.3501 20.4205 15.3789 20.3639 15.3789H20.3645ZM18.1173 14.9615C18.0509 14.9615 17.9883 14.9207 17.9643 14.8548C17.8664 14.5892 17.7619 14.3307 17.653 14.0863C17.6166 14.0042 17.6536 13.9073 17.7363 13.8708C17.8185 13.8343 17.9153 13.8714 17.9518 13.9541C18.0628 14.205 18.1706 14.47 18.2707 14.7422C18.3018 14.8265 18.2588 14.9207 18.1739 14.9517C18.1554 14.9588 18.1363 14.962 18.1173 14.962V14.9615ZM24.0109 14.7258C23.9772 14.7258 23.9434 14.7155 23.9146 14.6943C23.711 14.5451 23.4754 14.427 23.2141 14.3421C23.1282 14.3144 23.0814 14.2224 23.1091 14.1364C23.1369 14.0504 23.2288 14.0036 23.3148 14.0314C23.6093 14.1266 23.8765 14.261 24.1078 14.4303C24.1807 14.4836 24.1965 14.586 24.1432 14.6583C24.1111 14.7019 24.0615 14.7253 24.0115 14.7253L24.0109 14.7258ZM21.6113 14.3176C21.5422 14.3176 21.4775 14.273 21.4557 14.2033C21.4285 14.1174 21.4764 14.0254 21.5624 13.9987C21.835 13.9127 22.1344 13.873 22.444 13.8817C22.5344 13.8844 22.6051 13.9595 22.603 14.0493C22.6002 14.1397 22.5257 14.2082 22.4353 14.2082C22.1621 14.2006 21.8987 14.2355 21.6609 14.3106C21.6445 14.3155 21.6282 14.3182 21.6119 14.3182L21.6113 14.3176ZM17.4342 13.4289C17.376 13.4289 17.3194 13.3973 17.29 13.3423C17.192 13.1589 17.0881 12.9777 16.9814 12.8035C16.9455 12.7448 16.909 12.6865 16.872 12.6294C16.8236 12.5537 16.8454 12.4525 16.9215 12.4041C16.9972 12.3551 17.0984 12.3774 17.1469 12.4536C17.1844 12.5124 17.222 12.5722 17.2595 12.6332C17.3695 12.8128 17.4767 12.9995 17.5779 13.1889C17.6204 13.2683 17.5904 13.3674 17.511 13.4098C17.4865 13.4229 17.4604 13.4289 17.4342 13.4289ZM16.5291 12.0171C16.4796 12.0171 16.4312 11.9948 16.3991 11.9529C16.2336 11.7352 16.0567 11.5207 15.8733 11.315C15.8135 11.2475 15.8194 11.1447 15.8864 11.0843C15.9539 11.0244 16.0567 11.0304 16.1171 11.0973C16.306 11.309 16.4883 11.5305 16.6592 11.7548C16.7136 11.8266 16.7 11.9289 16.6282 11.9834C16.5988 12.0057 16.564 12.0166 16.5297 12.0166L16.5291 12.0171Z" fill="var(--fill-0, #2B1A12)"/>
<path id="Vector_9" d="M29.0148 19.0111C28.9446 19.0111 28.8798 18.9654 28.8586 18.8947C28.8325 18.8081 28.8814 18.7172 28.968 18.6911C29.0986 18.6519 29.2287 18.603 29.3544 18.5458C29.4366 18.5088 29.5335 18.5447 29.5705 18.6269C29.608 18.7091 29.5716 18.806 29.4894 18.843C29.35 18.9061 29.2064 18.9605 29.0616 19.0035C29.0458 19.0084 29.03 19.0106 29.0148 19.0106V19.0111Z" fill="var(--fill-0, #2B1A12)"/>
</g>
</g>
</g>
</g>
</svg>
